G75*
%MOIN*%
%OFA0B0*%
%FSLAX25Y25*%
%IPPOS*%
%LPD*%
%AMOC8*
5,1,8,0,0,1.08239X$1,22.5*
%
%ADD10C,0.00000*%
%ADD11C,0.00800*%
%ADD12R,0.02200X0.00100*%
%ADD13R,0.00400X0.00100*%
%ADD14R,0.04600X0.00100*%
%ADD15R,0.02800X0.00100*%
%ADD16R,0.00600X0.00100*%
%ADD17R,0.00500X0.00100*%
%ADD18R,0.04700X0.00100*%
%ADD19R,0.03200X0.00100*%
%ADD20R,0.00700X0.00100*%
%ADD21R,0.03600X0.00100*%
%ADD22R,0.00800X0.00100*%
%ADD23R,0.03900X0.00100*%
%ADD24R,0.04400X0.00100*%
%ADD25R,0.00900X0.00100*%
%ADD26R,0.01200X0.00100*%
%ADD27R,0.01100X0.00100*%
%ADD28R,0.01000X0.00100*%
%ADD29R,0.01300X0.00100*%
%ADD30R,0.01400X0.00100*%
%ADD31R,0.01500X0.00100*%
%ADD32R,0.03500X0.00100*%
%ADD33R,0.03700X0.00100*%
%ADD34R,0.04500X0.00100*%
%ADD35R,0.02900X0.00100*%
%ADD36R,0.02300X0.00100*%
%ADD37R,0.01600X0.00100*%
%ADD38R,0.00200X0.00100*%
%ADD39R,0.00300X0.00100*%
%ADD40R,0.04200X0.00100*%
%ADD41R,0.03300X0.00100*%
%ADD42R,0.03400X0.00100*%
%ADD43R,0.03100X0.00100*%
%ADD44R,0.01800X0.00100*%
%ADD45R,0.03000X0.00100*%
%ADD46R,0.02500X0.00100*%
%ADD47R,0.02700X0.00100*%
%ADD48R,0.01700X0.00100*%
%ADD49R,0.02600X0.00100*%
%ADD50R,0.01900X0.00100*%
%ADD51R,0.02000X0.00100*%
%ADD52R,0.02100X0.00100*%
%ADD53R,0.03800X0.00100*%
%ADD54R,0.04000X0.00100*%
%ADD55R,0.04100X0.00100*%
%ADD56R,0.04900X0.00100*%
%ADD57R,0.05100X0.00100*%
%ADD58R,0.05300X0.00100*%
%ADD59R,0.05400X0.00100*%
%ADD60R,0.05600X0.00100*%
%ADD61R,0.05800X0.00100*%
%ADD62R,0.05900X0.00100*%
%ADD63R,0.04300X0.00100*%
%ADD64R,0.05000X0.00100*%
%ADD65R,0.05200X0.00100*%
%ADD66R,0.07000X0.00100*%
%ADD67R,0.07500X0.00100*%
%ADD68R,0.08000X0.00100*%
%ADD69R,0.10100X0.00100*%
%ADD70R,0.10200X0.00100*%
%ADD71R,0.10400X0.00100*%
%ADD72R,0.05700X0.00100*%
%ADD73R,0.05500X0.00100*%
%ADD74R,0.06100X0.00100*%
%ADD75R,0.06400X0.00100*%
%ADD76R,0.06600X0.00100*%
%ADD77R,0.02400X0.00100*%
%ADD78R,0.06800X0.00100*%
%ADD79R,0.07100X0.00100*%
%ADD80R,0.07200X0.00100*%
%ADD81R,0.04800X0.00100*%
%ADD82R,0.06900X0.00100*%
%ADD83R,0.06000X0.00100*%
%ADD84R,0.00100X0.00100*%
%ADD85R,0.07700X0.00100*%
%ADD86R,0.07600X0.00100*%
%ADD87R,0.06700X0.00100*%
%ADD88R,0.06200X0.00100*%
%ADD89C,0.00300*%
%ADD90C,0.00600*%
%ADD91C,0.01000*%
%ADD92C,0.00500*%
%ADD93C,0.00200*%
%ADD94R,0.08500X0.02000*%
%ADD95C,0.03000*%
%ADD96R,0.02000X0.03000*%
%ADD97R,0.04000X0.03000*%
%ADD98C,0.01600*%
%ADD99C,0.01200*%
%ADD100R,0.10000X0.02000*%
%ADD101R,0.03000X0.07500*%
D10*
X0001500Y0003300D02*
X0001500Y0318261D01*
X0395201Y0318261D01*
X0395201Y0003300D01*
X0001500Y0003300D01*
X0047950Y0250600D02*
X0047952Y0250719D01*
X0047958Y0250837D01*
X0047968Y0250955D01*
X0047982Y0251073D01*
X0047999Y0251190D01*
X0048021Y0251307D01*
X0048047Y0251423D01*
X0048076Y0251538D01*
X0048109Y0251652D01*
X0048146Y0251764D01*
X0048187Y0251876D01*
X0048232Y0251986D01*
X0048280Y0252094D01*
X0048332Y0252201D01*
X0048387Y0252306D01*
X0048446Y0252409D01*
X0048508Y0252510D01*
X0048573Y0252609D01*
X0048642Y0252706D01*
X0048714Y0252800D01*
X0048789Y0252892D01*
X0048867Y0252981D01*
X0048948Y0253068D01*
X0049032Y0253152D01*
X0049119Y0253233D01*
X0049208Y0253311D01*
X0049300Y0253386D01*
X0049394Y0253458D01*
X0049491Y0253527D01*
X0049590Y0253592D01*
X0049691Y0253654D01*
X0049794Y0253713D01*
X0049899Y0253768D01*
X0050006Y0253820D01*
X0050114Y0253868D01*
X0050224Y0253913D01*
X0050336Y0253954D01*
X0050448Y0253991D01*
X0050562Y0254024D01*
X0050677Y0254053D01*
X0050793Y0254079D01*
X0050910Y0254101D01*
X0051027Y0254118D01*
X0051145Y0254132D01*
X0051263Y0254142D01*
X0051381Y0254148D01*
X0051500Y0254150D01*
X0051619Y0254148D01*
X0051737Y0254142D01*
X0051855Y0254132D01*
X0051973Y0254118D01*
X0052090Y0254101D01*
X0052207Y0254079D01*
X0052323Y0254053D01*
X0052438Y0254024D01*
X0052552Y0253991D01*
X0052664Y0253954D01*
X0052776Y0253913D01*
X0052886Y0253868D01*
X0052994Y0253820D01*
X0053101Y0253768D01*
X0053206Y0253713D01*
X0053309Y0253654D01*
X0053410Y0253592D01*
X0053509Y0253527D01*
X0053606Y0253458D01*
X0053700Y0253386D01*
X0053792Y0253311D01*
X0053881Y0253233D01*
X0053968Y0253152D01*
X0054052Y0253068D01*
X0054133Y0252981D01*
X0054211Y0252892D01*
X0054286Y0252800D01*
X0054358Y0252706D01*
X0054427Y0252609D01*
X0054492Y0252510D01*
X0054554Y0252409D01*
X0054613Y0252306D01*
X0054668Y0252201D01*
X0054720Y0252094D01*
X0054768Y0251986D01*
X0054813Y0251876D01*
X0054854Y0251764D01*
X0054891Y0251652D01*
X0054924Y0251538D01*
X0054953Y0251423D01*
X0054979Y0251307D01*
X0055001Y0251190D01*
X0055018Y0251073D01*
X0055032Y0250955D01*
X0055042Y0250837D01*
X0055048Y0250719D01*
X0055050Y0250600D01*
X0055048Y0250481D01*
X0055042Y0250363D01*
X0055032Y0250245D01*
X0055018Y0250127D01*
X0055001Y0250010D01*
X0054979Y0249893D01*
X0054953Y0249777D01*
X0054924Y0249662D01*
X0054891Y0249548D01*
X0054854Y0249436D01*
X0054813Y0249324D01*
X0054768Y0249214D01*
X0054720Y0249106D01*
X0054668Y0248999D01*
X0054613Y0248894D01*
X0054554Y0248791D01*
X0054492Y0248690D01*
X0054427Y0248591D01*
X0054358Y0248494D01*
X0054286Y0248400D01*
X0054211Y0248308D01*
X0054133Y0248219D01*
X0054052Y0248132D01*
X0053968Y0248048D01*
X0053881Y0247967D01*
X0053792Y0247889D01*
X0053700Y0247814D01*
X0053606Y0247742D01*
X0053509Y0247673D01*
X0053410Y0247608D01*
X0053309Y0247546D01*
X0053206Y0247487D01*
X0053101Y0247432D01*
X0052994Y0247380D01*
X0052886Y0247332D01*
X0052776Y0247287D01*
X0052664Y0247246D01*
X0052552Y0247209D01*
X0052438Y0247176D01*
X0052323Y0247147D01*
X0052207Y0247121D01*
X0052090Y0247099D01*
X0051973Y0247082D01*
X0051855Y0247068D01*
X0051737Y0247058D01*
X0051619Y0247052D01*
X0051500Y0247050D01*
X0051381Y0247052D01*
X0051263Y0247058D01*
X0051145Y0247068D01*
X0051027Y0247082D01*
X0050910Y0247099D01*
X0050793Y0247121D01*
X0050677Y0247147D01*
X0050562Y0247176D01*
X0050448Y0247209D01*
X0050336Y0247246D01*
X0050224Y0247287D01*
X0050114Y0247332D01*
X0050006Y0247380D01*
X0049899Y0247432D01*
X0049794Y0247487D01*
X0049691Y0247546D01*
X0049590Y0247608D01*
X0049491Y0247673D01*
X0049394Y0247742D01*
X0049300Y0247814D01*
X0049208Y0247889D01*
X0049119Y0247967D01*
X0049032Y0248048D01*
X0048948Y0248132D01*
X0048867Y0248219D01*
X0048789Y0248308D01*
X0048714Y0248400D01*
X0048642Y0248494D01*
X0048573Y0248591D01*
X0048508Y0248690D01*
X0048446Y0248791D01*
X0048387Y0248894D01*
X0048332Y0248999D01*
X0048280Y0249106D01*
X0048232Y0249214D01*
X0048187Y0249324D01*
X0048146Y0249436D01*
X0048109Y0249548D01*
X0048076Y0249662D01*
X0048047Y0249777D01*
X0048021Y0249893D01*
X0047999Y0250010D01*
X0047982Y0250127D01*
X0047968Y0250245D01*
X0047958Y0250363D01*
X0047952Y0250481D01*
X0047950Y0250600D01*
X0047950Y0286000D02*
X0047952Y0286119D01*
X0047958Y0286237D01*
X0047968Y0286355D01*
X0047982Y0286473D01*
X0047999Y0286590D01*
X0048021Y0286707D01*
X0048047Y0286823D01*
X0048076Y0286938D01*
X0048109Y0287052D01*
X0048146Y0287164D01*
X0048187Y0287276D01*
X0048232Y0287386D01*
X0048280Y0287494D01*
X0048332Y0287601D01*
X0048387Y0287706D01*
X0048446Y0287809D01*
X0048508Y0287910D01*
X0048573Y0288009D01*
X0048642Y0288106D01*
X0048714Y0288200D01*
X0048789Y0288292D01*
X0048867Y0288381D01*
X0048948Y0288468D01*
X0049032Y0288552D01*
X0049119Y0288633D01*
X0049208Y0288711D01*
X0049300Y0288786D01*
X0049394Y0288858D01*
X0049491Y0288927D01*
X0049590Y0288992D01*
X0049691Y0289054D01*
X0049794Y0289113D01*
X0049899Y0289168D01*
X0050006Y0289220D01*
X0050114Y0289268D01*
X0050224Y0289313D01*
X0050336Y0289354D01*
X0050448Y0289391D01*
X0050562Y0289424D01*
X0050677Y0289453D01*
X0050793Y0289479D01*
X0050910Y0289501D01*
X0051027Y0289518D01*
X0051145Y0289532D01*
X0051263Y0289542D01*
X0051381Y0289548D01*
X0051500Y0289550D01*
X0051619Y0289548D01*
X0051737Y0289542D01*
X0051855Y0289532D01*
X0051973Y0289518D01*
X0052090Y0289501D01*
X0052207Y0289479D01*
X0052323Y0289453D01*
X0052438Y0289424D01*
X0052552Y0289391D01*
X0052664Y0289354D01*
X0052776Y0289313D01*
X0052886Y0289268D01*
X0052994Y0289220D01*
X0053101Y0289168D01*
X0053206Y0289113D01*
X0053309Y0289054D01*
X0053410Y0288992D01*
X0053509Y0288927D01*
X0053606Y0288858D01*
X0053700Y0288786D01*
X0053792Y0288711D01*
X0053881Y0288633D01*
X0053968Y0288552D01*
X0054052Y0288468D01*
X0054133Y0288381D01*
X0054211Y0288292D01*
X0054286Y0288200D01*
X0054358Y0288106D01*
X0054427Y0288009D01*
X0054492Y0287910D01*
X0054554Y0287809D01*
X0054613Y0287706D01*
X0054668Y0287601D01*
X0054720Y0287494D01*
X0054768Y0287386D01*
X0054813Y0287276D01*
X0054854Y0287164D01*
X0054891Y0287052D01*
X0054924Y0286938D01*
X0054953Y0286823D01*
X0054979Y0286707D01*
X0055001Y0286590D01*
X0055018Y0286473D01*
X0055032Y0286355D01*
X0055042Y0286237D01*
X0055048Y0286119D01*
X0055050Y0286000D01*
X0055048Y0285881D01*
X0055042Y0285763D01*
X0055032Y0285645D01*
X0055018Y0285527D01*
X0055001Y0285410D01*
X0054979Y0285293D01*
X0054953Y0285177D01*
X0054924Y0285062D01*
X0054891Y0284948D01*
X0054854Y0284836D01*
X0054813Y0284724D01*
X0054768Y0284614D01*
X0054720Y0284506D01*
X0054668Y0284399D01*
X0054613Y0284294D01*
X0054554Y0284191D01*
X0054492Y0284090D01*
X0054427Y0283991D01*
X0054358Y0283894D01*
X0054286Y0283800D01*
X0054211Y0283708D01*
X0054133Y0283619D01*
X0054052Y0283532D01*
X0053968Y0283448D01*
X0053881Y0283367D01*
X0053792Y0283289D01*
X0053700Y0283214D01*
X0053606Y0283142D01*
X0053509Y0283073D01*
X0053410Y0283008D01*
X0053309Y0282946D01*
X0053206Y0282887D01*
X0053101Y0282832D01*
X0052994Y0282780D01*
X0052886Y0282732D01*
X0052776Y0282687D01*
X0052664Y0282646D01*
X0052552Y0282609D01*
X0052438Y0282576D01*
X0052323Y0282547D01*
X0052207Y0282521D01*
X0052090Y0282499D01*
X0051973Y0282482D01*
X0051855Y0282468D01*
X0051737Y0282458D01*
X0051619Y0282452D01*
X0051500Y0282450D01*
X0051381Y0282452D01*
X0051263Y0282458D01*
X0051145Y0282468D01*
X0051027Y0282482D01*
X0050910Y0282499D01*
X0050793Y0282521D01*
X0050677Y0282547D01*
X0050562Y0282576D01*
X0050448Y0282609D01*
X0050336Y0282646D01*
X0050224Y0282687D01*
X0050114Y0282732D01*
X0050006Y0282780D01*
X0049899Y0282832D01*
X0049794Y0282887D01*
X0049691Y0282946D01*
X0049590Y0283008D01*
X0049491Y0283073D01*
X0049394Y0283142D01*
X0049300Y0283214D01*
X0049208Y0283289D01*
X0049119Y0283367D01*
X0049032Y0283448D01*
X0048948Y0283532D01*
X0048867Y0283619D01*
X0048789Y0283708D01*
X0048714Y0283800D01*
X0048642Y0283894D01*
X0048573Y0283991D01*
X0048508Y0284090D01*
X0048446Y0284191D01*
X0048387Y0284294D01*
X0048332Y0284399D01*
X0048280Y0284506D01*
X0048232Y0284614D01*
X0048187Y0284724D01*
X0048146Y0284836D01*
X0048109Y0284948D01*
X0048076Y0285062D01*
X0048047Y0285177D01*
X0048021Y0285293D01*
X0047999Y0285410D01*
X0047982Y0285527D01*
X0047968Y0285645D01*
X0047958Y0285763D01*
X0047952Y0285881D01*
X0047950Y0286000D01*
D11*
X0221900Y0306256D02*
X0221900Y0310344D01*
X0221902Y0310444D01*
X0221908Y0310545D01*
X0221918Y0310644D01*
X0221931Y0310744D01*
X0221949Y0310843D01*
X0221971Y0310941D01*
X0221996Y0311038D01*
X0222025Y0311134D01*
X0222058Y0311229D01*
X0222095Y0311322D01*
X0222135Y0311414D01*
X0222179Y0311504D01*
X0222226Y0311593D01*
X0222277Y0311680D01*
X0222331Y0311764D01*
X0222388Y0311846D01*
X0222449Y0311926D01*
X0222512Y0312004D01*
X0222579Y0312079D01*
X0222649Y0312151D01*
X0222721Y0312221D01*
X0222796Y0312288D01*
X0222874Y0312351D01*
X0222954Y0312412D01*
X0223036Y0312469D01*
X0223120Y0312523D01*
X0223207Y0312574D01*
X0223296Y0312621D01*
X0223386Y0312665D01*
X0223478Y0312705D01*
X0223571Y0312742D01*
X0223666Y0312775D01*
X0223762Y0312804D01*
X0223859Y0312829D01*
X0223957Y0312851D01*
X0224056Y0312869D01*
X0224156Y0312882D01*
X0224255Y0312892D01*
X0224356Y0312898D01*
X0224456Y0312900D01*
X0224556Y0312898D01*
X0224657Y0312892D01*
X0224756Y0312882D01*
X0224856Y0312869D01*
X0224955Y0312851D01*
X0225053Y0312829D01*
X0225150Y0312804D01*
X0225246Y0312775D01*
X0225341Y0312742D01*
X0225434Y0312705D01*
X0225526Y0312665D01*
X0225616Y0312621D01*
X0225705Y0312574D01*
X0225792Y0312523D01*
X0225876Y0312469D01*
X0225958Y0312412D01*
X0226038Y0312351D01*
X0226116Y0312288D01*
X0226191Y0312221D01*
X0226263Y0312151D01*
X0226333Y0312079D01*
X0226400Y0312004D01*
X0226463Y0311926D01*
X0226524Y0311846D01*
X0226581Y0311764D01*
X0226635Y0311680D01*
X0226686Y0311593D01*
X0226733Y0311504D01*
X0226777Y0311414D01*
X0226817Y0311322D01*
X0226854Y0311229D01*
X0226887Y0311134D01*
X0226916Y0311038D01*
X0226941Y0310941D01*
X0226963Y0310843D01*
X0226981Y0310744D01*
X0226994Y0310644D01*
X0227004Y0310545D01*
X0227010Y0310444D01*
X0227012Y0310344D01*
X0227011Y0310344D02*
X0227011Y0306256D01*
X0227012Y0306256D02*
X0227010Y0306156D01*
X0227004Y0306055D01*
X0226994Y0305956D01*
X0226981Y0305856D01*
X0226963Y0305757D01*
X0226941Y0305659D01*
X0226916Y0305562D01*
X0226887Y0305466D01*
X0226854Y0305371D01*
X0226817Y0305278D01*
X0226777Y0305186D01*
X0226733Y0305096D01*
X0226686Y0305007D01*
X0226635Y0304920D01*
X0226581Y0304836D01*
X0226524Y0304754D01*
X0226463Y0304674D01*
X0226400Y0304596D01*
X0226333Y0304521D01*
X0226263Y0304449D01*
X0226191Y0304379D01*
X0226116Y0304312D01*
X0226038Y0304249D01*
X0225958Y0304188D01*
X0225876Y0304131D01*
X0225792Y0304077D01*
X0225705Y0304026D01*
X0225616Y0303979D01*
X0225526Y0303935D01*
X0225434Y0303895D01*
X0225341Y0303858D01*
X0225246Y0303825D01*
X0225150Y0303796D01*
X0225053Y0303771D01*
X0224955Y0303749D01*
X0224856Y0303731D01*
X0224756Y0303718D01*
X0224657Y0303708D01*
X0224556Y0303702D01*
X0224456Y0303700D01*
X0224356Y0303702D01*
X0224255Y0303708D01*
X0224156Y0303718D01*
X0224056Y0303731D01*
X0223957Y0303749D01*
X0223859Y0303771D01*
X0223762Y0303796D01*
X0223666Y0303825D01*
X0223571Y0303858D01*
X0223478Y0303895D01*
X0223386Y0303935D01*
X0223296Y0303979D01*
X0223207Y0304026D01*
X0223120Y0304077D01*
X0223036Y0304131D01*
X0222954Y0304188D01*
X0222874Y0304249D01*
X0222796Y0304312D01*
X0222721Y0304379D01*
X0222649Y0304449D01*
X0222579Y0304521D01*
X0222512Y0304596D01*
X0222449Y0304674D01*
X0222388Y0304754D01*
X0222331Y0304836D01*
X0222277Y0304920D01*
X0222226Y0305007D01*
X0222179Y0305096D01*
X0222135Y0305186D01*
X0222095Y0305278D01*
X0222058Y0305371D01*
X0222025Y0305466D01*
X0221996Y0305562D01*
X0221971Y0305659D01*
X0221949Y0305757D01*
X0221931Y0305856D01*
X0221918Y0305956D01*
X0221908Y0306055D01*
X0221902Y0306156D01*
X0221900Y0306256D01*
X0230431Y0303700D02*
X0230431Y0312900D01*
X0233498Y0307789D01*
X0236564Y0312900D01*
X0236564Y0303700D01*
X0240268Y0303700D02*
X0240268Y0312900D01*
X0244356Y0312900D01*
X0247382Y0312900D02*
X0252493Y0303700D01*
X0252493Y0312900D01*
X0247382Y0312900D02*
X0247382Y0303700D01*
X0244356Y0303700D02*
X0240268Y0303700D01*
X0240268Y0308811D02*
X0243334Y0308811D01*
X0260592Y0308811D02*
X0263148Y0308811D01*
X0263148Y0308812D02*
X0263237Y0308814D01*
X0263326Y0308820D01*
X0263415Y0308829D01*
X0263503Y0308843D01*
X0263590Y0308860D01*
X0263677Y0308882D01*
X0263763Y0308907D01*
X0263847Y0308935D01*
X0263930Y0308968D01*
X0264012Y0309004D01*
X0264092Y0309043D01*
X0264170Y0309086D01*
X0264246Y0309132D01*
X0264320Y0309182D01*
X0264392Y0309234D01*
X0264462Y0309290D01*
X0264529Y0309349D01*
X0264593Y0309411D01*
X0264655Y0309475D01*
X0264714Y0309542D01*
X0264770Y0309612D01*
X0264822Y0309684D01*
X0264872Y0309758D01*
X0264918Y0309834D01*
X0264961Y0309912D01*
X0265000Y0309992D01*
X0265036Y0310074D01*
X0265069Y0310157D01*
X0265097Y0310241D01*
X0265122Y0310327D01*
X0265144Y0310414D01*
X0265161Y0310501D01*
X0265175Y0310589D01*
X0265184Y0310678D01*
X0265190Y0310767D01*
X0265192Y0310856D01*
X0265190Y0310945D01*
X0265184Y0311034D01*
X0265175Y0311123D01*
X0265161Y0311211D01*
X0265144Y0311298D01*
X0265122Y0311385D01*
X0265097Y0311471D01*
X0265069Y0311555D01*
X0265036Y0311638D01*
X0265000Y0311720D01*
X0264961Y0311800D01*
X0264918Y0311878D01*
X0264872Y0311954D01*
X0264822Y0312028D01*
X0264770Y0312100D01*
X0264714Y0312170D01*
X0264655Y0312237D01*
X0264593Y0312301D01*
X0264529Y0312363D01*
X0264462Y0312422D01*
X0264392Y0312478D01*
X0264320Y0312530D01*
X0264246Y0312580D01*
X0264170Y0312626D01*
X0264092Y0312669D01*
X0264012Y0312708D01*
X0263930Y0312744D01*
X0263847Y0312777D01*
X0263763Y0312805D01*
X0263677Y0312830D01*
X0263590Y0312852D01*
X0263503Y0312869D01*
X0263415Y0312883D01*
X0263326Y0312892D01*
X0263237Y0312898D01*
X0263148Y0312900D01*
X0260592Y0312900D01*
X0260592Y0303700D01*
X0263148Y0303700D01*
X0263248Y0303702D01*
X0263349Y0303708D01*
X0263448Y0303718D01*
X0263548Y0303731D01*
X0263647Y0303749D01*
X0263745Y0303771D01*
X0263842Y0303796D01*
X0263938Y0303825D01*
X0264033Y0303858D01*
X0264126Y0303895D01*
X0264218Y0303935D01*
X0264308Y0303979D01*
X0264397Y0304026D01*
X0264484Y0304077D01*
X0264568Y0304131D01*
X0264650Y0304188D01*
X0264730Y0304249D01*
X0264808Y0304312D01*
X0264883Y0304379D01*
X0264955Y0304449D01*
X0265025Y0304521D01*
X0265092Y0304596D01*
X0265155Y0304674D01*
X0265216Y0304754D01*
X0265273Y0304836D01*
X0265327Y0304920D01*
X0265378Y0305007D01*
X0265425Y0305096D01*
X0265469Y0305186D01*
X0265509Y0305278D01*
X0265546Y0305371D01*
X0265579Y0305466D01*
X0265608Y0305562D01*
X0265633Y0305659D01*
X0265655Y0305757D01*
X0265673Y0305856D01*
X0265686Y0305956D01*
X0265696Y0306055D01*
X0265702Y0306156D01*
X0265704Y0306256D01*
X0265702Y0306356D01*
X0265696Y0306457D01*
X0265686Y0306556D01*
X0265673Y0306656D01*
X0265655Y0306755D01*
X0265633Y0306853D01*
X0265608Y0306950D01*
X0265579Y0307046D01*
X0265546Y0307141D01*
X0265509Y0307234D01*
X0265469Y0307326D01*
X0265425Y0307416D01*
X0265378Y0307505D01*
X0265327Y0307592D01*
X0265273Y0307676D01*
X0265216Y0307758D01*
X0265155Y0307838D01*
X0265092Y0307916D01*
X0265025Y0307991D01*
X0264955Y0308063D01*
X0264883Y0308133D01*
X0264808Y0308200D01*
X0264730Y0308263D01*
X0264650Y0308324D01*
X0264568Y0308381D01*
X0264484Y0308435D01*
X0264397Y0308486D01*
X0264308Y0308533D01*
X0264218Y0308577D01*
X0264126Y0308617D01*
X0264033Y0308654D01*
X0263938Y0308687D01*
X0263842Y0308716D01*
X0263745Y0308741D01*
X0263647Y0308763D01*
X0263548Y0308781D01*
X0263448Y0308794D01*
X0263349Y0308804D01*
X0263248Y0308810D01*
X0263148Y0308812D01*
X0268742Y0309833D02*
X0271809Y0309833D01*
X0271809Y0308811D01*
X0274688Y0309833D02*
X0276732Y0309833D01*
X0276807Y0309831D01*
X0276882Y0309826D01*
X0276957Y0309816D01*
X0277031Y0309804D01*
X0277104Y0309787D01*
X0277177Y0309767D01*
X0277248Y0309743D01*
X0277319Y0309716D01*
X0277387Y0309686D01*
X0277455Y0309652D01*
X0277520Y0309615D01*
X0277584Y0309575D01*
X0277645Y0309531D01*
X0277705Y0309485D01*
X0277761Y0309436D01*
X0277816Y0309384D01*
X0277868Y0309329D01*
X0277917Y0309273D01*
X0277963Y0309213D01*
X0278007Y0309152D01*
X0278047Y0309088D01*
X0278084Y0309023D01*
X0278118Y0308955D01*
X0278148Y0308887D01*
X0278175Y0308816D01*
X0278199Y0308745D01*
X0278219Y0308672D01*
X0278236Y0308599D01*
X0278248Y0308525D01*
X0278258Y0308450D01*
X0278263Y0308375D01*
X0278265Y0308300D01*
X0278266Y0308300D02*
X0278266Y0303700D01*
X0275966Y0303700D01*
X0275882Y0303702D01*
X0275798Y0303708D01*
X0275715Y0303718D01*
X0275632Y0303731D01*
X0275550Y0303749D01*
X0275469Y0303770D01*
X0275389Y0303796D01*
X0275311Y0303824D01*
X0275233Y0303857D01*
X0275158Y0303893D01*
X0275084Y0303933D01*
X0275012Y0303976D01*
X0274942Y0304022D01*
X0274874Y0304072D01*
X0274809Y0304125D01*
X0274746Y0304180D01*
X0274686Y0304239D01*
X0274629Y0304300D01*
X0274575Y0304364D01*
X0274524Y0304431D01*
X0274476Y0304499D01*
X0274431Y0304570D01*
X0274389Y0304643D01*
X0274352Y0304718D01*
X0274317Y0304795D01*
X0274286Y0304873D01*
X0274259Y0304952D01*
X0274236Y0305033D01*
X0274217Y0305114D01*
X0274201Y0305197D01*
X0274189Y0305280D01*
X0274181Y0305363D01*
X0274177Y0305447D01*
X0274177Y0305531D01*
X0274181Y0305615D01*
X0274189Y0305698D01*
X0274201Y0305781D01*
X0274217Y0305864D01*
X0274236Y0305945D01*
X0274259Y0306026D01*
X0274286Y0306105D01*
X0274317Y0306183D01*
X0274352Y0306260D01*
X0274389Y0306335D01*
X0274431Y0306408D01*
X0274476Y0306479D01*
X0274524Y0306547D01*
X0274575Y0306614D01*
X0274629Y0306678D01*
X0274686Y0306739D01*
X0274746Y0306798D01*
X0274809Y0306853D01*
X0274874Y0306906D01*
X0274942Y0306956D01*
X0275012Y0307002D01*
X0275084Y0307045D01*
X0275158Y0307085D01*
X0275233Y0307121D01*
X0275311Y0307154D01*
X0275389Y0307182D01*
X0275469Y0307208D01*
X0275550Y0307229D01*
X0275632Y0307247D01*
X0275715Y0307260D01*
X0275798Y0307270D01*
X0275882Y0307276D01*
X0275966Y0307278D01*
X0278266Y0307278D01*
X0281321Y0309833D02*
X0283365Y0303700D01*
X0285410Y0309833D01*
X0288171Y0307789D02*
X0288171Y0305744D01*
X0288173Y0305655D01*
X0288179Y0305566D01*
X0288188Y0305477D01*
X0288202Y0305389D01*
X0288219Y0305302D01*
X0288241Y0305215D01*
X0288266Y0305129D01*
X0288294Y0305045D01*
X0288327Y0304962D01*
X0288363Y0304880D01*
X0288402Y0304800D01*
X0288445Y0304722D01*
X0288491Y0304646D01*
X0288541Y0304572D01*
X0288593Y0304500D01*
X0288649Y0304430D01*
X0288708Y0304363D01*
X0288770Y0304299D01*
X0288834Y0304237D01*
X0288901Y0304178D01*
X0288971Y0304122D01*
X0289043Y0304070D01*
X0289117Y0304020D01*
X0289193Y0303974D01*
X0289271Y0303931D01*
X0289351Y0303892D01*
X0289433Y0303856D01*
X0289516Y0303823D01*
X0289600Y0303795D01*
X0289686Y0303770D01*
X0289773Y0303748D01*
X0289860Y0303731D01*
X0289948Y0303717D01*
X0290037Y0303708D01*
X0290126Y0303702D01*
X0290215Y0303700D01*
X0290304Y0303702D01*
X0290393Y0303708D01*
X0290482Y0303717D01*
X0290570Y0303731D01*
X0290657Y0303748D01*
X0290744Y0303770D01*
X0290830Y0303795D01*
X0290914Y0303823D01*
X0290997Y0303856D01*
X0291079Y0303892D01*
X0291159Y0303931D01*
X0291237Y0303974D01*
X0291313Y0304020D01*
X0291387Y0304070D01*
X0291459Y0304122D01*
X0291529Y0304178D01*
X0291596Y0304237D01*
X0291660Y0304299D01*
X0291722Y0304363D01*
X0291781Y0304430D01*
X0291837Y0304500D01*
X0291889Y0304572D01*
X0291939Y0304646D01*
X0291985Y0304722D01*
X0292028Y0304800D01*
X0292067Y0304880D01*
X0292103Y0304962D01*
X0292136Y0305045D01*
X0292164Y0305129D01*
X0292189Y0305215D01*
X0292211Y0305302D01*
X0292228Y0305389D01*
X0292242Y0305477D01*
X0292251Y0305566D01*
X0292257Y0305655D01*
X0292259Y0305744D01*
X0292260Y0305744D02*
X0292260Y0307789D01*
X0292259Y0307789D02*
X0292257Y0307878D01*
X0292251Y0307967D01*
X0292242Y0308056D01*
X0292228Y0308144D01*
X0292211Y0308231D01*
X0292189Y0308318D01*
X0292164Y0308404D01*
X0292136Y0308488D01*
X0292103Y0308571D01*
X0292067Y0308653D01*
X0292028Y0308733D01*
X0291985Y0308811D01*
X0291939Y0308887D01*
X0291889Y0308961D01*
X0291837Y0309033D01*
X0291781Y0309103D01*
X0291722Y0309170D01*
X0291660Y0309234D01*
X0291596Y0309296D01*
X0291529Y0309355D01*
X0291459Y0309411D01*
X0291387Y0309463D01*
X0291313Y0309513D01*
X0291237Y0309559D01*
X0291159Y0309602D01*
X0291079Y0309641D01*
X0290997Y0309677D01*
X0290914Y0309710D01*
X0290830Y0309738D01*
X0290744Y0309763D01*
X0290657Y0309785D01*
X0290570Y0309802D01*
X0290482Y0309816D01*
X0290393Y0309825D01*
X0290304Y0309831D01*
X0290215Y0309833D01*
X0290126Y0309831D01*
X0290037Y0309825D01*
X0289948Y0309816D01*
X0289860Y0309802D01*
X0289773Y0309785D01*
X0289686Y0309763D01*
X0289600Y0309738D01*
X0289516Y0309710D01*
X0289433Y0309677D01*
X0289351Y0309641D01*
X0289271Y0309602D01*
X0289193Y0309559D01*
X0289117Y0309513D01*
X0289043Y0309463D01*
X0288971Y0309411D01*
X0288901Y0309355D01*
X0288834Y0309296D01*
X0288770Y0309234D01*
X0288708Y0309170D01*
X0288649Y0309103D01*
X0288593Y0309033D01*
X0288541Y0308961D01*
X0288491Y0308887D01*
X0288445Y0308811D01*
X0288402Y0308733D01*
X0288363Y0308653D01*
X0288327Y0308571D01*
X0288294Y0308488D01*
X0288266Y0308404D01*
X0288241Y0308318D01*
X0288219Y0308231D01*
X0288202Y0308144D01*
X0288188Y0308056D01*
X0288179Y0307967D01*
X0288173Y0307878D01*
X0288171Y0307789D01*
X0299805Y0309833D02*
X0299805Y0303700D01*
X0304245Y0309833D02*
X0304393Y0309829D01*
X0304541Y0309822D01*
X0304689Y0309810D01*
X0304836Y0309795D01*
X0304984Y0309776D01*
X0305130Y0309753D01*
X0305276Y0309726D01*
X0305421Y0309696D01*
X0305565Y0309662D01*
X0305709Y0309624D01*
X0305851Y0309583D01*
X0305992Y0309538D01*
X0306133Y0309489D01*
X0306271Y0309437D01*
X0306409Y0309381D01*
X0306545Y0309322D01*
X0304245Y0309833D02*
X0304173Y0309832D01*
X0304101Y0309827D01*
X0304029Y0309818D01*
X0303958Y0309806D01*
X0303888Y0309789D01*
X0303819Y0309769D01*
X0303751Y0309745D01*
X0303684Y0309717D01*
X0303619Y0309686D01*
X0303556Y0309651D01*
X0303495Y0309613D01*
X0303436Y0309572D01*
X0303379Y0309527D01*
X0303325Y0309480D01*
X0303274Y0309429D01*
X0303225Y0309376D01*
X0303179Y0309320D01*
X0303137Y0309262D01*
X0303097Y0309202D01*
X0303061Y0309139D01*
X0303028Y0309075D01*
X0302999Y0309009D01*
X0302974Y0308942D01*
X0302952Y0308873D01*
X0302934Y0308803D01*
X0302920Y0308732D01*
X0302910Y0308661D01*
X0302903Y0308589D01*
X0302901Y0308517D01*
X0302902Y0308445D01*
X0302908Y0308373D01*
X0302917Y0308302D01*
X0302930Y0308231D01*
X0302947Y0308161D01*
X0302968Y0308092D01*
X0302993Y0308024D01*
X0303021Y0307958D01*
X0303052Y0307893D01*
X0303088Y0307830D01*
X0303126Y0307769D01*
X0303168Y0307710D01*
X0303213Y0307654D01*
X0303261Y0307600D01*
X0303312Y0307549D01*
X0303365Y0307501D01*
X0303421Y0307455D01*
X0303480Y0307413D01*
X0303540Y0307374D01*
X0303603Y0307339D01*
X0303668Y0307306D01*
X0303734Y0307278D01*
X0306289Y0306256D01*
X0306289Y0306255D02*
X0306355Y0306227D01*
X0306420Y0306194D01*
X0306483Y0306159D01*
X0306543Y0306120D01*
X0306602Y0306078D01*
X0306658Y0306032D01*
X0306711Y0305984D01*
X0306762Y0305933D01*
X0306810Y0305879D01*
X0306855Y0305823D01*
X0306897Y0305764D01*
X0306935Y0305703D01*
X0306971Y0305640D01*
X0307002Y0305575D01*
X0307030Y0305509D01*
X0307055Y0305441D01*
X0307076Y0305372D01*
X0307093Y0305302D01*
X0307106Y0305231D01*
X0307115Y0305160D01*
X0307121Y0305088D01*
X0307122Y0305016D01*
X0307120Y0304944D01*
X0307113Y0304872D01*
X0307103Y0304801D01*
X0307089Y0304730D01*
X0307071Y0304660D01*
X0307049Y0304591D01*
X0307024Y0304524D01*
X0306995Y0304458D01*
X0306962Y0304394D01*
X0306926Y0304331D01*
X0306886Y0304271D01*
X0306844Y0304213D01*
X0306798Y0304157D01*
X0306749Y0304104D01*
X0306698Y0304053D01*
X0306644Y0304006D01*
X0306587Y0303961D01*
X0306528Y0303920D01*
X0306467Y0303882D01*
X0306404Y0303847D01*
X0306339Y0303816D01*
X0306272Y0303788D01*
X0306204Y0303764D01*
X0306135Y0303744D01*
X0306065Y0303727D01*
X0305994Y0303715D01*
X0305922Y0303706D01*
X0305850Y0303701D01*
X0305778Y0303700D01*
X0311369Y0309833D02*
X0311517Y0309829D01*
X0311665Y0309822D01*
X0311813Y0309810D01*
X0311960Y0309795D01*
X0312108Y0309776D01*
X0312254Y0309753D01*
X0312400Y0309726D01*
X0312545Y0309696D01*
X0312689Y0309662D01*
X0312833Y0309624D01*
X0312975Y0309583D01*
X0313116Y0309538D01*
X0313257Y0309489D01*
X0313395Y0309437D01*
X0313533Y0309381D01*
X0313669Y0309322D01*
X0311369Y0309833D02*
X0311297Y0309832D01*
X0311225Y0309827D01*
X0311153Y0309818D01*
X0311082Y0309806D01*
X0311012Y0309789D01*
X0310943Y0309769D01*
X0310875Y0309745D01*
X0310808Y0309717D01*
X0310743Y0309686D01*
X0310680Y0309651D01*
X0310619Y0309613D01*
X0310560Y0309572D01*
X0310503Y0309527D01*
X0310449Y0309480D01*
X0310398Y0309429D01*
X0310349Y0309376D01*
X0310303Y0309320D01*
X0310261Y0309262D01*
X0310221Y0309202D01*
X0310185Y0309139D01*
X0310152Y0309075D01*
X0310123Y0309009D01*
X0310098Y0308942D01*
X0310076Y0308873D01*
X0310058Y0308803D01*
X0310044Y0308732D01*
X0310034Y0308661D01*
X0310027Y0308589D01*
X0310025Y0308517D01*
X0310026Y0308445D01*
X0310032Y0308373D01*
X0310041Y0308302D01*
X0310054Y0308231D01*
X0310071Y0308161D01*
X0310092Y0308092D01*
X0310117Y0308024D01*
X0310145Y0307958D01*
X0310176Y0307893D01*
X0310212Y0307830D01*
X0310250Y0307769D01*
X0310292Y0307710D01*
X0310337Y0307654D01*
X0310385Y0307600D01*
X0310436Y0307549D01*
X0310489Y0307501D01*
X0310545Y0307455D01*
X0310604Y0307413D01*
X0310664Y0307374D01*
X0310727Y0307339D01*
X0310792Y0307306D01*
X0310858Y0307278D01*
X0313413Y0306256D01*
X0313413Y0306255D02*
X0313479Y0306227D01*
X0313544Y0306194D01*
X0313607Y0306159D01*
X0313667Y0306120D01*
X0313726Y0306078D01*
X0313782Y0306032D01*
X0313835Y0305984D01*
X0313886Y0305933D01*
X0313934Y0305879D01*
X0313979Y0305823D01*
X0314021Y0305764D01*
X0314059Y0305703D01*
X0314095Y0305640D01*
X0314126Y0305575D01*
X0314154Y0305509D01*
X0314179Y0305441D01*
X0314200Y0305372D01*
X0314217Y0305302D01*
X0314230Y0305231D01*
X0314239Y0305160D01*
X0314245Y0305088D01*
X0314246Y0305016D01*
X0314244Y0304944D01*
X0314237Y0304872D01*
X0314227Y0304801D01*
X0314213Y0304730D01*
X0314195Y0304660D01*
X0314173Y0304591D01*
X0314148Y0304524D01*
X0314119Y0304458D01*
X0314086Y0304394D01*
X0314050Y0304331D01*
X0314010Y0304271D01*
X0313968Y0304213D01*
X0313922Y0304157D01*
X0313873Y0304104D01*
X0313822Y0304053D01*
X0313768Y0304006D01*
X0313711Y0303961D01*
X0313652Y0303920D01*
X0313591Y0303882D01*
X0313528Y0303847D01*
X0313463Y0303816D01*
X0313396Y0303788D01*
X0313328Y0303764D01*
X0313259Y0303744D01*
X0313189Y0303727D01*
X0313118Y0303715D01*
X0313046Y0303706D01*
X0312974Y0303701D01*
X0312902Y0303700D01*
X0317489Y0305233D02*
X0317489Y0309833D01*
X0321578Y0309833D02*
X0321578Y0303700D01*
X0319022Y0303700D01*
X0318947Y0303702D01*
X0318872Y0303707D01*
X0318797Y0303717D01*
X0318723Y0303729D01*
X0318650Y0303746D01*
X0318577Y0303766D01*
X0318506Y0303790D01*
X0318435Y0303817D01*
X0318367Y0303847D01*
X0318299Y0303881D01*
X0318234Y0303918D01*
X0318170Y0303958D01*
X0318109Y0304002D01*
X0318049Y0304048D01*
X0317993Y0304097D01*
X0317938Y0304149D01*
X0317886Y0304204D01*
X0317837Y0304260D01*
X0317791Y0304320D01*
X0317747Y0304381D01*
X0317707Y0304445D01*
X0317670Y0304510D01*
X0317636Y0304578D01*
X0317606Y0304646D01*
X0317579Y0304717D01*
X0317555Y0304788D01*
X0317535Y0304861D01*
X0317518Y0304934D01*
X0317506Y0305008D01*
X0317496Y0305083D01*
X0317491Y0305158D01*
X0317489Y0305233D01*
X0324887Y0305233D02*
X0324887Y0307789D01*
X0324887Y0306767D02*
X0328976Y0306767D01*
X0328976Y0307789D01*
X0328975Y0307789D02*
X0328973Y0307878D01*
X0328967Y0307967D01*
X0328958Y0308056D01*
X0328944Y0308144D01*
X0328927Y0308231D01*
X0328905Y0308318D01*
X0328880Y0308404D01*
X0328852Y0308488D01*
X0328819Y0308571D01*
X0328783Y0308653D01*
X0328744Y0308733D01*
X0328701Y0308811D01*
X0328655Y0308887D01*
X0328605Y0308961D01*
X0328553Y0309033D01*
X0328497Y0309103D01*
X0328438Y0309170D01*
X0328376Y0309234D01*
X0328312Y0309296D01*
X0328245Y0309355D01*
X0328175Y0309411D01*
X0328103Y0309463D01*
X0328029Y0309513D01*
X0327953Y0309559D01*
X0327875Y0309602D01*
X0327795Y0309641D01*
X0327713Y0309677D01*
X0327630Y0309710D01*
X0327546Y0309738D01*
X0327460Y0309763D01*
X0327373Y0309785D01*
X0327286Y0309802D01*
X0327198Y0309816D01*
X0327109Y0309825D01*
X0327020Y0309831D01*
X0326931Y0309833D01*
X0326842Y0309831D01*
X0326753Y0309825D01*
X0326664Y0309816D01*
X0326576Y0309802D01*
X0326489Y0309785D01*
X0326402Y0309763D01*
X0326316Y0309738D01*
X0326232Y0309710D01*
X0326149Y0309677D01*
X0326067Y0309641D01*
X0325987Y0309602D01*
X0325909Y0309559D01*
X0325833Y0309513D01*
X0325759Y0309463D01*
X0325687Y0309411D01*
X0325617Y0309355D01*
X0325550Y0309296D01*
X0325486Y0309234D01*
X0325424Y0309170D01*
X0325365Y0309103D01*
X0325309Y0309033D01*
X0325257Y0308961D01*
X0325207Y0308887D01*
X0325161Y0308811D01*
X0325118Y0308733D01*
X0325079Y0308653D01*
X0325043Y0308571D01*
X0325010Y0308488D01*
X0324982Y0308404D01*
X0324957Y0308318D01*
X0324935Y0308231D01*
X0324918Y0308144D01*
X0324904Y0308056D01*
X0324895Y0307967D01*
X0324889Y0307878D01*
X0324887Y0307789D01*
X0324887Y0305233D02*
X0324889Y0305158D01*
X0324894Y0305083D01*
X0324904Y0305008D01*
X0324916Y0304934D01*
X0324933Y0304861D01*
X0324953Y0304788D01*
X0324977Y0304717D01*
X0325004Y0304646D01*
X0325034Y0304578D01*
X0325068Y0304510D01*
X0325105Y0304445D01*
X0325145Y0304381D01*
X0325189Y0304320D01*
X0325235Y0304260D01*
X0325284Y0304204D01*
X0325336Y0304149D01*
X0325391Y0304097D01*
X0325447Y0304048D01*
X0325507Y0304002D01*
X0325568Y0303958D01*
X0325632Y0303918D01*
X0325697Y0303881D01*
X0325765Y0303847D01*
X0325833Y0303817D01*
X0325904Y0303790D01*
X0325975Y0303766D01*
X0326048Y0303746D01*
X0326121Y0303729D01*
X0326195Y0303717D01*
X0326270Y0303707D01*
X0326345Y0303702D01*
X0326420Y0303700D01*
X0328976Y0303700D01*
X0336432Y0303700D02*
X0341543Y0303700D01*
X0336432Y0303700D02*
X0340776Y0308811D01*
X0339243Y0312900D02*
X0339137Y0312898D01*
X0339031Y0312892D01*
X0338925Y0312883D01*
X0338820Y0312870D01*
X0338715Y0312852D01*
X0338611Y0312832D01*
X0338508Y0312807D01*
X0338405Y0312779D01*
X0338304Y0312747D01*
X0338204Y0312711D01*
X0338105Y0312672D01*
X0338008Y0312630D01*
X0337912Y0312583D01*
X0337818Y0312534D01*
X0337726Y0312481D01*
X0337636Y0312425D01*
X0337548Y0312366D01*
X0337462Y0312303D01*
X0337379Y0312238D01*
X0337298Y0312169D01*
X0337219Y0312098D01*
X0337143Y0312024D01*
X0337070Y0311947D01*
X0336999Y0311868D01*
X0336931Y0311786D01*
X0336867Y0311702D01*
X0336805Y0311615D01*
X0336747Y0311526D01*
X0336692Y0311436D01*
X0336640Y0311343D01*
X0336591Y0311249D01*
X0336546Y0311153D01*
X0336504Y0311055D01*
X0336466Y0310956D01*
X0336432Y0310855D01*
X0340775Y0308811D02*
X0340843Y0308878D01*
X0340908Y0308948D01*
X0340971Y0309020D01*
X0341030Y0309094D01*
X0341087Y0309171D01*
X0341140Y0309250D01*
X0341191Y0309330D01*
X0341238Y0309413D01*
X0341282Y0309497D01*
X0341323Y0309583D01*
X0341361Y0309671D01*
X0341395Y0309760D01*
X0341425Y0309850D01*
X0341453Y0309941D01*
X0341476Y0310034D01*
X0341496Y0310127D01*
X0341513Y0310221D01*
X0341525Y0310315D01*
X0341535Y0310410D01*
X0341540Y0310505D01*
X0341542Y0310600D01*
X0341543Y0310600D02*
X0341541Y0310695D01*
X0341535Y0310790D01*
X0341525Y0310884D01*
X0341512Y0310979D01*
X0341494Y0311072D01*
X0341473Y0311165D01*
X0341447Y0311256D01*
X0341418Y0311347D01*
X0341386Y0311436D01*
X0341349Y0311524D01*
X0341309Y0311610D01*
X0341266Y0311695D01*
X0341219Y0311777D01*
X0341168Y0311858D01*
X0341115Y0311936D01*
X0341058Y0312013D01*
X0340998Y0312086D01*
X0340935Y0312158D01*
X0340869Y0312226D01*
X0340801Y0312292D01*
X0340729Y0312355D01*
X0340656Y0312415D01*
X0340579Y0312472D01*
X0340501Y0312525D01*
X0340420Y0312576D01*
X0340338Y0312623D01*
X0340253Y0312666D01*
X0340167Y0312706D01*
X0340079Y0312743D01*
X0339990Y0312775D01*
X0339899Y0312804D01*
X0339808Y0312830D01*
X0339715Y0312851D01*
X0339622Y0312869D01*
X0339527Y0312882D01*
X0339433Y0312892D01*
X0339338Y0312898D01*
X0339243Y0312900D01*
X0312902Y0303700D02*
X0312697Y0303705D01*
X0312493Y0303715D01*
X0312288Y0303730D01*
X0312084Y0303750D01*
X0311880Y0303775D01*
X0311678Y0303805D01*
X0311475Y0303839D01*
X0311274Y0303878D01*
X0311074Y0303922D01*
X0310875Y0303970D01*
X0310677Y0304023D01*
X0310480Y0304081D01*
X0310285Y0304144D01*
X0310091Y0304211D01*
X0305778Y0303700D02*
X0305573Y0303705D01*
X0305369Y0303715D01*
X0305164Y0303730D01*
X0304960Y0303750D01*
X0304756Y0303775D01*
X0304554Y0303805D01*
X0304351Y0303839D01*
X0304150Y0303878D01*
X0303950Y0303922D01*
X0303751Y0303970D01*
X0303553Y0304023D01*
X0303356Y0304081D01*
X0303161Y0304144D01*
X0302967Y0304211D01*
X0300061Y0312389D02*
X0299550Y0312389D01*
X0299550Y0312900D01*
X0300061Y0312900D01*
X0300061Y0312389D01*
X0268742Y0309833D02*
X0268742Y0303700D01*
D12*
X0364750Y0299300D03*
X0364750Y0299200D03*
X0364750Y0299100D03*
X0364750Y0299000D03*
X0364750Y0298900D03*
X0369350Y0297400D03*
X0375750Y0303400D03*
X0374250Y0306300D03*
X0374150Y0308500D03*
X0370550Y0312000D03*
X0371450Y0313400D03*
X0377550Y0313500D03*
X0368950Y0307000D03*
X0378150Y0300700D03*
X0379950Y0303100D03*
X0384750Y0302200D03*
X0384750Y0302100D03*
X0382650Y0298400D03*
X0382650Y0298300D03*
X0382650Y0298200D03*
X0382650Y0297800D03*
X0382650Y0297700D03*
X0378150Y0296900D03*
X0363650Y0287800D03*
X0363650Y0287700D03*
D13*
X0368950Y0287700D03*
X0368950Y0287800D03*
X0372050Y0287800D03*
X0372050Y0287700D03*
X0375150Y0287700D03*
X0375150Y0287800D03*
X0382850Y0287800D03*
X0382850Y0287700D03*
X0388150Y0287700D03*
X0388150Y0287800D03*
X0388150Y0294900D03*
X0382850Y0294900D03*
X0375150Y0294900D03*
X0368950Y0294900D03*
X0376350Y0309600D03*
X0385250Y0306000D03*
D14*
X0379750Y0306700D03*
X0379650Y0306600D03*
X0379450Y0306200D03*
X0379450Y0306100D03*
X0379450Y0306000D03*
X0371950Y0303700D03*
X0371850Y0300700D03*
X0369050Y0308500D03*
X0369150Y0308800D03*
X0369150Y0308900D03*
X0369150Y0309000D03*
X0379150Y0294900D03*
X0379050Y0288100D03*
X0379150Y0287800D03*
X0379150Y0287700D03*
D15*
X0378150Y0297100D03*
X0371750Y0299800D03*
X0365850Y0304800D03*
X0374150Y0308200D03*
X0379250Y0307200D03*
X0381750Y0309200D03*
X0381650Y0309400D03*
X0381550Y0309600D03*
X0381450Y0309800D03*
X0384250Y0303300D03*
X0363650Y0287900D03*
D16*
X0366350Y0289200D03*
X0366450Y0289300D03*
X0366650Y0289600D03*
X0366750Y0289800D03*
X0366850Y0289900D03*
X0366850Y0290000D03*
X0366850Y0290100D03*
X0366950Y0290200D03*
X0366950Y0290300D03*
X0367050Y0290500D03*
X0367050Y0290600D03*
X0367150Y0290800D03*
X0367150Y0290900D03*
X0367150Y0291000D03*
X0367150Y0291100D03*
X0367150Y0291200D03*
X0367150Y0291300D03*
X0367150Y0291400D03*
X0367150Y0291500D03*
X0367150Y0291600D03*
X0367150Y0291700D03*
X0367150Y0291800D03*
X0367150Y0291900D03*
X0367050Y0292100D03*
X0367050Y0292200D03*
X0366950Y0292400D03*
X0366950Y0292500D03*
X0366850Y0292700D03*
X0366850Y0292800D03*
X0366750Y0292900D03*
X0366750Y0293000D03*
X0366650Y0293100D03*
X0368950Y0292800D03*
X0368950Y0292700D03*
X0368950Y0292600D03*
X0368950Y0292500D03*
X0368950Y0292400D03*
X0368950Y0292300D03*
X0368950Y0292200D03*
X0368950Y0292100D03*
X0368950Y0292000D03*
X0368950Y0291900D03*
X0368950Y0291800D03*
X0368950Y0291700D03*
X0368950Y0291600D03*
X0368950Y0291500D03*
X0368950Y0291400D03*
X0368950Y0291300D03*
X0368950Y0291200D03*
X0368950Y0291100D03*
X0368950Y0291000D03*
X0368950Y0290900D03*
X0368950Y0290800D03*
X0368950Y0290700D03*
X0368950Y0290600D03*
X0368950Y0290500D03*
X0368950Y0290400D03*
X0368950Y0290300D03*
X0368950Y0290200D03*
X0368950Y0290100D03*
X0368950Y0290000D03*
X0368950Y0289900D03*
X0368950Y0289800D03*
X0368950Y0289700D03*
X0368950Y0289600D03*
X0368950Y0289500D03*
X0368950Y0289400D03*
X0368950Y0289300D03*
X0368950Y0289200D03*
X0368950Y0289100D03*
X0368950Y0289000D03*
X0368950Y0288900D03*
X0368950Y0288800D03*
X0368950Y0288700D03*
X0368950Y0288600D03*
X0368950Y0288500D03*
X0368950Y0288400D03*
X0368950Y0288300D03*
X0368950Y0288200D03*
X0368950Y0288100D03*
X0368950Y0288000D03*
X0368950Y0287900D03*
X0371450Y0289200D03*
X0371350Y0289400D03*
X0371350Y0289500D03*
X0371250Y0289600D03*
X0371250Y0289700D03*
X0371150Y0289800D03*
X0371150Y0289900D03*
X0371050Y0290000D03*
X0371050Y0290100D03*
X0371050Y0290200D03*
X0370950Y0290300D03*
X0370850Y0290500D03*
X0370850Y0290600D03*
X0370750Y0290700D03*
X0370750Y0290800D03*
X0370650Y0290900D03*
X0370650Y0291000D03*
X0370550Y0291100D03*
X0370550Y0291200D03*
X0370450Y0291400D03*
X0370450Y0291500D03*
X0370350Y0291600D03*
X0370350Y0291700D03*
X0370250Y0291800D03*
X0370250Y0291900D03*
X0370150Y0292100D03*
X0370050Y0292300D03*
X0369950Y0292500D03*
X0369950Y0292600D03*
X0369850Y0292700D03*
X0369850Y0292800D03*
X0368950Y0294700D03*
X0368950Y0294800D03*
X0373950Y0292300D03*
X0373950Y0292200D03*
X0373850Y0292100D03*
X0373850Y0292000D03*
X0373850Y0291900D03*
X0373750Y0291800D03*
X0373650Y0291600D03*
X0373550Y0291300D03*
X0373450Y0291100D03*
X0373350Y0290900D03*
X0373350Y0290800D03*
X0373250Y0290700D03*
X0373250Y0290600D03*
X0373150Y0290400D03*
X0373050Y0290300D03*
X0373050Y0290200D03*
X0372950Y0290000D03*
X0372950Y0289900D03*
X0372850Y0289800D03*
X0372750Y0289600D03*
X0372750Y0289500D03*
X0372650Y0289300D03*
X0372550Y0289100D03*
X0372450Y0288900D03*
X0371550Y0289000D03*
X0372050Y0287900D03*
X0375150Y0288000D03*
X0375150Y0288100D03*
X0375150Y0288200D03*
X0375150Y0288300D03*
X0375150Y0288400D03*
X0375150Y0288500D03*
X0375150Y0288600D03*
X0375150Y0288700D03*
X0375150Y0288800D03*
X0375150Y0288900D03*
X0375150Y0289000D03*
X0375150Y0289100D03*
X0375150Y0289200D03*
X0375150Y0289300D03*
X0375150Y0289400D03*
X0375150Y0289500D03*
X0375150Y0289600D03*
X0375150Y0289700D03*
X0375150Y0289800D03*
X0375150Y0289900D03*
X0375150Y0290000D03*
X0375150Y0290100D03*
X0375150Y0290200D03*
X0375150Y0290300D03*
X0375150Y0290400D03*
X0375150Y0290500D03*
X0375150Y0290600D03*
X0375150Y0290700D03*
X0375150Y0290800D03*
X0375150Y0290900D03*
X0375150Y0291000D03*
X0375150Y0291100D03*
X0375150Y0291200D03*
X0375150Y0291300D03*
X0375150Y0291400D03*
X0375150Y0291500D03*
X0375150Y0291600D03*
X0375150Y0291700D03*
X0375150Y0291800D03*
X0375150Y0291900D03*
X0375150Y0292000D03*
X0375150Y0292100D03*
X0375150Y0292200D03*
X0375150Y0292300D03*
X0375150Y0292400D03*
X0375150Y0292500D03*
X0375150Y0292600D03*
X0375150Y0292700D03*
X0375150Y0292800D03*
X0374250Y0292800D03*
X0374150Y0292700D03*
X0374150Y0292600D03*
X0374050Y0292500D03*
X0374050Y0292400D03*
X0377050Y0292400D03*
X0377050Y0292500D03*
X0377050Y0292600D03*
X0377050Y0292700D03*
X0377050Y0292800D03*
X0377050Y0292900D03*
X0377050Y0293000D03*
X0377050Y0293100D03*
X0377050Y0293200D03*
X0377050Y0293300D03*
X0377050Y0293400D03*
X0377050Y0293500D03*
X0377050Y0293600D03*
X0377050Y0293700D03*
X0377050Y0293800D03*
X0377050Y0293900D03*
X0377050Y0294000D03*
X0377050Y0294100D03*
X0377050Y0294200D03*
X0377050Y0294300D03*
X0377050Y0294400D03*
X0377050Y0292300D03*
X0377050Y0291800D03*
X0377050Y0291700D03*
X0377050Y0290900D03*
X0377050Y0290500D03*
X0377050Y0290400D03*
X0377050Y0290300D03*
X0377050Y0290200D03*
X0377050Y0290100D03*
X0377050Y0290000D03*
X0377050Y0289900D03*
X0377050Y0289800D03*
X0377050Y0289700D03*
X0377050Y0289600D03*
X0377050Y0289500D03*
X0377050Y0289400D03*
X0377050Y0289300D03*
X0377050Y0289200D03*
X0377050Y0289100D03*
X0377050Y0289000D03*
X0377050Y0288900D03*
X0377050Y0288800D03*
X0377050Y0288700D03*
X0377050Y0288300D03*
X0382850Y0293700D03*
X0382850Y0294700D03*
X0382850Y0294800D03*
X0388250Y0294600D03*
X0388250Y0294500D03*
X0386550Y0290000D03*
X0388150Y0289100D03*
X0388150Y0287900D03*
X0384450Y0304100D03*
X0384550Y0307800D03*
X0378550Y0308200D03*
X0377050Y0312800D03*
X0377150Y0312900D03*
X0369650Y0311800D03*
X0369550Y0311700D03*
X0369550Y0311600D03*
X0369450Y0311400D03*
X0369350Y0311300D03*
X0369350Y0311200D03*
X0369350Y0311100D03*
X0369250Y0310900D03*
X0364250Y0308600D03*
X0366350Y0306500D03*
X0366250Y0306400D03*
X0366050Y0306100D03*
X0365950Y0306000D03*
X0365950Y0305900D03*
X0365850Y0305800D03*
X0365350Y0301700D03*
X0360750Y0293200D03*
X0360650Y0293000D03*
X0360550Y0292900D03*
X0360550Y0292800D03*
X0360450Y0292700D03*
X0360450Y0292600D03*
X0360350Y0292500D03*
X0360250Y0292200D03*
X0360250Y0292100D03*
X0360250Y0292000D03*
X0360250Y0291900D03*
X0360250Y0291800D03*
X0360250Y0290900D03*
X0360250Y0290800D03*
X0360250Y0290700D03*
X0360250Y0290600D03*
X0360250Y0290500D03*
X0360350Y0290300D03*
X0360450Y0290100D03*
X0360450Y0290000D03*
X0360550Y0289900D03*
X0360550Y0289800D03*
X0360650Y0289700D03*
X0360750Y0289600D03*
X0360750Y0289500D03*
D17*
X0360400Y0290200D03*
X0360200Y0291000D03*
X0360200Y0291100D03*
X0360200Y0291200D03*
X0360200Y0291300D03*
X0360200Y0291400D03*
X0360200Y0291500D03*
X0360200Y0291600D03*
X0360200Y0291700D03*
X0366900Y0292600D03*
X0367000Y0292300D03*
X0367100Y0292000D03*
X0367100Y0290700D03*
X0367000Y0290400D03*
X0370200Y0292000D03*
X0370100Y0292200D03*
X0370000Y0292400D03*
X0370500Y0291300D03*
X0371400Y0289300D03*
X0371500Y0289100D03*
X0375100Y0287900D03*
X0377000Y0288400D03*
X0377000Y0288500D03*
X0377000Y0288600D03*
X0377000Y0290600D03*
X0377000Y0290700D03*
X0377000Y0290800D03*
X0377000Y0291900D03*
X0377000Y0292000D03*
X0377000Y0292100D03*
X0377000Y0292200D03*
X0375100Y0294800D03*
X0371900Y0299500D03*
X0374200Y0306000D03*
X0369300Y0311000D03*
X0369500Y0311500D03*
X0377000Y0314100D03*
X0382600Y0296700D03*
X0382800Y0293600D03*
X0382800Y0293500D03*
X0382800Y0293400D03*
X0382800Y0293300D03*
X0382800Y0293200D03*
X0382800Y0293100D03*
X0382800Y0293000D03*
X0382800Y0292900D03*
X0382800Y0292800D03*
X0382800Y0292700D03*
X0382800Y0292600D03*
X0382800Y0292500D03*
X0382800Y0292400D03*
X0382800Y0292300D03*
X0382800Y0292200D03*
X0382800Y0292100D03*
X0382800Y0292000D03*
X0382800Y0291900D03*
X0382800Y0291800D03*
X0382800Y0291700D03*
X0382800Y0291600D03*
X0382800Y0291500D03*
X0382800Y0291400D03*
X0382800Y0291300D03*
X0382800Y0291200D03*
X0382800Y0291100D03*
X0382800Y0291000D03*
X0382800Y0290900D03*
X0382800Y0290800D03*
X0382800Y0290700D03*
X0382800Y0290600D03*
X0382800Y0290500D03*
X0382800Y0290400D03*
X0382800Y0290300D03*
X0382800Y0290200D03*
X0382800Y0290100D03*
X0382800Y0290000D03*
X0382800Y0289900D03*
X0382800Y0289800D03*
X0382800Y0289700D03*
X0382800Y0289600D03*
X0382800Y0289500D03*
X0382800Y0289400D03*
X0382800Y0289300D03*
X0382800Y0289200D03*
X0382800Y0289100D03*
X0382800Y0289000D03*
X0382800Y0288900D03*
X0382800Y0288800D03*
X0382800Y0288700D03*
X0382800Y0288600D03*
X0382800Y0288500D03*
X0382800Y0288400D03*
X0382800Y0288300D03*
X0382800Y0288200D03*
X0382800Y0288100D03*
X0382800Y0288000D03*
X0382800Y0287900D03*
X0388200Y0289200D03*
X0388200Y0289300D03*
X0388200Y0289400D03*
X0388200Y0289500D03*
X0388200Y0289600D03*
X0388200Y0289700D03*
X0388200Y0289800D03*
X0388200Y0289900D03*
X0388200Y0290000D03*
X0388200Y0290100D03*
X0388200Y0290200D03*
X0388200Y0290300D03*
X0388200Y0290400D03*
X0388200Y0290500D03*
X0388200Y0290600D03*
X0388200Y0290700D03*
X0388200Y0290800D03*
X0388200Y0290900D03*
X0388200Y0291000D03*
X0388200Y0291100D03*
X0388200Y0291200D03*
X0388200Y0291300D03*
X0388200Y0291400D03*
X0388200Y0291500D03*
X0388200Y0291600D03*
X0388200Y0291700D03*
X0388200Y0291800D03*
X0388200Y0291900D03*
X0388200Y0292000D03*
X0388200Y0292100D03*
X0388200Y0292200D03*
X0388200Y0292300D03*
X0388200Y0292400D03*
X0388200Y0292500D03*
X0388200Y0292600D03*
X0388200Y0292700D03*
X0388200Y0292800D03*
X0388200Y0292900D03*
X0388200Y0293000D03*
X0388200Y0293100D03*
X0388200Y0293200D03*
X0388200Y0293300D03*
X0388200Y0293400D03*
X0388200Y0293500D03*
X0388200Y0293600D03*
X0388200Y0293700D03*
X0388200Y0293800D03*
X0388200Y0293900D03*
X0388200Y0294000D03*
X0388200Y0294100D03*
X0388200Y0294200D03*
X0388200Y0294300D03*
X0388200Y0294400D03*
X0388200Y0294700D03*
X0388200Y0294800D03*
D18*
X0379100Y0294800D03*
X0379100Y0294700D03*
X0377900Y0298300D03*
X0371900Y0300800D03*
X0379700Y0304500D03*
X0379700Y0304600D03*
X0379400Y0305900D03*
X0379800Y0306800D03*
X0376100Y0311400D03*
X0369100Y0309100D03*
X0379100Y0288000D03*
X0379100Y0287900D03*
D19*
X0378150Y0297300D03*
X0379850Y0303400D03*
X0379250Y0307000D03*
X0375750Y0312300D03*
X0371150Y0312700D03*
X0371050Y0312600D03*
X0365850Y0304500D03*
X0365850Y0304400D03*
X0365550Y0302900D03*
X0365550Y0302800D03*
X0365550Y0302700D03*
X0369450Y0296600D03*
X0369450Y0295500D03*
X0363650Y0294700D03*
X0363650Y0288000D03*
D20*
X0366100Y0288900D03*
X0366200Y0289000D03*
X0366500Y0289400D03*
X0366600Y0289500D03*
X0366700Y0289700D03*
X0366600Y0293200D03*
X0366500Y0293300D03*
X0366500Y0293400D03*
X0366400Y0293500D03*
X0366300Y0293600D03*
X0369000Y0294500D03*
X0369000Y0294600D03*
X0373700Y0291700D03*
X0373600Y0291500D03*
X0373600Y0291400D03*
X0373500Y0291200D03*
X0373400Y0291000D03*
X0373200Y0290500D03*
X0373000Y0290100D03*
X0372800Y0289700D03*
X0372700Y0289400D03*
X0372600Y0289200D03*
X0372500Y0289000D03*
X0371600Y0288900D03*
X0372000Y0288000D03*
X0370900Y0290400D03*
X0374300Y0292900D03*
X0375100Y0292900D03*
X0375100Y0294600D03*
X0375100Y0294700D03*
X0377100Y0294500D03*
X0377100Y0291600D03*
X0377100Y0291000D03*
X0382900Y0294600D03*
X0383600Y0293700D03*
X0383700Y0293600D03*
X0383800Y0293500D03*
X0383900Y0293400D03*
X0384000Y0293200D03*
X0384100Y0293100D03*
X0384200Y0293000D03*
X0384300Y0292900D03*
X0384400Y0292700D03*
X0384500Y0292600D03*
X0384600Y0292500D03*
X0384700Y0292400D03*
X0384700Y0292300D03*
X0384800Y0292200D03*
X0384900Y0292100D03*
X0385000Y0292000D03*
X0385100Y0291900D03*
X0385100Y0291800D03*
X0385200Y0291700D03*
X0385300Y0291600D03*
X0385400Y0291500D03*
X0385400Y0291400D03*
X0385500Y0291300D03*
X0385600Y0291200D03*
X0385700Y0291100D03*
X0385800Y0291000D03*
X0385800Y0290900D03*
X0385900Y0290800D03*
X0386000Y0290700D03*
X0386100Y0290600D03*
X0386200Y0290500D03*
X0386200Y0290400D03*
X0386300Y0290300D03*
X0386400Y0290200D03*
X0386500Y0290100D03*
X0386600Y0289900D03*
X0386700Y0289800D03*
X0386800Y0289700D03*
X0386900Y0289600D03*
X0386900Y0289500D03*
X0387000Y0289400D03*
X0387100Y0289300D03*
X0387200Y0289200D03*
X0387300Y0289100D03*
X0388100Y0288100D03*
X0388100Y0288000D03*
X0384900Y0301200D03*
X0380200Y0301200D03*
X0380200Y0301300D03*
X0380200Y0301400D03*
X0380200Y0301500D03*
X0380200Y0301600D03*
X0380200Y0301700D03*
X0380200Y0301800D03*
X0380200Y0301900D03*
X0380200Y0302000D03*
X0380200Y0302100D03*
X0380200Y0302200D03*
X0380200Y0302300D03*
X0380200Y0302400D03*
X0380200Y0302500D03*
X0380200Y0302600D03*
X0380200Y0302700D03*
X0380100Y0301000D03*
X0380100Y0300900D03*
X0380100Y0300800D03*
X0385200Y0306100D03*
X0382200Y0307600D03*
X0382300Y0307800D03*
X0382300Y0307900D03*
X0382100Y0307400D03*
X0378800Y0307700D03*
X0378800Y0307800D03*
X0378700Y0307900D03*
X0378700Y0308000D03*
X0378600Y0308100D03*
X0378500Y0308300D03*
X0378400Y0308400D03*
X0378400Y0308500D03*
X0378300Y0308600D03*
X0378300Y0308700D03*
X0378200Y0308800D03*
X0378100Y0308900D03*
X0378100Y0309000D03*
X0378000Y0309100D03*
X0377900Y0309200D03*
X0377900Y0309300D03*
X0377800Y0309400D03*
X0377700Y0309500D03*
X0377600Y0309600D03*
X0377000Y0312700D03*
X0377200Y0313000D03*
X0375700Y0312600D03*
X0369300Y0310800D03*
X0368200Y0313000D03*
X0366900Y0307100D03*
X0366800Y0307000D03*
X0366700Y0306900D03*
X0366600Y0306800D03*
X0366500Y0306700D03*
X0366400Y0306600D03*
X0366200Y0306300D03*
X0366100Y0306200D03*
X0365800Y0305700D03*
X0363300Y0306500D03*
X0362700Y0304600D03*
X0361200Y0293700D03*
X0361000Y0293500D03*
X0360900Y0293400D03*
X0360800Y0293300D03*
X0360700Y0293100D03*
X0360300Y0292400D03*
X0360300Y0292300D03*
X0360300Y0290400D03*
X0360800Y0289400D03*
X0360900Y0289300D03*
X0361000Y0289200D03*
X0361100Y0289100D03*
X0361200Y0289000D03*
D21*
X0363650Y0288100D03*
X0378550Y0291200D03*
X0378550Y0291300D03*
X0378550Y0291400D03*
X0378150Y0297600D03*
X0378650Y0300600D03*
X0379850Y0303600D03*
X0376250Y0310200D03*
X0371950Y0304300D03*
X0368750Y0307600D03*
X0368650Y0307500D03*
X0368550Y0307400D03*
D22*
X0369650Y0306800D03*
X0369750Y0306700D03*
X0369750Y0306600D03*
X0369850Y0306500D03*
X0369850Y0306400D03*
X0369850Y0306300D03*
X0369950Y0306200D03*
X0369950Y0306100D03*
X0370050Y0305900D03*
X0370050Y0305800D03*
X0370150Y0305700D03*
X0370150Y0305600D03*
X0370250Y0305500D03*
X0370250Y0305400D03*
X0370350Y0305200D03*
X0370350Y0305100D03*
X0370450Y0305000D03*
X0365850Y0305600D03*
X0365450Y0310500D03*
X0371550Y0313600D03*
X0376850Y0312600D03*
X0380950Y0312300D03*
X0381850Y0311300D03*
X0382350Y0308000D03*
X0382250Y0307700D03*
X0382150Y0307500D03*
X0382050Y0307300D03*
X0381950Y0307200D03*
X0384550Y0307700D03*
X0380150Y0302800D03*
X0380150Y0301100D03*
X0380050Y0300700D03*
X0378150Y0296600D03*
X0375050Y0294500D03*
X0375050Y0294400D03*
X0375050Y0294300D03*
X0369050Y0294300D03*
X0369050Y0294400D03*
X0369050Y0294200D03*
X0366150Y0293700D03*
X0366050Y0293800D03*
X0365950Y0293900D03*
X0365850Y0294000D03*
X0361350Y0293900D03*
X0361250Y0293800D03*
X0361050Y0293600D03*
X0361250Y0288900D03*
X0361350Y0288800D03*
X0365950Y0288800D03*
X0366250Y0289100D03*
X0372050Y0288200D03*
X0372050Y0288100D03*
X0382950Y0294500D03*
X0383950Y0293300D03*
X0384350Y0292800D03*
X0370250Y0298100D03*
X0370250Y0298200D03*
X0370150Y0298000D03*
X0370350Y0298500D03*
X0370450Y0298700D03*
X0370450Y0298800D03*
X0370550Y0298900D03*
X0370550Y0299000D03*
X0370550Y0299100D03*
X0370650Y0299200D03*
X0370650Y0299300D03*
X0370750Y0299400D03*
X0364750Y0300300D03*
D23*
X0372000Y0304100D03*
X0378400Y0300200D03*
X0378400Y0300100D03*
X0378300Y0300000D03*
X0379800Y0303700D03*
X0375900Y0311900D03*
X0363700Y0288200D03*
D24*
X0371950Y0300500D03*
X0379150Y0295000D03*
X0378950Y0288200D03*
X0368950Y0308200D03*
X0370050Y0310100D03*
X0371850Y0312900D03*
X0375950Y0311600D03*
X0376150Y0310600D03*
D25*
X0374200Y0308800D03*
X0369600Y0306900D03*
X0370000Y0306000D03*
X0370300Y0305300D03*
X0370500Y0304900D03*
X0370600Y0304800D03*
X0362700Y0304700D03*
X0364700Y0297900D03*
X0370300Y0298300D03*
X0370300Y0298400D03*
X0370400Y0298600D03*
X0369100Y0294100D03*
X0369100Y0294000D03*
X0365700Y0294100D03*
X0361800Y0294200D03*
X0361600Y0294100D03*
X0361500Y0294000D03*
X0361500Y0288700D03*
X0361600Y0288600D03*
X0365600Y0288500D03*
X0365700Y0288600D03*
X0365800Y0288700D03*
X0375000Y0294100D03*
X0375000Y0294200D03*
X0383000Y0294400D03*
X0382600Y0296800D03*
X0388000Y0288300D03*
X0388100Y0288200D03*
X0385200Y0306200D03*
X0382400Y0308100D03*
X0381900Y0307100D03*
X0381800Y0307000D03*
X0381700Y0306900D03*
X0369300Y0310700D03*
D26*
X0381650Y0311500D03*
X0384650Y0307500D03*
X0385150Y0306400D03*
X0385150Y0306300D03*
X0384450Y0303900D03*
X0382650Y0299100D03*
X0382550Y0296900D03*
X0383150Y0294000D03*
X0387850Y0288700D03*
X0374850Y0293500D03*
X0374850Y0293600D03*
X0369250Y0293500D03*
X0369250Y0293400D03*
X0365150Y0294400D03*
X0362150Y0294400D03*
X0364750Y0298000D03*
X0374150Y0299800D03*
X0374250Y0299700D03*
X0374350Y0299600D03*
X0372050Y0288600D03*
X0372050Y0288500D03*
X0362150Y0288300D03*
D27*
X0362000Y0288400D03*
X0365200Y0288300D03*
X0365400Y0288400D03*
X0369200Y0293600D03*
X0369200Y0293700D03*
X0365400Y0294300D03*
X0364800Y0300200D03*
X0362800Y0304800D03*
X0363200Y0306300D03*
X0365900Y0305500D03*
X0365400Y0310400D03*
X0367400Y0312200D03*
X0368100Y0312900D03*
X0373800Y0312800D03*
X0374200Y0312600D03*
X0381100Y0312100D03*
X0384900Y0301300D03*
X0383100Y0294100D03*
X0387900Y0288600D03*
X0387900Y0288500D03*
X0374900Y0293700D03*
X0374900Y0293800D03*
D28*
X0374950Y0293900D03*
X0374950Y0294000D03*
X0369150Y0293900D03*
X0369150Y0293800D03*
X0365550Y0294200D03*
X0361950Y0294300D03*
X0361750Y0288500D03*
X0372050Y0288400D03*
X0372050Y0288300D03*
X0383050Y0294200D03*
X0383050Y0294300D03*
X0382650Y0299200D03*
X0384450Y0304000D03*
X0384550Y0307600D03*
X0381750Y0311400D03*
X0381050Y0312200D03*
X0378950Y0307600D03*
X0374050Y0312700D03*
X0367350Y0312100D03*
X0364350Y0308700D03*
X0363250Y0306400D03*
X0368550Y0306900D03*
X0370850Y0299500D03*
X0370050Y0297900D03*
X0387950Y0288400D03*
D29*
X0387800Y0288800D03*
X0383200Y0293900D03*
X0374800Y0293400D03*
X0374800Y0293300D03*
X0372000Y0288700D03*
X0369300Y0293100D03*
X0369300Y0293200D03*
X0369300Y0293300D03*
X0374600Y0299400D03*
X0374500Y0299500D03*
X0374800Y0299300D03*
X0374900Y0299200D03*
X0375000Y0299100D03*
X0374200Y0306100D03*
X0380100Y0310800D03*
X0381200Y0312000D03*
X0381300Y0311900D03*
X0381400Y0311800D03*
X0381500Y0311700D03*
X0381600Y0311600D03*
X0377100Y0314000D03*
X0368000Y0312800D03*
X0367500Y0312300D03*
X0365300Y0310300D03*
X0364400Y0308800D03*
X0363200Y0306200D03*
X0362800Y0305000D03*
X0362800Y0304900D03*
X0364800Y0300100D03*
X0382800Y0303700D03*
X0384900Y0301400D03*
X0385100Y0306500D03*
X0384700Y0307300D03*
X0384700Y0307400D03*
D30*
X0384750Y0307200D03*
X0384950Y0306800D03*
X0385050Y0306600D03*
X0382250Y0308200D03*
X0384850Y0301500D03*
X0382650Y0299000D03*
X0378150Y0300900D03*
X0378150Y0296700D03*
X0374750Y0293200D03*
X0374750Y0293100D03*
X0374750Y0293000D03*
X0372050Y0288800D03*
X0369350Y0292900D03*
X0369350Y0293000D03*
X0364950Y0294500D03*
X0364750Y0298100D03*
X0365450Y0301800D03*
X0365950Y0305400D03*
X0363150Y0306000D03*
X0363150Y0306100D03*
X0364450Y0308900D03*
X0367850Y0312600D03*
X0367950Y0312700D03*
X0371550Y0313500D03*
X0371950Y0310300D03*
X0369750Y0297800D03*
X0383250Y0293800D03*
X0387750Y0288900D03*
D31*
X0387700Y0289000D03*
X0382600Y0297000D03*
X0380000Y0302900D03*
X0384500Y0303800D03*
X0385000Y0306700D03*
X0384900Y0306900D03*
X0384800Y0307000D03*
X0384800Y0307100D03*
X0379700Y0310900D03*
X0374200Y0308700D03*
X0372300Y0310400D03*
X0373400Y0314000D03*
X0367700Y0312500D03*
X0367600Y0312400D03*
X0365300Y0310200D03*
X0364500Y0309000D03*
X0363100Y0305900D03*
X0363100Y0305800D03*
X0362800Y0305100D03*
X0372000Y0304800D03*
X0362400Y0294500D03*
D32*
X0365700Y0303400D03*
X0365700Y0303500D03*
X0365700Y0303600D03*
X0365700Y0303700D03*
X0365700Y0303800D03*
X0368400Y0307300D03*
X0379300Y0306900D03*
X0378100Y0297500D03*
X0378500Y0291500D03*
X0378500Y0291100D03*
D33*
X0378500Y0300400D03*
X0378600Y0300500D03*
X0372000Y0304200D03*
X0375900Y0312000D03*
X0371700Y0313100D03*
X0363700Y0294600D03*
D34*
X0371900Y0300600D03*
X0372000Y0303800D03*
X0378000Y0298200D03*
X0379000Y0294600D03*
X0379500Y0306300D03*
X0379500Y0306400D03*
X0379600Y0306500D03*
X0376000Y0311500D03*
X0370300Y0310200D03*
X0369100Y0308700D03*
X0369100Y0308600D03*
X0369000Y0308400D03*
X0369000Y0308300D03*
D35*
X0371600Y0304700D03*
X0374200Y0306700D03*
X0376400Y0309900D03*
X0381600Y0309500D03*
X0381700Y0309300D03*
X0379900Y0303300D03*
X0384100Y0303400D03*
X0369400Y0297000D03*
X0363700Y0294800D03*
D36*
X0363700Y0294900D03*
X0371600Y0299600D03*
X0374200Y0306400D03*
X0381200Y0310200D03*
X0382100Y0308600D03*
X0384600Y0302900D03*
X0384600Y0302800D03*
X0384700Y0302700D03*
X0384700Y0302600D03*
X0384700Y0302500D03*
X0384700Y0302400D03*
X0384700Y0302300D03*
X0382600Y0298100D03*
X0382600Y0298000D03*
X0382600Y0297900D03*
X0365900Y0305100D03*
D37*
X0363050Y0305600D03*
X0363050Y0305700D03*
X0362950Y0305500D03*
X0362950Y0305400D03*
X0362950Y0305300D03*
X0362850Y0305200D03*
X0364750Y0300000D03*
X0364750Y0298200D03*
X0363650Y0295000D03*
X0369650Y0297700D03*
X0382650Y0298900D03*
X0384850Y0301600D03*
X0382250Y0308300D03*
X0379150Y0307500D03*
X0377650Y0313100D03*
X0373450Y0314400D03*
X0373450Y0314500D03*
X0372650Y0310500D03*
D38*
X0367150Y0312000D03*
X0363350Y0306600D03*
X0368950Y0295000D03*
X0382850Y0295000D03*
X0388150Y0295000D03*
D39*
X0382700Y0299300D03*
X0375100Y0295000D03*
X0381900Y0311200D03*
X0373300Y0313900D03*
X0365500Y0310600D03*
D40*
X0369750Y0310000D03*
X0378150Y0299400D03*
X0378150Y0299300D03*
X0378050Y0298100D03*
X0379150Y0295100D03*
D41*
X0369500Y0295600D03*
X0369500Y0295700D03*
X0369400Y0296500D03*
X0365600Y0303000D03*
X0365800Y0304200D03*
X0365800Y0304300D03*
X0371900Y0304500D03*
X0374200Y0307000D03*
X0374200Y0307100D03*
X0374200Y0307200D03*
X0374200Y0307600D03*
X0374200Y0307700D03*
X0374200Y0307800D03*
X0375800Y0312200D03*
X0375600Y0312500D03*
X0371200Y0312800D03*
D42*
X0375850Y0312100D03*
X0376250Y0310100D03*
X0374250Y0307500D03*
X0374250Y0307400D03*
X0374250Y0307300D03*
X0371950Y0304400D03*
X0368350Y0307200D03*
X0365750Y0304100D03*
X0365750Y0304000D03*
X0365750Y0303900D03*
X0365650Y0303300D03*
X0365650Y0303200D03*
X0365650Y0303100D03*
X0369450Y0296400D03*
X0369450Y0296300D03*
X0369450Y0296200D03*
X0369450Y0296100D03*
X0369450Y0296000D03*
X0369450Y0295900D03*
X0369450Y0295800D03*
X0378150Y0297400D03*
X0379850Y0303500D03*
D43*
X0383900Y0303600D03*
X0376300Y0310000D03*
X0375700Y0312400D03*
X0374200Y0308000D03*
X0374200Y0307900D03*
X0374200Y0306900D03*
X0374200Y0306800D03*
X0371700Y0304600D03*
X0365700Y0302400D03*
X0365600Y0302500D03*
X0365600Y0302600D03*
X0369400Y0296800D03*
X0369400Y0296700D03*
X0365500Y0309600D03*
X0371000Y0312500D03*
D44*
X0377750Y0313200D03*
X0377750Y0313300D03*
X0380550Y0310700D03*
X0381050Y0310500D03*
X0384850Y0301700D03*
X0382650Y0298800D03*
X0382550Y0297200D03*
X0378150Y0296800D03*
X0378150Y0300800D03*
X0365950Y0305300D03*
X0364650Y0309200D03*
X0365150Y0310000D03*
X0364750Y0299800D03*
X0364750Y0298300D03*
D45*
X0369450Y0296900D03*
X0378150Y0297200D03*
X0383950Y0303500D03*
X0379250Y0307100D03*
X0374150Y0308100D03*
X0369650Y0310300D03*
X0370950Y0312400D03*
X0371550Y0313200D03*
X0365850Y0304700D03*
X0365850Y0304600D03*
D46*
X0365900Y0305000D03*
X0369600Y0310400D03*
X0374200Y0308400D03*
X0374200Y0306500D03*
X0371700Y0299700D03*
X0369400Y0297300D03*
X0378100Y0297000D03*
X0384500Y0303100D03*
X0382000Y0308700D03*
X0382000Y0308800D03*
X0381300Y0310100D03*
D47*
X0381400Y0309900D03*
X0381500Y0309700D03*
X0381800Y0309100D03*
X0381900Y0309000D03*
X0379900Y0303200D03*
X0374200Y0306600D03*
X0374200Y0308300D03*
X0370900Y0312300D03*
X0369400Y0297100D03*
D48*
X0364800Y0299900D03*
X0374200Y0306200D03*
X0372900Y0310600D03*
X0369600Y0310600D03*
X0365200Y0310100D03*
X0364600Y0309100D03*
X0373400Y0314100D03*
X0373400Y0314200D03*
X0373400Y0314300D03*
X0377200Y0313900D03*
X0380900Y0310600D03*
X0384500Y0303700D03*
X0382600Y0297100D03*
D49*
X0384350Y0303200D03*
X0381950Y0308900D03*
X0381350Y0310000D03*
X0376650Y0309800D03*
X0371450Y0313300D03*
X0370850Y0312200D03*
X0368750Y0307100D03*
X0365950Y0304900D03*
X0369350Y0297200D03*
D50*
X0369500Y0297600D03*
X0364700Y0298400D03*
X0365100Y0309900D03*
X0370300Y0311900D03*
X0374200Y0308600D03*
X0379200Y0307400D03*
X0382200Y0308400D03*
X0379900Y0303000D03*
X0384800Y0301900D03*
X0384800Y0301800D03*
X0382600Y0298700D03*
X0382600Y0297300D03*
X0377300Y0313800D03*
D51*
X0377650Y0313400D03*
X0381150Y0310400D03*
X0376550Y0303700D03*
X0376350Y0303600D03*
X0382650Y0298600D03*
X0382550Y0297400D03*
X0364750Y0298500D03*
X0364750Y0298600D03*
X0364750Y0298700D03*
X0364750Y0299500D03*
X0364750Y0299600D03*
X0364750Y0299700D03*
X0365950Y0305200D03*
D52*
X0365100Y0309800D03*
X0369600Y0310500D03*
X0377400Y0313700D03*
X0377500Y0313600D03*
X0381200Y0310300D03*
X0382100Y0308500D03*
X0384800Y0302000D03*
X0382600Y0298500D03*
X0382600Y0297600D03*
X0382600Y0297500D03*
X0376100Y0303500D03*
X0369400Y0297500D03*
X0364800Y0298800D03*
X0364800Y0299400D03*
D53*
X0368850Y0307700D03*
X0376250Y0310300D03*
X0378450Y0300300D03*
X0378150Y0297800D03*
X0378150Y0297700D03*
D54*
X0378150Y0297900D03*
X0378150Y0299600D03*
X0378150Y0299700D03*
X0378250Y0299800D03*
X0378250Y0299900D03*
X0368850Y0307800D03*
X0368850Y0307900D03*
X0371750Y0313000D03*
X0376250Y0310400D03*
D55*
X0376200Y0310500D03*
X0375900Y0311800D03*
X0369600Y0309900D03*
X0369500Y0309800D03*
X0369400Y0309700D03*
X0368900Y0308000D03*
X0372000Y0304000D03*
X0378100Y0299500D03*
X0378100Y0298000D03*
D56*
X0377800Y0298400D03*
X0371900Y0300900D03*
X0372000Y0303500D03*
X0379500Y0305400D03*
X0379500Y0305500D03*
X0379500Y0305600D03*
X0379600Y0305200D03*
X0379600Y0305100D03*
X0379600Y0305000D03*
X0379700Y0304400D03*
D57*
X0379700Y0304300D03*
X0377700Y0298500D03*
X0371900Y0301100D03*
D58*
X0371900Y0301400D03*
X0377700Y0298600D03*
X0368800Y0309200D03*
X0376400Y0311300D03*
D59*
X0377650Y0298700D03*
D60*
X0377550Y0298800D03*
X0371850Y0301500D03*
X0371950Y0302400D03*
X0372050Y0302600D03*
D61*
X0372150Y0302700D03*
X0377450Y0298900D03*
X0376650Y0311200D03*
D62*
X0375400Y0310700D03*
X0377400Y0299000D03*
D63*
X0378100Y0299100D03*
X0378100Y0299200D03*
X0372500Y0299900D03*
X0372400Y0300000D03*
X0372200Y0300100D03*
X0372100Y0300200D03*
X0372000Y0300300D03*
X0372000Y0300400D03*
X0372000Y0303900D03*
X0368900Y0308100D03*
X0369300Y0309600D03*
X0375900Y0311700D03*
X0366400Y0302300D03*
D64*
X0371950Y0301000D03*
X0372050Y0303400D03*
X0379550Y0305300D03*
D65*
X0371950Y0301300D03*
X0371950Y0301200D03*
D66*
X0371150Y0301600D03*
D67*
X0370900Y0301700D03*
D68*
X0370650Y0301800D03*
D69*
X0369600Y0301900D03*
D70*
X0369550Y0302000D03*
D71*
X0369550Y0302100D03*
X0369450Y0302200D03*
D72*
X0371800Y0302300D03*
X0379700Y0304200D03*
X0375500Y0310800D03*
D73*
X0375700Y0310900D03*
X0372000Y0302500D03*
D74*
X0372300Y0302800D03*
D75*
X0372450Y0302900D03*
D76*
X0372650Y0303000D03*
X0379650Y0304000D03*
D77*
X0379250Y0307300D03*
X0376750Y0309700D03*
X0370750Y0312100D03*
X0365250Y0309700D03*
X0384550Y0303000D03*
D78*
X0372750Y0303100D03*
D79*
X0372900Y0303200D03*
D80*
X0373050Y0303300D03*
X0379550Y0303800D03*
D81*
X0379650Y0304700D03*
X0379650Y0304800D03*
X0379650Y0304900D03*
X0379450Y0305700D03*
X0379450Y0305800D03*
X0371950Y0303600D03*
D82*
X0379600Y0303900D03*
D83*
X0379650Y0304100D03*
D84*
X0384500Y0307900D03*
D85*
X0367600Y0309300D03*
D86*
X0367650Y0309400D03*
X0367650Y0309500D03*
D87*
X0376800Y0311000D03*
D88*
X0376750Y0311100D03*
D89*
X0064102Y0221339D02*
X0064102Y0217639D01*
X0063074Y0217639D02*
X0065130Y0217639D01*
X0062024Y0217639D02*
X0061202Y0218461D01*
X0061613Y0218667D02*
X0061613Y0220311D01*
X0061611Y0220374D01*
X0061605Y0220437D01*
X0061595Y0220500D01*
X0061582Y0220562D01*
X0061565Y0220623D01*
X0061544Y0220682D01*
X0061519Y0220741D01*
X0061491Y0220797D01*
X0061459Y0220852D01*
X0061424Y0220905D01*
X0061386Y0220955D01*
X0061345Y0221004D01*
X0061301Y0221049D01*
X0061254Y0221092D01*
X0061205Y0221131D01*
X0061153Y0221168D01*
X0061099Y0221201D01*
X0061043Y0221231D01*
X0060986Y0221258D01*
X0060927Y0221281D01*
X0060866Y0221300D01*
X0060805Y0221315D01*
X0060743Y0221327D01*
X0060680Y0221335D01*
X0060617Y0221339D01*
X0060553Y0221339D01*
X0060490Y0221335D01*
X0060427Y0221327D01*
X0060365Y0221315D01*
X0060304Y0221300D01*
X0060243Y0221281D01*
X0060184Y0221258D01*
X0060127Y0221231D01*
X0060071Y0221201D01*
X0060017Y0221168D01*
X0059965Y0221131D01*
X0059916Y0221092D01*
X0059869Y0221049D01*
X0059825Y0221004D01*
X0059784Y0220955D01*
X0059746Y0220905D01*
X0059711Y0220852D01*
X0059679Y0220797D01*
X0059651Y0220741D01*
X0059626Y0220682D01*
X0059605Y0220623D01*
X0059588Y0220562D01*
X0059575Y0220500D01*
X0059565Y0220437D01*
X0059559Y0220374D01*
X0059557Y0220311D01*
X0059558Y0220311D02*
X0059558Y0218667D01*
X0059557Y0218667D02*
X0059559Y0218604D01*
X0059565Y0218541D01*
X0059575Y0218478D01*
X0059588Y0218416D01*
X0059605Y0218355D01*
X0059626Y0218296D01*
X0059651Y0218237D01*
X0059679Y0218181D01*
X0059711Y0218126D01*
X0059746Y0218073D01*
X0059784Y0218023D01*
X0059825Y0217974D01*
X0059869Y0217929D01*
X0059916Y0217886D01*
X0059965Y0217847D01*
X0060017Y0217810D01*
X0060071Y0217777D01*
X0060127Y0217747D01*
X0060184Y0217720D01*
X0060243Y0217697D01*
X0060304Y0217678D01*
X0060365Y0217663D01*
X0060427Y0217651D01*
X0060490Y0217643D01*
X0060553Y0217639D01*
X0060617Y0217639D01*
X0060680Y0217643D01*
X0060743Y0217651D01*
X0060805Y0217663D01*
X0060866Y0217678D01*
X0060927Y0217697D01*
X0060986Y0217720D01*
X0061043Y0217747D01*
X0061099Y0217777D01*
X0061153Y0217810D01*
X0061205Y0217847D01*
X0061254Y0217886D01*
X0061301Y0217929D01*
X0061345Y0217974D01*
X0061386Y0218023D01*
X0061424Y0218073D01*
X0061459Y0218126D01*
X0061491Y0218181D01*
X0061519Y0218237D01*
X0061544Y0218296D01*
X0061565Y0218355D01*
X0061582Y0218416D01*
X0061595Y0218478D01*
X0061605Y0218541D01*
X0061611Y0218604D01*
X0061613Y0218667D01*
X0063074Y0220517D02*
X0064102Y0221339D01*
X0319269Y0006789D02*
X0321736Y0006789D01*
X0323315Y0007406D02*
X0323315Y0009050D01*
X0325370Y0009050D01*
X0324548Y0007406D02*
X0323315Y0007406D01*
X0324548Y0007405D02*
X0324604Y0007403D01*
X0324660Y0007397D01*
X0324715Y0007388D01*
X0324770Y0007375D01*
X0324823Y0007358D01*
X0324875Y0007337D01*
X0324926Y0007313D01*
X0324975Y0007285D01*
X0325022Y0007255D01*
X0325067Y0007221D01*
X0325109Y0007184D01*
X0325149Y0007144D01*
X0325186Y0007102D01*
X0325220Y0007057D01*
X0325250Y0007010D01*
X0325278Y0006961D01*
X0325302Y0006910D01*
X0325323Y0006858D01*
X0325340Y0006805D01*
X0325353Y0006750D01*
X0325362Y0006695D01*
X0325368Y0006639D01*
X0325370Y0006583D01*
X0325370Y0006172D01*
X0325368Y0006116D01*
X0325362Y0006060D01*
X0325353Y0006005D01*
X0325340Y0005950D01*
X0325323Y0005897D01*
X0325302Y0005845D01*
X0325278Y0005794D01*
X0325250Y0005745D01*
X0325220Y0005698D01*
X0325186Y0005653D01*
X0325149Y0005611D01*
X0325109Y0005571D01*
X0325067Y0005534D01*
X0325022Y0005500D01*
X0324975Y0005470D01*
X0324926Y0005442D01*
X0324875Y0005418D01*
X0324823Y0005397D01*
X0324770Y0005380D01*
X0324715Y0005367D01*
X0324660Y0005358D01*
X0324604Y0005352D01*
X0324548Y0005350D01*
X0323315Y0005350D01*
X0320502Y0005556D02*
X0320502Y0008022D01*
X0328852Y0007200D02*
X0329982Y0006789D01*
X0331113Y0007200D01*
X0329982Y0006789D02*
X0329263Y0005864D01*
X0329982Y0006789D02*
X0330702Y0005864D01*
X0329982Y0006789D02*
X0329982Y0008022D01*
X0334714Y0008228D02*
X0334714Y0006172D01*
X0334715Y0006172D02*
X0334717Y0006116D01*
X0334723Y0006060D01*
X0334732Y0006005D01*
X0334745Y0005950D01*
X0334762Y0005897D01*
X0334783Y0005845D01*
X0334807Y0005794D01*
X0334835Y0005745D01*
X0334865Y0005698D01*
X0334899Y0005653D01*
X0334936Y0005611D01*
X0334976Y0005571D01*
X0335018Y0005534D01*
X0335063Y0005500D01*
X0335110Y0005470D01*
X0335159Y0005442D01*
X0335210Y0005418D01*
X0335262Y0005397D01*
X0335315Y0005380D01*
X0335370Y0005367D01*
X0335425Y0005358D01*
X0335481Y0005352D01*
X0335537Y0005350D01*
X0336770Y0005350D01*
X0336770Y0007406D01*
X0336153Y0007406D01*
X0334715Y0008228D02*
X0334717Y0008284D01*
X0334723Y0008340D01*
X0334732Y0008395D01*
X0334745Y0008450D01*
X0334762Y0008503D01*
X0334783Y0008555D01*
X0334807Y0008606D01*
X0334835Y0008655D01*
X0334865Y0008702D01*
X0334899Y0008747D01*
X0334936Y0008789D01*
X0334976Y0008829D01*
X0335018Y0008866D01*
X0335063Y0008900D01*
X0335110Y0008930D01*
X0335159Y0008958D01*
X0335210Y0008982D01*
X0335262Y0009003D01*
X0335315Y0009020D01*
X0335370Y0009033D01*
X0335425Y0009042D01*
X0335481Y0009048D01*
X0335537Y0009050D01*
X0336770Y0009050D01*
X0338554Y0009050D02*
X0340610Y0005350D01*
X0340610Y0009050D01*
X0342394Y0009050D02*
X0342394Y0005350D01*
X0343422Y0005350D01*
X0343484Y0005352D01*
X0343546Y0005357D01*
X0343607Y0005367D01*
X0343668Y0005380D01*
X0343728Y0005397D01*
X0343787Y0005417D01*
X0343844Y0005441D01*
X0343900Y0005468D01*
X0343954Y0005498D01*
X0344006Y0005532D01*
X0344056Y0005569D01*
X0344104Y0005609D01*
X0344149Y0005651D01*
X0344191Y0005696D01*
X0344231Y0005744D01*
X0344268Y0005794D01*
X0344302Y0005846D01*
X0344332Y0005900D01*
X0344359Y0005956D01*
X0344383Y0006013D01*
X0344403Y0006072D01*
X0344420Y0006132D01*
X0344433Y0006193D01*
X0344443Y0006254D01*
X0344448Y0006316D01*
X0344450Y0006378D01*
X0344450Y0008022D01*
X0344448Y0008084D01*
X0344443Y0008146D01*
X0344433Y0008207D01*
X0344420Y0008268D01*
X0344403Y0008328D01*
X0344383Y0008387D01*
X0344359Y0008444D01*
X0344332Y0008500D01*
X0344302Y0008554D01*
X0344268Y0008606D01*
X0344231Y0008656D01*
X0344191Y0008704D01*
X0344149Y0008749D01*
X0344104Y0008791D01*
X0344056Y0008831D01*
X0344006Y0008868D01*
X0343954Y0008902D01*
X0343900Y0008932D01*
X0343844Y0008959D01*
X0343787Y0008983D01*
X0343728Y0009003D01*
X0343668Y0009020D01*
X0343607Y0009033D01*
X0343546Y0009043D01*
X0343484Y0009048D01*
X0343422Y0009050D01*
X0342394Y0009050D01*
X0338554Y0009050D02*
X0338554Y0005350D01*
D90*
X0339000Y0013300D02*
X0334000Y0013300D01*
X0331500Y0015800D01*
X0329000Y0013300D01*
X0324000Y0013300D01*
X0321500Y0015800D01*
X0321500Y0020800D01*
X0324000Y0023300D01*
X0329000Y0023300D01*
X0331500Y0020800D01*
X0334000Y0023300D01*
X0339000Y0023300D01*
X0341500Y0020800D01*
X0341500Y0015800D01*
X0339000Y0013300D01*
X0331500Y0015800D02*
X0331500Y0020800D01*
X0301500Y0015800D02*
X0301500Y0010800D01*
X0299000Y0008300D01*
X0294000Y0008300D01*
X0291500Y0010800D01*
X0289000Y0008300D01*
X0284000Y0008300D01*
X0281500Y0010800D01*
X0279000Y0008300D01*
X0274000Y0008300D01*
X0271500Y0010800D01*
X0271500Y0015800D01*
X0274000Y0018300D01*
X0279000Y0018300D01*
X0281500Y0015800D01*
X0284000Y0018300D01*
X0289000Y0018300D01*
X0291500Y0015800D01*
X0294000Y0018300D01*
X0299000Y0018300D01*
X0301500Y0015800D01*
X0301061Y0007000D02*
X0301063Y0007046D01*
X0301069Y0007092D01*
X0301079Y0007138D01*
X0301093Y0007182D01*
X0301110Y0007225D01*
X0301131Y0007266D01*
X0301156Y0007305D01*
X0301184Y0007342D01*
X0301215Y0007377D01*
X0301249Y0007409D01*
X0301285Y0007437D01*
X0301324Y0007463D01*
X0301365Y0007485D01*
X0301407Y0007503D01*
X0301451Y0007518D01*
X0301496Y0007529D01*
X0301542Y0007536D01*
X0301588Y0007539D01*
X0301635Y0007538D01*
X0301681Y0007533D01*
X0301726Y0007524D01*
X0301771Y0007511D01*
X0301814Y0007495D01*
X0301856Y0007474D01*
X0301896Y0007451D01*
X0301933Y0007423D01*
X0301969Y0007393D01*
X0302001Y0007360D01*
X0302031Y0007324D01*
X0302057Y0007286D01*
X0302080Y0007246D01*
X0302099Y0007204D01*
X0302115Y0007160D01*
X0302127Y0007115D01*
X0302135Y0007069D01*
X0302139Y0007023D01*
X0302139Y0006977D01*
X0302135Y0006931D01*
X0302127Y0006885D01*
X0302115Y0006840D01*
X0302099Y0006796D01*
X0302080Y0006754D01*
X0302057Y0006714D01*
X0302031Y0006676D01*
X0302001Y0006640D01*
X0301969Y0006607D01*
X0301933Y0006577D01*
X0301896Y0006549D01*
X0301856Y0006526D01*
X0301814Y0006505D01*
X0301771Y0006489D01*
X0301726Y0006476D01*
X0301681Y0006467D01*
X0301635Y0006462D01*
X0301588Y0006461D01*
X0301542Y0006464D01*
X0301496Y0006471D01*
X0301451Y0006482D01*
X0301407Y0006497D01*
X0301365Y0006515D01*
X0301324Y0006537D01*
X0301285Y0006563D01*
X0301249Y0006591D01*
X0301215Y0006623D01*
X0301184Y0006658D01*
X0301156Y0006695D01*
X0301131Y0006734D01*
X0301110Y0006775D01*
X0301093Y0006818D01*
X0301079Y0006862D01*
X0301069Y0006908D01*
X0301063Y0006954D01*
X0301061Y0007000D01*
X0291500Y0010800D02*
X0291500Y0015800D01*
X0293000Y0023300D02*
X0270500Y0023300D01*
X0270498Y0023426D01*
X0270492Y0023551D01*
X0270482Y0023676D01*
X0270468Y0023801D01*
X0270451Y0023926D01*
X0270429Y0024050D01*
X0270404Y0024173D01*
X0270374Y0024295D01*
X0270341Y0024416D01*
X0270304Y0024536D01*
X0270264Y0024655D01*
X0270219Y0024772D01*
X0270171Y0024889D01*
X0270119Y0025003D01*
X0270064Y0025116D01*
X0270005Y0025227D01*
X0269943Y0025336D01*
X0269877Y0025443D01*
X0269808Y0025548D01*
X0269736Y0025651D01*
X0269661Y0025752D01*
X0269582Y0025850D01*
X0269500Y0025945D01*
X0269416Y0026038D01*
X0269328Y0026128D01*
X0269238Y0026216D01*
X0269145Y0026300D01*
X0269050Y0026382D01*
X0268952Y0026461D01*
X0268851Y0026536D01*
X0268748Y0026608D01*
X0268643Y0026677D01*
X0268536Y0026743D01*
X0268427Y0026805D01*
X0268316Y0026864D01*
X0268203Y0026919D01*
X0268089Y0026971D01*
X0267972Y0027019D01*
X0267855Y0027064D01*
X0267736Y0027104D01*
X0267616Y0027141D01*
X0267495Y0027174D01*
X0267373Y0027204D01*
X0267250Y0027229D01*
X0267126Y0027251D01*
X0267001Y0027268D01*
X0266876Y0027282D01*
X0266751Y0027292D01*
X0266626Y0027298D01*
X0266500Y0027300D01*
X0266374Y0027298D01*
X0266249Y0027292D01*
X0266124Y0027282D01*
X0265999Y0027268D01*
X0265874Y0027251D01*
X0265750Y0027229D01*
X0265627Y0027204D01*
X0265505Y0027174D01*
X0265384Y0027141D01*
X0265264Y0027104D01*
X0265145Y0027064D01*
X0265028Y0027019D01*
X0264911Y0026971D01*
X0264797Y0026919D01*
X0264684Y0026864D01*
X0264573Y0026805D01*
X0264464Y0026743D01*
X0264357Y0026677D01*
X0264252Y0026608D01*
X0264149Y0026536D01*
X0264048Y0026461D01*
X0263950Y0026382D01*
X0263855Y0026300D01*
X0263762Y0026216D01*
X0263672Y0026128D01*
X0263584Y0026038D01*
X0263500Y0025945D01*
X0263418Y0025850D01*
X0263339Y0025752D01*
X0263264Y0025651D01*
X0263192Y0025548D01*
X0263123Y0025443D01*
X0263057Y0025336D01*
X0262995Y0025227D01*
X0262936Y0025116D01*
X0262881Y0025003D01*
X0262829Y0024889D01*
X0262781Y0024772D01*
X0262736Y0024655D01*
X0262696Y0024536D01*
X0262659Y0024416D01*
X0262626Y0024295D01*
X0262596Y0024173D01*
X0262571Y0024050D01*
X0262549Y0023926D01*
X0262532Y0023801D01*
X0262518Y0023676D01*
X0262508Y0023551D01*
X0262502Y0023426D01*
X0262500Y0023300D01*
X0240000Y0023300D01*
X0240000Y0163300D01*
X0293000Y0163300D01*
X0293000Y0023300D01*
X0281500Y0015800D02*
X0281500Y0010800D01*
X0267500Y0009800D02*
X0267500Y0026800D01*
X0267498Y0026860D01*
X0267493Y0026921D01*
X0267484Y0026980D01*
X0267471Y0027039D01*
X0267455Y0027098D01*
X0267435Y0027155D01*
X0267412Y0027210D01*
X0267385Y0027265D01*
X0267356Y0027317D01*
X0267323Y0027368D01*
X0267287Y0027417D01*
X0267249Y0027463D01*
X0267207Y0027507D01*
X0267163Y0027549D01*
X0267117Y0027587D01*
X0267068Y0027623D01*
X0267017Y0027656D01*
X0266965Y0027685D01*
X0266910Y0027712D01*
X0266855Y0027735D01*
X0266798Y0027755D01*
X0266739Y0027771D01*
X0266680Y0027784D01*
X0266621Y0027793D01*
X0266560Y0027798D01*
X0266500Y0027800D01*
X0256500Y0027800D01*
X0256440Y0027798D01*
X0256379Y0027793D01*
X0256320Y0027784D01*
X0256261Y0027771D01*
X0256202Y0027755D01*
X0256145Y0027735D01*
X0256090Y0027712D01*
X0256035Y0027685D01*
X0255983Y0027656D01*
X0255932Y0027623D01*
X0255883Y0027587D01*
X0255837Y0027549D01*
X0255793Y0027507D01*
X0255751Y0027463D01*
X0255713Y0027417D01*
X0255677Y0027368D01*
X0255644Y0027317D01*
X0255615Y0027265D01*
X0255588Y0027210D01*
X0255565Y0027155D01*
X0255545Y0027098D01*
X0255529Y0027039D01*
X0255516Y0026980D01*
X0255507Y0026921D01*
X0255502Y0026860D01*
X0255500Y0026800D01*
X0255500Y0009800D01*
X0255502Y0009740D01*
X0255507Y0009679D01*
X0255516Y0009620D01*
X0255529Y0009561D01*
X0255545Y0009502D01*
X0255565Y0009445D01*
X0255588Y0009390D01*
X0255615Y0009335D01*
X0255644Y0009283D01*
X0255677Y0009232D01*
X0255713Y0009183D01*
X0255751Y0009137D01*
X0255793Y0009093D01*
X0255837Y0009051D01*
X0255883Y0009013D01*
X0255932Y0008977D01*
X0255983Y0008944D01*
X0256035Y0008915D01*
X0256090Y0008888D01*
X0256145Y0008865D01*
X0256202Y0008845D01*
X0256261Y0008829D01*
X0256320Y0008816D01*
X0256379Y0008807D01*
X0256440Y0008802D01*
X0256500Y0008800D01*
X0266500Y0008800D01*
X0266560Y0008802D01*
X0266621Y0008807D01*
X0266680Y0008816D01*
X0266739Y0008829D01*
X0266798Y0008845D01*
X0266855Y0008865D01*
X0266910Y0008888D01*
X0266965Y0008915D01*
X0267017Y0008944D01*
X0267068Y0008977D01*
X0267117Y0009013D01*
X0267163Y0009051D01*
X0267207Y0009093D01*
X0267249Y0009137D01*
X0267287Y0009183D01*
X0267323Y0009232D01*
X0267356Y0009283D01*
X0267385Y0009335D01*
X0267412Y0009390D01*
X0267435Y0009445D01*
X0267455Y0009502D01*
X0267471Y0009561D01*
X0267484Y0009620D01*
X0267493Y0009679D01*
X0267498Y0009740D01*
X0267500Y0009800D01*
X0261500Y0016800D02*
X0261500Y0017300D01*
X0261500Y0019300D02*
X0261500Y0019800D01*
X0241500Y0015800D02*
X0241500Y0010800D01*
X0239000Y0008300D01*
X0234000Y0008300D01*
X0231500Y0010800D01*
X0229000Y0008300D01*
X0224000Y0008300D01*
X0221500Y0010800D01*
X0219000Y0008300D01*
X0214000Y0008300D01*
X0211500Y0010800D01*
X0211500Y0015800D01*
X0214000Y0018300D01*
X0219000Y0018300D01*
X0221500Y0015800D01*
X0224000Y0018300D01*
X0229000Y0018300D01*
X0231500Y0015800D01*
X0234000Y0018300D01*
X0239000Y0018300D01*
X0241500Y0015800D01*
X0242893Y0008500D02*
X0242895Y0008553D01*
X0242901Y0008605D01*
X0242911Y0008657D01*
X0242924Y0008708D01*
X0242942Y0008758D01*
X0242963Y0008807D01*
X0242988Y0008854D01*
X0243016Y0008898D01*
X0243047Y0008941D01*
X0243082Y0008981D01*
X0243119Y0009018D01*
X0243159Y0009053D01*
X0243202Y0009084D01*
X0243247Y0009112D01*
X0243293Y0009137D01*
X0243342Y0009158D01*
X0243392Y0009176D01*
X0243443Y0009189D01*
X0243495Y0009199D01*
X0243547Y0009205D01*
X0243600Y0009207D01*
X0243653Y0009205D01*
X0243705Y0009199D01*
X0243757Y0009189D01*
X0243808Y0009176D01*
X0243858Y0009158D01*
X0243907Y0009137D01*
X0243954Y0009112D01*
X0243998Y0009084D01*
X0244041Y0009053D01*
X0244081Y0009018D01*
X0244118Y0008981D01*
X0244153Y0008941D01*
X0244184Y0008898D01*
X0244212Y0008853D01*
X0244237Y0008807D01*
X0244258Y0008758D01*
X0244276Y0008708D01*
X0244289Y0008657D01*
X0244299Y0008605D01*
X0244305Y0008553D01*
X0244307Y0008500D01*
X0244305Y0008447D01*
X0244299Y0008395D01*
X0244289Y0008343D01*
X0244276Y0008292D01*
X0244258Y0008242D01*
X0244237Y0008193D01*
X0244212Y0008146D01*
X0244184Y0008102D01*
X0244153Y0008059D01*
X0244118Y0008019D01*
X0244081Y0007982D01*
X0244041Y0007947D01*
X0243998Y0007916D01*
X0243953Y0007888D01*
X0243907Y0007863D01*
X0243858Y0007842D01*
X0243808Y0007824D01*
X0243757Y0007811D01*
X0243705Y0007801D01*
X0243653Y0007795D01*
X0243600Y0007793D01*
X0243547Y0007795D01*
X0243495Y0007801D01*
X0243443Y0007811D01*
X0243392Y0007824D01*
X0243342Y0007842D01*
X0243293Y0007863D01*
X0243246Y0007888D01*
X0243202Y0007916D01*
X0243159Y0007947D01*
X0243119Y0007982D01*
X0243082Y0008019D01*
X0243047Y0008059D01*
X0243016Y0008102D01*
X0242988Y0008147D01*
X0242963Y0008193D01*
X0242942Y0008242D01*
X0242924Y0008292D01*
X0242911Y0008343D01*
X0242901Y0008395D01*
X0242895Y0008447D01*
X0242893Y0008500D01*
X0231500Y0010800D02*
X0231500Y0015800D01*
X0221500Y0015800D02*
X0221500Y0010800D01*
X0217500Y0023800D02*
X0217500Y0162800D01*
X0165500Y0162800D01*
X0165500Y0023800D01*
X0186500Y0023800D01*
X0186502Y0023940D01*
X0186508Y0024080D01*
X0186518Y0024220D01*
X0186531Y0024360D01*
X0186549Y0024499D01*
X0186571Y0024638D01*
X0186596Y0024775D01*
X0186625Y0024913D01*
X0186658Y0025049D01*
X0186695Y0025184D01*
X0186736Y0025318D01*
X0186781Y0025451D01*
X0186829Y0025583D01*
X0186881Y0025713D01*
X0186936Y0025842D01*
X0186995Y0025969D01*
X0187058Y0026095D01*
X0187124Y0026219D01*
X0187193Y0026340D01*
X0187266Y0026460D01*
X0187343Y0026578D01*
X0187422Y0026693D01*
X0187505Y0026807D01*
X0187591Y0026917D01*
X0187680Y0027026D01*
X0187772Y0027132D01*
X0187867Y0027235D01*
X0187964Y0027336D01*
X0188065Y0027433D01*
X0188168Y0027528D01*
X0188274Y0027620D01*
X0188383Y0027709D01*
X0188493Y0027795D01*
X0188607Y0027878D01*
X0188722Y0027957D01*
X0188840Y0028034D01*
X0188960Y0028107D01*
X0189081Y0028176D01*
X0189205Y0028242D01*
X0189331Y0028305D01*
X0189458Y0028364D01*
X0189587Y0028419D01*
X0189717Y0028471D01*
X0189849Y0028519D01*
X0189982Y0028564D01*
X0190116Y0028605D01*
X0190251Y0028642D01*
X0190387Y0028675D01*
X0190525Y0028704D01*
X0190662Y0028729D01*
X0190801Y0028751D01*
X0190940Y0028769D01*
X0191080Y0028782D01*
X0191220Y0028792D01*
X0191360Y0028798D01*
X0191500Y0028800D01*
X0191640Y0028798D01*
X0191780Y0028792D01*
X0191920Y0028782D01*
X0192060Y0028769D01*
X0192199Y0028751D01*
X0192338Y0028729D01*
X0192475Y0028704D01*
X0192613Y0028675D01*
X0192749Y0028642D01*
X0192884Y0028605D01*
X0193018Y0028564D01*
X0193151Y0028519D01*
X0193283Y0028471D01*
X0193413Y0028419D01*
X0193542Y0028364D01*
X0193669Y0028305D01*
X0193795Y0028242D01*
X0193919Y0028176D01*
X0194040Y0028107D01*
X0194160Y0028034D01*
X0194278Y0027957D01*
X0194393Y0027878D01*
X0194507Y0027795D01*
X0194617Y0027709D01*
X0194726Y0027620D01*
X0194832Y0027528D01*
X0194935Y0027433D01*
X0195036Y0027336D01*
X0195133Y0027235D01*
X0195228Y0027132D01*
X0195320Y0027026D01*
X0195409Y0026917D01*
X0195495Y0026807D01*
X0195578Y0026693D01*
X0195657Y0026578D01*
X0195734Y0026460D01*
X0195807Y0026340D01*
X0195876Y0026219D01*
X0195942Y0026095D01*
X0196005Y0025969D01*
X0196064Y0025842D01*
X0196119Y0025713D01*
X0196171Y0025583D01*
X0196219Y0025451D01*
X0196264Y0025318D01*
X0196305Y0025184D01*
X0196342Y0025049D01*
X0196375Y0024913D01*
X0196404Y0024775D01*
X0196429Y0024638D01*
X0196451Y0024499D01*
X0196469Y0024360D01*
X0196482Y0024220D01*
X0196492Y0024080D01*
X0196498Y0023940D01*
X0196500Y0023800D01*
X0217500Y0023800D01*
X0176000Y0018300D02*
X0176000Y0008300D01*
X0175998Y0008240D01*
X0175993Y0008179D01*
X0175984Y0008120D01*
X0175971Y0008061D01*
X0175955Y0008002D01*
X0175935Y0007945D01*
X0175912Y0007890D01*
X0175885Y0007835D01*
X0175856Y0007783D01*
X0175823Y0007732D01*
X0175787Y0007683D01*
X0175749Y0007637D01*
X0175707Y0007593D01*
X0175663Y0007551D01*
X0175617Y0007513D01*
X0175568Y0007477D01*
X0175517Y0007444D01*
X0175465Y0007415D01*
X0175410Y0007388D01*
X0175355Y0007365D01*
X0175298Y0007345D01*
X0175239Y0007329D01*
X0175180Y0007316D01*
X0175121Y0007307D01*
X0175060Y0007302D01*
X0175000Y0007300D01*
X0158000Y0007300D01*
X0157940Y0007302D01*
X0157879Y0007307D01*
X0157820Y0007316D01*
X0157761Y0007329D01*
X0157702Y0007345D01*
X0157645Y0007365D01*
X0157590Y0007388D01*
X0157535Y0007415D01*
X0157483Y0007444D01*
X0157432Y0007477D01*
X0157383Y0007513D01*
X0157337Y0007551D01*
X0157293Y0007593D01*
X0157251Y0007637D01*
X0157213Y0007683D01*
X0157177Y0007732D01*
X0157144Y0007783D01*
X0157115Y0007835D01*
X0157088Y0007890D01*
X0157065Y0007945D01*
X0157045Y0008002D01*
X0157029Y0008061D01*
X0157016Y0008120D01*
X0157007Y0008179D01*
X0157002Y0008240D01*
X0157000Y0008300D01*
X0157000Y0018300D01*
X0157002Y0018360D01*
X0157007Y0018421D01*
X0157016Y0018480D01*
X0157029Y0018539D01*
X0157045Y0018598D01*
X0157065Y0018655D01*
X0157088Y0018710D01*
X0157115Y0018765D01*
X0157144Y0018817D01*
X0157177Y0018868D01*
X0157213Y0018917D01*
X0157251Y0018963D01*
X0157293Y0019007D01*
X0157337Y0019049D01*
X0157383Y0019087D01*
X0157432Y0019123D01*
X0157483Y0019156D01*
X0157535Y0019185D01*
X0157590Y0019212D01*
X0157645Y0019235D01*
X0157702Y0019255D01*
X0157761Y0019271D01*
X0157820Y0019284D01*
X0157879Y0019293D01*
X0157940Y0019298D01*
X0158000Y0019300D01*
X0175000Y0019300D01*
X0175060Y0019298D01*
X0175121Y0019293D01*
X0175180Y0019284D01*
X0175239Y0019271D01*
X0175298Y0019255D01*
X0175355Y0019235D01*
X0175410Y0019212D01*
X0175465Y0019185D01*
X0175517Y0019156D01*
X0175568Y0019123D01*
X0175617Y0019087D01*
X0175663Y0019049D01*
X0175707Y0019007D01*
X0175749Y0018963D01*
X0175787Y0018917D01*
X0175823Y0018868D01*
X0175856Y0018817D01*
X0175885Y0018765D01*
X0175912Y0018710D01*
X0175935Y0018655D01*
X0175955Y0018598D01*
X0175971Y0018539D01*
X0175984Y0018480D01*
X0175993Y0018421D01*
X0175998Y0018360D01*
X0176000Y0018300D01*
X0168000Y0013300D02*
X0167500Y0013300D01*
X0165500Y0013300D02*
X0165000Y0013300D01*
X0021500Y0100800D02*
X0019000Y0098300D01*
X0014000Y0098300D01*
X0011500Y0100800D01*
X0011500Y0105800D01*
X0014000Y0108300D01*
X0011500Y0110800D01*
X0011500Y0115800D01*
X0014000Y0118300D01*
X0019000Y0118300D01*
X0021500Y0115800D01*
X0021500Y0110800D01*
X0019000Y0108300D01*
X0021500Y0105800D01*
X0021500Y0100800D01*
X0019000Y0108300D02*
X0014000Y0108300D01*
X0014000Y0128300D02*
X0011500Y0130800D01*
X0011500Y0135800D01*
X0014000Y0138300D01*
X0011500Y0140800D01*
X0011500Y0145800D01*
X0014000Y0148300D01*
X0019000Y0148300D01*
X0021500Y0145800D01*
X0021500Y0140800D01*
X0019000Y0138300D01*
X0021500Y0135800D01*
X0021500Y0130800D01*
X0019000Y0128300D01*
X0014000Y0128300D01*
X0014000Y0138300D02*
X0019000Y0138300D01*
X0019000Y0153300D02*
X0014000Y0153300D01*
X0011500Y0155800D01*
X0011500Y0160800D01*
X0014000Y0163300D01*
X0011500Y0165800D01*
X0011500Y0170800D01*
X0014000Y0173300D01*
X0011500Y0175800D01*
X0011500Y0180800D01*
X0014000Y0183300D01*
X0019000Y0183300D01*
X0021500Y0180800D01*
X0021500Y0175800D01*
X0019000Y0173300D01*
X0021500Y0170800D01*
X0021500Y0165800D01*
X0019000Y0163300D01*
X0021500Y0160800D01*
X0021500Y0155800D01*
X0019000Y0153300D01*
X0019000Y0163300D02*
X0014000Y0163300D01*
X0014000Y0173300D02*
X0019000Y0173300D01*
X0020872Y0185500D02*
X0020874Y0185581D01*
X0020880Y0185661D01*
X0020890Y0185741D01*
X0020904Y0185820D01*
X0020922Y0185899D01*
X0020943Y0185976D01*
X0020969Y0186053D01*
X0020998Y0186128D01*
X0021031Y0186201D01*
X0021067Y0186273D01*
X0021107Y0186343D01*
X0021151Y0186411D01*
X0021197Y0186476D01*
X0021247Y0186540D01*
X0021300Y0186600D01*
X0021356Y0186658D01*
X0021415Y0186713D01*
X0021476Y0186766D01*
X0021540Y0186815D01*
X0021606Y0186861D01*
X0021674Y0186903D01*
X0021745Y0186942D01*
X0021817Y0186978D01*
X0021891Y0187010D01*
X0021966Y0187038D01*
X0022043Y0187063D01*
X0022121Y0187083D01*
X0022200Y0187100D01*
X0022279Y0187113D01*
X0022359Y0187122D01*
X0022440Y0187127D01*
X0022520Y0187128D01*
X0022601Y0187125D01*
X0022681Y0187118D01*
X0022761Y0187107D01*
X0022840Y0187092D01*
X0022918Y0187073D01*
X0022995Y0187051D01*
X0023071Y0187024D01*
X0023146Y0186994D01*
X0023219Y0186960D01*
X0023291Y0186923D01*
X0023360Y0186882D01*
X0023427Y0186838D01*
X0023492Y0186791D01*
X0023555Y0186740D01*
X0023615Y0186686D01*
X0023672Y0186630D01*
X0023727Y0186570D01*
X0023778Y0186508D01*
X0023826Y0186444D01*
X0023872Y0186377D01*
X0023913Y0186308D01*
X0023951Y0186237D01*
X0023986Y0186165D01*
X0024017Y0186090D01*
X0024045Y0186015D01*
X0024068Y0185938D01*
X0024088Y0185859D01*
X0024104Y0185780D01*
X0024116Y0185701D01*
X0024124Y0185621D01*
X0024128Y0185540D01*
X0024128Y0185460D01*
X0024124Y0185379D01*
X0024116Y0185299D01*
X0024104Y0185220D01*
X0024088Y0185141D01*
X0024068Y0185062D01*
X0024045Y0184985D01*
X0024017Y0184910D01*
X0023986Y0184835D01*
X0023951Y0184763D01*
X0023913Y0184692D01*
X0023872Y0184623D01*
X0023826Y0184556D01*
X0023778Y0184492D01*
X0023727Y0184430D01*
X0023672Y0184370D01*
X0023615Y0184314D01*
X0023555Y0184260D01*
X0023492Y0184209D01*
X0023427Y0184162D01*
X0023360Y0184118D01*
X0023291Y0184077D01*
X0023219Y0184040D01*
X0023146Y0184006D01*
X0023071Y0183976D01*
X0022995Y0183949D01*
X0022918Y0183927D01*
X0022840Y0183908D01*
X0022761Y0183893D01*
X0022681Y0183882D01*
X0022601Y0183875D01*
X0022520Y0183872D01*
X0022440Y0183873D01*
X0022359Y0183878D01*
X0022279Y0183887D01*
X0022200Y0183900D01*
X0022121Y0183917D01*
X0022043Y0183937D01*
X0021966Y0183962D01*
X0021891Y0183990D01*
X0021817Y0184022D01*
X0021745Y0184058D01*
X0021674Y0184097D01*
X0021606Y0184139D01*
X0021540Y0184185D01*
X0021476Y0184234D01*
X0021415Y0184287D01*
X0021356Y0184342D01*
X0021300Y0184400D01*
X0021247Y0184460D01*
X0021197Y0184524D01*
X0021151Y0184589D01*
X0021107Y0184657D01*
X0021067Y0184727D01*
X0021031Y0184799D01*
X0020998Y0184872D01*
X0020969Y0184947D01*
X0020943Y0185024D01*
X0020922Y0185101D01*
X0020904Y0185180D01*
X0020890Y0185259D01*
X0020880Y0185339D01*
X0020874Y0185419D01*
X0020872Y0185500D01*
X0016000Y0196800D02*
X0016000Y0198300D01*
X0015500Y0198800D01*
X0015500Y0217800D01*
X0016000Y0218300D01*
X0016000Y0219800D01*
X0015998Y0219860D01*
X0015993Y0219921D01*
X0015984Y0219980D01*
X0015971Y0220039D01*
X0015955Y0220098D01*
X0015935Y0220155D01*
X0015912Y0220210D01*
X0015885Y0220265D01*
X0015856Y0220317D01*
X0015823Y0220368D01*
X0015787Y0220417D01*
X0015749Y0220463D01*
X0015707Y0220507D01*
X0015663Y0220549D01*
X0015617Y0220587D01*
X0015568Y0220623D01*
X0015517Y0220656D01*
X0015465Y0220685D01*
X0015410Y0220712D01*
X0015355Y0220735D01*
X0015298Y0220755D01*
X0015239Y0220771D01*
X0015180Y0220784D01*
X0015121Y0220793D01*
X0015060Y0220798D01*
X0015000Y0220800D01*
X0008000Y0220800D02*
X0007940Y0220798D01*
X0007879Y0220793D01*
X0007820Y0220784D01*
X0007761Y0220771D01*
X0007702Y0220755D01*
X0007645Y0220735D01*
X0007590Y0220712D01*
X0007535Y0220685D01*
X0007483Y0220656D01*
X0007432Y0220623D01*
X0007383Y0220587D01*
X0007337Y0220549D01*
X0007293Y0220507D01*
X0007251Y0220463D01*
X0007213Y0220417D01*
X0007177Y0220368D01*
X0007144Y0220317D01*
X0007115Y0220265D01*
X0007088Y0220210D01*
X0007065Y0220155D01*
X0007045Y0220098D01*
X0007029Y0220039D01*
X0007016Y0219980D01*
X0007007Y0219921D01*
X0007002Y0219860D01*
X0007000Y0219800D01*
X0007000Y0218300D01*
X0007500Y0217800D01*
X0007500Y0198800D01*
X0007000Y0198300D01*
X0007000Y0196800D01*
X0007002Y0196740D01*
X0007007Y0196679D01*
X0007016Y0196620D01*
X0007029Y0196561D01*
X0007045Y0196502D01*
X0007065Y0196445D01*
X0007088Y0196390D01*
X0007115Y0196335D01*
X0007144Y0196283D01*
X0007177Y0196232D01*
X0007213Y0196183D01*
X0007251Y0196137D01*
X0007293Y0196093D01*
X0007337Y0196051D01*
X0007383Y0196013D01*
X0007432Y0195977D01*
X0007483Y0195944D01*
X0007535Y0195915D01*
X0007590Y0195888D01*
X0007645Y0195865D01*
X0007702Y0195845D01*
X0007761Y0195829D01*
X0007820Y0195816D01*
X0007879Y0195807D01*
X0007940Y0195802D01*
X0008000Y0195800D01*
X0015000Y0195800D02*
X0015060Y0195802D01*
X0015121Y0195807D01*
X0015180Y0195816D01*
X0015239Y0195829D01*
X0015298Y0195845D01*
X0015355Y0195865D01*
X0015410Y0195888D01*
X0015465Y0195915D01*
X0015517Y0195944D01*
X0015568Y0195977D01*
X0015617Y0196013D01*
X0015663Y0196051D01*
X0015707Y0196093D01*
X0015749Y0196137D01*
X0015787Y0196183D01*
X0015823Y0196232D01*
X0015856Y0196283D01*
X0015885Y0196335D01*
X0015912Y0196390D01*
X0015935Y0196445D01*
X0015955Y0196502D01*
X0015971Y0196561D01*
X0015984Y0196620D01*
X0015993Y0196679D01*
X0015998Y0196740D01*
X0016000Y0196800D01*
X0016000Y0236800D02*
X0016000Y0238300D01*
X0015500Y0238800D01*
X0015500Y0257800D01*
X0016000Y0258300D01*
X0016000Y0259800D01*
X0015998Y0259860D01*
X0015993Y0259921D01*
X0015984Y0259980D01*
X0015971Y0260039D01*
X0015955Y0260098D01*
X0015935Y0260155D01*
X0015912Y0260210D01*
X0015885Y0260265D01*
X0015856Y0260317D01*
X0015823Y0260368D01*
X0015787Y0260417D01*
X0015749Y0260463D01*
X0015707Y0260507D01*
X0015663Y0260549D01*
X0015617Y0260587D01*
X0015568Y0260623D01*
X0015517Y0260656D01*
X0015465Y0260685D01*
X0015410Y0260712D01*
X0015355Y0260735D01*
X0015298Y0260755D01*
X0015239Y0260771D01*
X0015180Y0260784D01*
X0015121Y0260793D01*
X0015060Y0260798D01*
X0015000Y0260800D01*
X0008000Y0260800D02*
X0007940Y0260798D01*
X0007879Y0260793D01*
X0007820Y0260784D01*
X0007761Y0260771D01*
X0007702Y0260755D01*
X0007645Y0260735D01*
X0007590Y0260712D01*
X0007535Y0260685D01*
X0007483Y0260656D01*
X0007432Y0260623D01*
X0007383Y0260587D01*
X0007337Y0260549D01*
X0007293Y0260507D01*
X0007251Y0260463D01*
X0007213Y0260417D01*
X0007177Y0260368D01*
X0007144Y0260317D01*
X0007115Y0260265D01*
X0007088Y0260210D01*
X0007065Y0260155D01*
X0007045Y0260098D01*
X0007029Y0260039D01*
X0007016Y0259980D01*
X0007007Y0259921D01*
X0007002Y0259860D01*
X0007000Y0259800D01*
X0007000Y0258300D01*
X0007500Y0257800D01*
X0007500Y0238800D01*
X0007000Y0238300D01*
X0007000Y0236800D01*
X0007002Y0236740D01*
X0007007Y0236679D01*
X0007016Y0236620D01*
X0007029Y0236561D01*
X0007045Y0236502D01*
X0007065Y0236445D01*
X0007088Y0236390D01*
X0007115Y0236335D01*
X0007144Y0236283D01*
X0007177Y0236232D01*
X0007213Y0236183D01*
X0007251Y0236137D01*
X0007293Y0236093D01*
X0007337Y0236051D01*
X0007383Y0236013D01*
X0007432Y0235977D01*
X0007483Y0235944D01*
X0007535Y0235915D01*
X0007590Y0235888D01*
X0007645Y0235865D01*
X0007702Y0235845D01*
X0007761Y0235829D01*
X0007820Y0235816D01*
X0007879Y0235807D01*
X0007940Y0235802D01*
X0008000Y0235800D01*
X0015000Y0235800D02*
X0015060Y0235802D01*
X0015121Y0235807D01*
X0015180Y0235816D01*
X0015239Y0235829D01*
X0015298Y0235845D01*
X0015355Y0235865D01*
X0015410Y0235888D01*
X0015465Y0235915D01*
X0015517Y0235944D01*
X0015568Y0235977D01*
X0015617Y0236013D01*
X0015663Y0236051D01*
X0015707Y0236093D01*
X0015749Y0236137D01*
X0015787Y0236183D01*
X0015823Y0236232D01*
X0015856Y0236283D01*
X0015885Y0236335D01*
X0015912Y0236390D01*
X0015935Y0236445D01*
X0015955Y0236502D01*
X0015971Y0236561D01*
X0015984Y0236620D01*
X0015993Y0236679D01*
X0015998Y0236740D01*
X0016000Y0236800D01*
X0027500Y0248300D02*
X0031500Y0244300D01*
X0032500Y0243300D01*
X0044500Y0243300D01*
X0044500Y0244300D01*
X0047500Y0244300D01*
X0055500Y0244300D01*
X0058500Y0244300D01*
X0071500Y0244300D01*
X0070500Y0243300D01*
X0058500Y0243300D01*
X0058500Y0244300D01*
X0055500Y0244300D02*
X0055500Y0242800D01*
X0047500Y0242800D01*
X0047500Y0244300D01*
X0044500Y0244300D02*
X0031500Y0244300D01*
X0027500Y0248300D02*
X0027500Y0253300D01*
X0027500Y0263800D02*
X0027500Y0272800D01*
X0027500Y0283300D02*
X0027500Y0288300D01*
X0031500Y0292300D01*
X0032500Y0293300D01*
X0044500Y0293300D01*
X0044500Y0292300D01*
X0047500Y0292300D01*
X0055500Y0292300D01*
X0058500Y0292300D01*
X0058500Y0293300D01*
X0070500Y0293300D01*
X0071500Y0292300D01*
X0058500Y0292300D01*
X0055500Y0292300D02*
X0055500Y0293800D01*
X0047500Y0293800D01*
X0047500Y0292300D01*
X0044500Y0292300D02*
X0031500Y0292300D01*
X0016500Y0285300D02*
X0006500Y0285300D01*
X0006500Y0301300D01*
X0016500Y0301300D01*
X0016500Y0285300D01*
X0011500Y0290800D02*
X0011500Y0293300D01*
X0014000Y0293300D01*
X0011500Y0293300D02*
X0009000Y0297300D01*
X0014000Y0297300D01*
X0011500Y0293300D01*
X0009000Y0293300D01*
X0011500Y0293300D02*
X0011500Y0299300D01*
X0044000Y0275800D02*
X0044000Y0260800D01*
X0059000Y0260800D01*
X0059000Y0275800D01*
X0044000Y0275800D01*
X0037500Y0268300D02*
X0037504Y0268644D01*
X0037517Y0268987D01*
X0037538Y0269330D01*
X0037567Y0269672D01*
X0037605Y0270014D01*
X0037652Y0270354D01*
X0037706Y0270693D01*
X0037769Y0271031D01*
X0037840Y0271367D01*
X0037920Y0271702D01*
X0038007Y0272034D01*
X0038103Y0272364D01*
X0038207Y0272692D01*
X0038318Y0273016D01*
X0038438Y0273339D01*
X0038566Y0273658D01*
X0038701Y0273973D01*
X0038844Y0274286D01*
X0038995Y0274595D01*
X0039153Y0274900D01*
X0039319Y0275201D01*
X0039492Y0275497D01*
X0039672Y0275790D01*
X0039859Y0276078D01*
X0040054Y0276361D01*
X0040255Y0276640D01*
X0040463Y0276913D01*
X0040678Y0277182D01*
X0040899Y0277444D01*
X0041127Y0277702D01*
X0041361Y0277954D01*
X0041601Y0278199D01*
X0041846Y0278439D01*
X0042098Y0278673D01*
X0042356Y0278901D01*
X0042618Y0279122D01*
X0042887Y0279337D01*
X0043160Y0279545D01*
X0043439Y0279746D01*
X0043722Y0279941D01*
X0044010Y0280128D01*
X0044303Y0280308D01*
X0044599Y0280481D01*
X0044900Y0280647D01*
X0045205Y0280805D01*
X0045514Y0280956D01*
X0045827Y0281099D01*
X0046142Y0281234D01*
X0046461Y0281362D01*
X0046784Y0281482D01*
X0047108Y0281593D01*
X0047436Y0281697D01*
X0047766Y0281793D01*
X0048098Y0281880D01*
X0048433Y0281960D01*
X0048769Y0282031D01*
X0049107Y0282094D01*
X0049446Y0282148D01*
X0049786Y0282195D01*
X0050128Y0282233D01*
X0050470Y0282262D01*
X0050813Y0282283D01*
X0051156Y0282296D01*
X0051500Y0282300D01*
X0051844Y0282296D01*
X0052187Y0282283D01*
X0052530Y0282262D01*
X0052872Y0282233D01*
X0053214Y0282195D01*
X0053554Y0282148D01*
X0053893Y0282094D01*
X0054231Y0282031D01*
X0054567Y0281960D01*
X0054902Y0281880D01*
X0055234Y0281793D01*
X0055564Y0281697D01*
X0055892Y0281593D01*
X0056216Y0281482D01*
X0056539Y0281362D01*
X0056858Y0281234D01*
X0057173Y0281099D01*
X0057486Y0280956D01*
X0057795Y0280805D01*
X0058100Y0280647D01*
X0058401Y0280481D01*
X0058697Y0280308D01*
X0058990Y0280128D01*
X0059278Y0279941D01*
X0059561Y0279746D01*
X0059840Y0279545D01*
X0060113Y0279337D01*
X0060382Y0279122D01*
X0060644Y0278901D01*
X0060902Y0278673D01*
X0061154Y0278439D01*
X0061399Y0278199D01*
X0061639Y0277954D01*
X0061873Y0277702D01*
X0062101Y0277444D01*
X0062322Y0277182D01*
X0062537Y0276913D01*
X0062745Y0276640D01*
X0062946Y0276361D01*
X0063141Y0276078D01*
X0063328Y0275790D01*
X0063508Y0275497D01*
X0063681Y0275201D01*
X0063847Y0274900D01*
X0064005Y0274595D01*
X0064156Y0274286D01*
X0064299Y0273973D01*
X0064434Y0273658D01*
X0064562Y0273339D01*
X0064682Y0273016D01*
X0064793Y0272692D01*
X0064897Y0272364D01*
X0064993Y0272034D01*
X0065080Y0271702D01*
X0065160Y0271367D01*
X0065231Y0271031D01*
X0065294Y0270693D01*
X0065348Y0270354D01*
X0065395Y0270014D01*
X0065433Y0269672D01*
X0065462Y0269330D01*
X0065483Y0268987D01*
X0065496Y0268644D01*
X0065500Y0268300D01*
X0065496Y0267956D01*
X0065483Y0267613D01*
X0065462Y0267270D01*
X0065433Y0266928D01*
X0065395Y0266586D01*
X0065348Y0266246D01*
X0065294Y0265907D01*
X0065231Y0265569D01*
X0065160Y0265233D01*
X0065080Y0264898D01*
X0064993Y0264566D01*
X0064897Y0264236D01*
X0064793Y0263908D01*
X0064682Y0263584D01*
X0064562Y0263261D01*
X0064434Y0262942D01*
X0064299Y0262627D01*
X0064156Y0262314D01*
X0064005Y0262005D01*
X0063847Y0261700D01*
X0063681Y0261399D01*
X0063508Y0261103D01*
X0063328Y0260810D01*
X0063141Y0260522D01*
X0062946Y0260239D01*
X0062745Y0259960D01*
X0062537Y0259687D01*
X0062322Y0259418D01*
X0062101Y0259156D01*
X0061873Y0258898D01*
X0061639Y0258646D01*
X0061399Y0258401D01*
X0061154Y0258161D01*
X0060902Y0257927D01*
X0060644Y0257699D01*
X0060382Y0257478D01*
X0060113Y0257263D01*
X0059840Y0257055D01*
X0059561Y0256854D01*
X0059278Y0256659D01*
X0058990Y0256472D01*
X0058697Y0256292D01*
X0058401Y0256119D01*
X0058100Y0255953D01*
X0057795Y0255795D01*
X0057486Y0255644D01*
X0057173Y0255501D01*
X0056858Y0255366D01*
X0056539Y0255238D01*
X0056216Y0255118D01*
X0055892Y0255007D01*
X0055564Y0254903D01*
X0055234Y0254807D01*
X0054902Y0254720D01*
X0054567Y0254640D01*
X0054231Y0254569D01*
X0053893Y0254506D01*
X0053554Y0254452D01*
X0053214Y0254405D01*
X0052872Y0254367D01*
X0052530Y0254338D01*
X0052187Y0254317D01*
X0051844Y0254304D01*
X0051500Y0254300D01*
X0051156Y0254304D01*
X0050813Y0254317D01*
X0050470Y0254338D01*
X0050128Y0254367D01*
X0049786Y0254405D01*
X0049446Y0254452D01*
X0049107Y0254506D01*
X0048769Y0254569D01*
X0048433Y0254640D01*
X0048098Y0254720D01*
X0047766Y0254807D01*
X0047436Y0254903D01*
X0047108Y0255007D01*
X0046784Y0255118D01*
X0046461Y0255238D01*
X0046142Y0255366D01*
X0045827Y0255501D01*
X0045514Y0255644D01*
X0045205Y0255795D01*
X0044900Y0255953D01*
X0044599Y0256119D01*
X0044303Y0256292D01*
X0044010Y0256472D01*
X0043722Y0256659D01*
X0043439Y0256854D01*
X0043160Y0257055D01*
X0042887Y0257263D01*
X0042618Y0257478D01*
X0042356Y0257699D01*
X0042098Y0257927D01*
X0041846Y0258161D01*
X0041601Y0258401D01*
X0041361Y0258646D01*
X0041127Y0258898D01*
X0040899Y0259156D01*
X0040678Y0259418D01*
X0040463Y0259687D01*
X0040255Y0259960D01*
X0040054Y0260239D01*
X0039859Y0260522D01*
X0039672Y0260810D01*
X0039492Y0261103D01*
X0039319Y0261399D01*
X0039153Y0261700D01*
X0038995Y0262005D01*
X0038844Y0262314D01*
X0038701Y0262627D01*
X0038566Y0262942D01*
X0038438Y0263261D01*
X0038318Y0263584D01*
X0038207Y0263908D01*
X0038103Y0264236D01*
X0038007Y0264566D01*
X0037920Y0264898D01*
X0037840Y0265233D01*
X0037769Y0265569D01*
X0037706Y0265907D01*
X0037652Y0266246D01*
X0037605Y0266586D01*
X0037567Y0266928D01*
X0037538Y0267270D01*
X0037517Y0267613D01*
X0037504Y0267956D01*
X0037500Y0268300D01*
X0071500Y0292300D02*
X0075500Y0288300D01*
X0075500Y0283300D01*
X0075500Y0272800D02*
X0075500Y0263800D01*
X0075500Y0253300D02*
X0075500Y0248300D01*
X0071500Y0244300D01*
X0087000Y0228300D02*
X0087000Y0218300D01*
X0087002Y0218240D01*
X0087007Y0218179D01*
X0087016Y0218120D01*
X0087029Y0218061D01*
X0087045Y0218002D01*
X0087065Y0217945D01*
X0087088Y0217890D01*
X0087115Y0217835D01*
X0087144Y0217783D01*
X0087177Y0217732D01*
X0087213Y0217683D01*
X0087251Y0217637D01*
X0087293Y0217593D01*
X0087337Y0217551D01*
X0087383Y0217513D01*
X0087432Y0217477D01*
X0087483Y0217444D01*
X0087535Y0217415D01*
X0087590Y0217388D01*
X0087645Y0217365D01*
X0087702Y0217345D01*
X0087761Y0217329D01*
X0087820Y0217316D01*
X0087879Y0217307D01*
X0087940Y0217302D01*
X0088000Y0217300D01*
X0105000Y0217300D01*
X0105060Y0217302D01*
X0105121Y0217307D01*
X0105180Y0217316D01*
X0105239Y0217329D01*
X0105298Y0217345D01*
X0105355Y0217365D01*
X0105410Y0217388D01*
X0105465Y0217415D01*
X0105517Y0217444D01*
X0105568Y0217477D01*
X0105617Y0217513D01*
X0105663Y0217551D01*
X0105707Y0217593D01*
X0105749Y0217637D01*
X0105787Y0217683D01*
X0105823Y0217732D01*
X0105856Y0217783D01*
X0105885Y0217835D01*
X0105912Y0217890D01*
X0105935Y0217945D01*
X0105955Y0218002D01*
X0105971Y0218061D01*
X0105984Y0218120D01*
X0105993Y0218179D01*
X0105998Y0218240D01*
X0106000Y0218300D01*
X0106000Y0228300D01*
X0105998Y0228360D01*
X0105993Y0228421D01*
X0105984Y0228480D01*
X0105971Y0228539D01*
X0105955Y0228598D01*
X0105935Y0228655D01*
X0105912Y0228710D01*
X0105885Y0228765D01*
X0105856Y0228817D01*
X0105823Y0228868D01*
X0105787Y0228917D01*
X0105749Y0228963D01*
X0105707Y0229007D01*
X0105663Y0229049D01*
X0105617Y0229087D01*
X0105568Y0229123D01*
X0105517Y0229156D01*
X0105465Y0229185D01*
X0105410Y0229212D01*
X0105355Y0229235D01*
X0105298Y0229255D01*
X0105239Y0229271D01*
X0105180Y0229284D01*
X0105121Y0229293D01*
X0105060Y0229298D01*
X0105000Y0229300D01*
X0088000Y0229300D01*
X0087940Y0229298D01*
X0087879Y0229293D01*
X0087820Y0229284D01*
X0087761Y0229271D01*
X0087702Y0229255D01*
X0087645Y0229235D01*
X0087590Y0229212D01*
X0087535Y0229185D01*
X0087483Y0229156D01*
X0087432Y0229123D01*
X0087383Y0229087D01*
X0087337Y0229049D01*
X0087293Y0229007D01*
X0087251Y0228963D01*
X0087213Y0228917D01*
X0087177Y0228868D01*
X0087144Y0228817D01*
X0087115Y0228765D01*
X0087088Y0228710D01*
X0087065Y0228655D01*
X0087045Y0228598D01*
X0087029Y0228539D01*
X0087016Y0228480D01*
X0087007Y0228421D01*
X0087002Y0228360D01*
X0087000Y0228300D01*
X0095000Y0223300D02*
X0095500Y0223300D01*
X0097500Y0223300D02*
X0098000Y0223300D01*
X0125000Y0238300D02*
X0132500Y0238300D01*
X0132502Y0238174D01*
X0132508Y0238049D01*
X0132518Y0237924D01*
X0132532Y0237799D01*
X0132549Y0237674D01*
X0132571Y0237550D01*
X0132596Y0237427D01*
X0132626Y0237305D01*
X0132659Y0237184D01*
X0132696Y0237064D01*
X0132736Y0236945D01*
X0132781Y0236828D01*
X0132829Y0236711D01*
X0132881Y0236597D01*
X0132936Y0236484D01*
X0132995Y0236373D01*
X0133057Y0236264D01*
X0133123Y0236157D01*
X0133192Y0236052D01*
X0133264Y0235949D01*
X0133339Y0235848D01*
X0133418Y0235750D01*
X0133500Y0235655D01*
X0133584Y0235562D01*
X0133672Y0235472D01*
X0133762Y0235384D01*
X0133855Y0235300D01*
X0133950Y0235218D01*
X0134048Y0235139D01*
X0134149Y0235064D01*
X0134252Y0234992D01*
X0134357Y0234923D01*
X0134464Y0234857D01*
X0134573Y0234795D01*
X0134684Y0234736D01*
X0134797Y0234681D01*
X0134911Y0234629D01*
X0135028Y0234581D01*
X0135145Y0234536D01*
X0135264Y0234496D01*
X0135384Y0234459D01*
X0135505Y0234426D01*
X0135627Y0234396D01*
X0135750Y0234371D01*
X0135874Y0234349D01*
X0135999Y0234332D01*
X0136124Y0234318D01*
X0136249Y0234308D01*
X0136374Y0234302D01*
X0136500Y0234300D01*
X0136626Y0234302D01*
X0136751Y0234308D01*
X0136876Y0234318D01*
X0137001Y0234332D01*
X0137126Y0234349D01*
X0137250Y0234371D01*
X0137373Y0234396D01*
X0137495Y0234426D01*
X0137616Y0234459D01*
X0137736Y0234496D01*
X0137855Y0234536D01*
X0137972Y0234581D01*
X0138089Y0234629D01*
X0138203Y0234681D01*
X0138316Y0234736D01*
X0138427Y0234795D01*
X0138536Y0234857D01*
X0138643Y0234923D01*
X0138748Y0234992D01*
X0138851Y0235064D01*
X0138952Y0235139D01*
X0139050Y0235218D01*
X0139145Y0235300D01*
X0139238Y0235384D01*
X0139328Y0235472D01*
X0139416Y0235562D01*
X0139500Y0235655D01*
X0139582Y0235750D01*
X0139661Y0235848D01*
X0139736Y0235949D01*
X0139808Y0236052D01*
X0139877Y0236157D01*
X0139943Y0236264D01*
X0140005Y0236373D01*
X0140064Y0236484D01*
X0140119Y0236597D01*
X0140171Y0236711D01*
X0140219Y0236828D01*
X0140264Y0236945D01*
X0140304Y0237064D01*
X0140341Y0237184D01*
X0140374Y0237305D01*
X0140404Y0237427D01*
X0140429Y0237550D01*
X0140451Y0237674D01*
X0140468Y0237799D01*
X0140482Y0237924D01*
X0140492Y0238049D01*
X0140498Y0238174D01*
X0140500Y0238300D01*
X0148000Y0238300D01*
X0148000Y0168300D01*
X0125000Y0168300D01*
X0125000Y0238300D01*
X0128000Y0242300D02*
X0145000Y0242300D01*
X0145060Y0242302D01*
X0145121Y0242307D01*
X0145180Y0242316D01*
X0145239Y0242329D01*
X0145298Y0242345D01*
X0145355Y0242365D01*
X0145410Y0242388D01*
X0145465Y0242415D01*
X0145517Y0242444D01*
X0145568Y0242477D01*
X0145617Y0242513D01*
X0145663Y0242551D01*
X0145707Y0242593D01*
X0145749Y0242637D01*
X0145787Y0242683D01*
X0145823Y0242732D01*
X0145856Y0242783D01*
X0145885Y0242835D01*
X0145912Y0242890D01*
X0145935Y0242945D01*
X0145955Y0243002D01*
X0145971Y0243061D01*
X0145984Y0243120D01*
X0145993Y0243179D01*
X0145998Y0243240D01*
X0146000Y0243300D01*
X0146000Y0253300D01*
X0145998Y0253360D01*
X0145993Y0253421D01*
X0145984Y0253480D01*
X0145971Y0253539D01*
X0145955Y0253598D01*
X0145935Y0253655D01*
X0145912Y0253710D01*
X0145885Y0253765D01*
X0145856Y0253817D01*
X0145823Y0253868D01*
X0145787Y0253917D01*
X0145749Y0253963D01*
X0145707Y0254007D01*
X0145663Y0254049D01*
X0145617Y0254087D01*
X0145568Y0254123D01*
X0145517Y0254156D01*
X0145465Y0254185D01*
X0145410Y0254212D01*
X0145355Y0254235D01*
X0145298Y0254255D01*
X0145239Y0254271D01*
X0145180Y0254284D01*
X0145121Y0254293D01*
X0145060Y0254298D01*
X0145000Y0254300D01*
X0128000Y0254300D01*
X0127940Y0254298D01*
X0127879Y0254293D01*
X0127820Y0254284D01*
X0127761Y0254271D01*
X0127702Y0254255D01*
X0127645Y0254235D01*
X0127590Y0254212D01*
X0127535Y0254185D01*
X0127483Y0254156D01*
X0127432Y0254123D01*
X0127383Y0254087D01*
X0127337Y0254049D01*
X0127293Y0254007D01*
X0127251Y0253963D01*
X0127213Y0253917D01*
X0127177Y0253868D01*
X0127144Y0253817D01*
X0127115Y0253765D01*
X0127088Y0253710D01*
X0127065Y0253655D01*
X0127045Y0253598D01*
X0127029Y0253539D01*
X0127016Y0253480D01*
X0127007Y0253421D01*
X0127002Y0253360D01*
X0127000Y0253300D01*
X0127000Y0243300D01*
X0127002Y0243240D01*
X0127007Y0243179D01*
X0127016Y0243120D01*
X0127029Y0243061D01*
X0127045Y0243002D01*
X0127065Y0242945D01*
X0127088Y0242890D01*
X0127115Y0242835D01*
X0127144Y0242783D01*
X0127177Y0242732D01*
X0127213Y0242683D01*
X0127251Y0242637D01*
X0127293Y0242593D01*
X0127337Y0242551D01*
X0127383Y0242513D01*
X0127432Y0242477D01*
X0127483Y0242444D01*
X0127535Y0242415D01*
X0127590Y0242388D01*
X0127645Y0242365D01*
X0127702Y0242345D01*
X0127761Y0242329D01*
X0127820Y0242316D01*
X0127879Y0242307D01*
X0127940Y0242302D01*
X0128000Y0242300D01*
X0135000Y0248300D02*
X0135500Y0248300D01*
X0137500Y0248300D02*
X0138000Y0248300D01*
X0113000Y0268800D02*
X0111500Y0268800D01*
X0111000Y0269300D01*
X0092000Y0269300D01*
X0091500Y0268800D01*
X0090000Y0268800D01*
X0089940Y0268802D01*
X0089879Y0268807D01*
X0089820Y0268816D01*
X0089761Y0268829D01*
X0089702Y0268845D01*
X0089645Y0268865D01*
X0089590Y0268888D01*
X0089535Y0268915D01*
X0089483Y0268944D01*
X0089432Y0268977D01*
X0089383Y0269013D01*
X0089337Y0269051D01*
X0089293Y0269093D01*
X0089251Y0269137D01*
X0089213Y0269183D01*
X0089177Y0269232D01*
X0089144Y0269283D01*
X0089115Y0269335D01*
X0089088Y0269390D01*
X0089065Y0269445D01*
X0089045Y0269502D01*
X0089029Y0269561D01*
X0089016Y0269620D01*
X0089007Y0269679D01*
X0089002Y0269740D01*
X0089000Y0269800D01*
X0089000Y0276800D02*
X0089002Y0276860D01*
X0089007Y0276921D01*
X0089016Y0276980D01*
X0089029Y0277039D01*
X0089045Y0277098D01*
X0089065Y0277155D01*
X0089088Y0277210D01*
X0089115Y0277265D01*
X0089144Y0277317D01*
X0089177Y0277368D01*
X0089213Y0277417D01*
X0089251Y0277463D01*
X0089293Y0277507D01*
X0089337Y0277549D01*
X0089383Y0277587D01*
X0089432Y0277623D01*
X0089483Y0277656D01*
X0089535Y0277685D01*
X0089590Y0277712D01*
X0089645Y0277735D01*
X0089702Y0277755D01*
X0089761Y0277771D01*
X0089820Y0277784D01*
X0089879Y0277793D01*
X0089940Y0277798D01*
X0090000Y0277800D01*
X0091500Y0277800D01*
X0092000Y0277300D01*
X0111000Y0277300D01*
X0111500Y0277800D01*
X0113000Y0277800D01*
X0113060Y0277798D01*
X0113121Y0277793D01*
X0113180Y0277784D01*
X0113239Y0277771D01*
X0113298Y0277755D01*
X0113355Y0277735D01*
X0113410Y0277712D01*
X0113465Y0277685D01*
X0113517Y0277656D01*
X0113568Y0277623D01*
X0113617Y0277587D01*
X0113663Y0277549D01*
X0113707Y0277507D01*
X0113749Y0277463D01*
X0113787Y0277417D01*
X0113823Y0277368D01*
X0113856Y0277317D01*
X0113885Y0277265D01*
X0113912Y0277210D01*
X0113935Y0277155D01*
X0113955Y0277098D01*
X0113971Y0277039D01*
X0113984Y0276980D01*
X0113993Y0276921D01*
X0113998Y0276860D01*
X0114000Y0276800D01*
X0114000Y0269800D02*
X0113998Y0269740D01*
X0113993Y0269679D01*
X0113984Y0269620D01*
X0113971Y0269561D01*
X0113955Y0269502D01*
X0113935Y0269445D01*
X0113912Y0269390D01*
X0113885Y0269335D01*
X0113856Y0269283D01*
X0113823Y0269232D01*
X0113787Y0269183D01*
X0113749Y0269137D01*
X0113707Y0269093D01*
X0113663Y0269051D01*
X0113617Y0269013D01*
X0113568Y0268977D01*
X0113517Y0268944D01*
X0113465Y0268915D01*
X0113410Y0268888D01*
X0113355Y0268865D01*
X0113298Y0268845D01*
X0113239Y0268829D01*
X0113180Y0268816D01*
X0113121Y0268807D01*
X0113060Y0268802D01*
X0113000Y0268800D01*
X0085500Y0253300D02*
X0085503Y0253570D01*
X0085513Y0253840D01*
X0085530Y0254109D01*
X0085553Y0254378D01*
X0085583Y0254647D01*
X0085619Y0254914D01*
X0085662Y0255181D01*
X0085711Y0255446D01*
X0085767Y0255710D01*
X0085830Y0255973D01*
X0085898Y0256234D01*
X0085974Y0256493D01*
X0086055Y0256750D01*
X0086143Y0257006D01*
X0086237Y0257259D01*
X0086337Y0257510D01*
X0086444Y0257758D01*
X0086556Y0258003D01*
X0086675Y0258246D01*
X0086799Y0258485D01*
X0086929Y0258722D01*
X0087065Y0258955D01*
X0087207Y0259185D01*
X0087354Y0259411D01*
X0087507Y0259634D01*
X0087665Y0259853D01*
X0087828Y0260068D01*
X0087997Y0260278D01*
X0088171Y0260485D01*
X0088350Y0260687D01*
X0088533Y0260885D01*
X0088722Y0261078D01*
X0088915Y0261267D01*
X0089113Y0261450D01*
X0089315Y0261629D01*
X0089522Y0261803D01*
X0089732Y0261972D01*
X0089947Y0262135D01*
X0090166Y0262293D01*
X0090389Y0262446D01*
X0090615Y0262593D01*
X0090845Y0262735D01*
X0091078Y0262871D01*
X0091315Y0263001D01*
X0091554Y0263125D01*
X0091797Y0263244D01*
X0092042Y0263356D01*
X0092290Y0263463D01*
X0092541Y0263563D01*
X0092794Y0263657D01*
X0093050Y0263745D01*
X0093307Y0263826D01*
X0093566Y0263902D01*
X0093827Y0263970D01*
X0094090Y0264033D01*
X0094354Y0264089D01*
X0094619Y0264138D01*
X0094886Y0264181D01*
X0095153Y0264217D01*
X0095422Y0264247D01*
X0095691Y0264270D01*
X0095960Y0264287D01*
X0096230Y0264297D01*
X0096500Y0264300D01*
X0096770Y0264297D01*
X0097040Y0264287D01*
X0097309Y0264270D01*
X0097578Y0264247D01*
X0097847Y0264217D01*
X0098114Y0264181D01*
X0098381Y0264138D01*
X0098646Y0264089D01*
X0098910Y0264033D01*
X0099173Y0263970D01*
X0099434Y0263902D01*
X0099693Y0263826D01*
X0099950Y0263745D01*
X0100206Y0263657D01*
X0100459Y0263563D01*
X0100710Y0263463D01*
X0100958Y0263356D01*
X0101203Y0263244D01*
X0101446Y0263125D01*
X0101685Y0263001D01*
X0101922Y0262871D01*
X0102155Y0262735D01*
X0102385Y0262593D01*
X0102611Y0262446D01*
X0102834Y0262293D01*
X0103053Y0262135D01*
X0103268Y0261972D01*
X0103478Y0261803D01*
X0103685Y0261629D01*
X0103887Y0261450D01*
X0104085Y0261267D01*
X0104278Y0261078D01*
X0104467Y0260885D01*
X0104650Y0260687D01*
X0104829Y0260485D01*
X0105003Y0260278D01*
X0105172Y0260068D01*
X0105335Y0259853D01*
X0105493Y0259634D01*
X0105646Y0259411D01*
X0105793Y0259185D01*
X0105935Y0258955D01*
X0106071Y0258722D01*
X0106201Y0258485D01*
X0106325Y0258246D01*
X0106444Y0258003D01*
X0106556Y0257758D01*
X0106663Y0257510D01*
X0106763Y0257259D01*
X0106857Y0257006D01*
X0106945Y0256750D01*
X0107026Y0256493D01*
X0107102Y0256234D01*
X0107170Y0255973D01*
X0107233Y0255710D01*
X0107289Y0255446D01*
X0107338Y0255181D01*
X0107381Y0254914D01*
X0107417Y0254647D01*
X0107447Y0254378D01*
X0107470Y0254109D01*
X0107487Y0253840D01*
X0107497Y0253570D01*
X0107500Y0253300D01*
X0107497Y0253030D01*
X0107487Y0252760D01*
X0107470Y0252491D01*
X0107447Y0252222D01*
X0107417Y0251953D01*
X0107381Y0251686D01*
X0107338Y0251419D01*
X0107289Y0251154D01*
X0107233Y0250890D01*
X0107170Y0250627D01*
X0107102Y0250366D01*
X0107026Y0250107D01*
X0106945Y0249850D01*
X0106857Y0249594D01*
X0106763Y0249341D01*
X0106663Y0249090D01*
X0106556Y0248842D01*
X0106444Y0248597D01*
X0106325Y0248354D01*
X0106201Y0248115D01*
X0106071Y0247878D01*
X0105935Y0247645D01*
X0105793Y0247415D01*
X0105646Y0247189D01*
X0105493Y0246966D01*
X0105335Y0246747D01*
X0105172Y0246532D01*
X0105003Y0246322D01*
X0104829Y0246115D01*
X0104650Y0245913D01*
X0104467Y0245715D01*
X0104278Y0245522D01*
X0104085Y0245333D01*
X0103887Y0245150D01*
X0103685Y0244971D01*
X0103478Y0244797D01*
X0103268Y0244628D01*
X0103053Y0244465D01*
X0102834Y0244307D01*
X0102611Y0244154D01*
X0102385Y0244007D01*
X0102155Y0243865D01*
X0101922Y0243729D01*
X0101685Y0243599D01*
X0101446Y0243475D01*
X0101203Y0243356D01*
X0100958Y0243244D01*
X0100710Y0243137D01*
X0100459Y0243037D01*
X0100206Y0242943D01*
X0099950Y0242855D01*
X0099693Y0242774D01*
X0099434Y0242698D01*
X0099173Y0242630D01*
X0098910Y0242567D01*
X0098646Y0242511D01*
X0098381Y0242462D01*
X0098114Y0242419D01*
X0097847Y0242383D01*
X0097578Y0242353D01*
X0097309Y0242330D01*
X0097040Y0242313D01*
X0096770Y0242303D01*
X0096500Y0242300D01*
X0096230Y0242303D01*
X0095960Y0242313D01*
X0095691Y0242330D01*
X0095422Y0242353D01*
X0095153Y0242383D01*
X0094886Y0242419D01*
X0094619Y0242462D01*
X0094354Y0242511D01*
X0094090Y0242567D01*
X0093827Y0242630D01*
X0093566Y0242698D01*
X0093307Y0242774D01*
X0093050Y0242855D01*
X0092794Y0242943D01*
X0092541Y0243037D01*
X0092290Y0243137D01*
X0092042Y0243244D01*
X0091797Y0243356D01*
X0091554Y0243475D01*
X0091315Y0243599D01*
X0091078Y0243729D01*
X0090845Y0243865D01*
X0090615Y0244007D01*
X0090389Y0244154D01*
X0090166Y0244307D01*
X0089947Y0244465D01*
X0089732Y0244628D01*
X0089522Y0244797D01*
X0089315Y0244971D01*
X0089113Y0245150D01*
X0088915Y0245333D01*
X0088722Y0245522D01*
X0088533Y0245715D01*
X0088350Y0245913D01*
X0088171Y0246115D01*
X0087997Y0246322D01*
X0087828Y0246532D01*
X0087665Y0246747D01*
X0087507Y0246966D01*
X0087354Y0247189D01*
X0087207Y0247415D01*
X0087065Y0247645D01*
X0086929Y0247878D01*
X0086799Y0248115D01*
X0086675Y0248354D01*
X0086556Y0248597D01*
X0086444Y0248842D01*
X0086337Y0249090D01*
X0086237Y0249341D01*
X0086143Y0249594D01*
X0086055Y0249850D01*
X0085974Y0250107D01*
X0085898Y0250366D01*
X0085830Y0250627D01*
X0085767Y0250890D01*
X0085711Y0251154D01*
X0085662Y0251419D01*
X0085619Y0251686D01*
X0085583Y0251953D01*
X0085553Y0252222D01*
X0085530Y0252491D01*
X0085513Y0252760D01*
X0085503Y0253030D01*
X0085500Y0253300D01*
X0101500Y0248300D02*
X0103000Y0248300D01*
X0103000Y0246800D01*
X0103000Y0248300D02*
X0103000Y0249800D01*
X0103000Y0248300D02*
X0104500Y0248300D01*
X0192000Y0213300D02*
X0192000Y0203300D01*
X0192002Y0203240D01*
X0192007Y0203179D01*
X0192016Y0203120D01*
X0192029Y0203061D01*
X0192045Y0203002D01*
X0192065Y0202945D01*
X0192088Y0202890D01*
X0192115Y0202835D01*
X0192144Y0202783D01*
X0192177Y0202732D01*
X0192213Y0202683D01*
X0192251Y0202637D01*
X0192293Y0202593D01*
X0192337Y0202551D01*
X0192383Y0202513D01*
X0192432Y0202477D01*
X0192483Y0202444D01*
X0192535Y0202415D01*
X0192590Y0202388D01*
X0192645Y0202365D01*
X0192702Y0202345D01*
X0192761Y0202329D01*
X0192820Y0202316D01*
X0192879Y0202307D01*
X0192940Y0202302D01*
X0193000Y0202300D01*
X0210000Y0202300D01*
X0210060Y0202302D01*
X0210121Y0202307D01*
X0210180Y0202316D01*
X0210239Y0202329D01*
X0210298Y0202345D01*
X0210355Y0202365D01*
X0210410Y0202388D01*
X0210465Y0202415D01*
X0210517Y0202444D01*
X0210568Y0202477D01*
X0210617Y0202513D01*
X0210663Y0202551D01*
X0210707Y0202593D01*
X0210749Y0202637D01*
X0210787Y0202683D01*
X0210823Y0202732D01*
X0210856Y0202783D01*
X0210885Y0202835D01*
X0210912Y0202890D01*
X0210935Y0202945D01*
X0210955Y0203002D01*
X0210971Y0203061D01*
X0210984Y0203120D01*
X0210993Y0203179D01*
X0210998Y0203240D01*
X0211000Y0203300D01*
X0211000Y0213300D01*
X0210998Y0213360D01*
X0210993Y0213421D01*
X0210984Y0213480D01*
X0210971Y0213539D01*
X0210955Y0213598D01*
X0210935Y0213655D01*
X0210912Y0213710D01*
X0210885Y0213765D01*
X0210856Y0213817D01*
X0210823Y0213868D01*
X0210787Y0213917D01*
X0210749Y0213963D01*
X0210707Y0214007D01*
X0210663Y0214049D01*
X0210617Y0214087D01*
X0210568Y0214123D01*
X0210517Y0214156D01*
X0210465Y0214185D01*
X0210410Y0214212D01*
X0210355Y0214235D01*
X0210298Y0214255D01*
X0210239Y0214271D01*
X0210180Y0214284D01*
X0210121Y0214293D01*
X0210060Y0214298D01*
X0210000Y0214300D01*
X0193000Y0214300D01*
X0192940Y0214298D01*
X0192879Y0214293D01*
X0192820Y0214284D01*
X0192761Y0214271D01*
X0192702Y0214255D01*
X0192645Y0214235D01*
X0192590Y0214212D01*
X0192535Y0214185D01*
X0192483Y0214156D01*
X0192432Y0214123D01*
X0192383Y0214087D01*
X0192337Y0214049D01*
X0192293Y0214007D01*
X0192251Y0213963D01*
X0192213Y0213917D01*
X0192177Y0213868D01*
X0192144Y0213817D01*
X0192115Y0213765D01*
X0192088Y0213710D01*
X0192065Y0213655D01*
X0192045Y0213598D01*
X0192029Y0213539D01*
X0192016Y0213480D01*
X0192007Y0213421D01*
X0192002Y0213360D01*
X0192000Y0213300D01*
X0200000Y0208300D02*
X0200500Y0208300D01*
X0202500Y0208300D02*
X0203000Y0208300D01*
X0249500Y0261800D02*
X0273500Y0261800D01*
X0273660Y0261802D01*
X0273819Y0261808D01*
X0273978Y0261818D01*
X0274137Y0261831D01*
X0274296Y0261849D01*
X0274454Y0261870D01*
X0274611Y0261896D01*
X0274768Y0261925D01*
X0274924Y0261958D01*
X0275079Y0261995D01*
X0275234Y0262035D01*
X0275387Y0262080D01*
X0275539Y0262128D01*
X0275690Y0262180D01*
X0275839Y0262236D01*
X0275987Y0262295D01*
X0276134Y0262358D01*
X0276279Y0262424D01*
X0276422Y0262494D01*
X0276564Y0262568D01*
X0276704Y0262644D01*
X0276842Y0262725D01*
X0276977Y0262808D01*
X0277111Y0262895D01*
X0277243Y0262986D01*
X0277372Y0263079D01*
X0277499Y0263176D01*
X0277624Y0263275D01*
X0277746Y0263378D01*
X0277865Y0263484D01*
X0277982Y0263592D01*
X0278096Y0263704D01*
X0278208Y0263818D01*
X0278316Y0263935D01*
X0278422Y0264054D01*
X0278525Y0264176D01*
X0278624Y0264301D01*
X0278721Y0264428D01*
X0278814Y0264557D01*
X0278905Y0264689D01*
X0278992Y0264823D01*
X0279075Y0264958D01*
X0279156Y0265096D01*
X0279232Y0265236D01*
X0279306Y0265378D01*
X0279376Y0265521D01*
X0279442Y0265666D01*
X0279505Y0265813D01*
X0279564Y0265961D01*
X0279620Y0266110D01*
X0279672Y0266261D01*
X0279720Y0266413D01*
X0279765Y0266566D01*
X0279805Y0266721D01*
X0279842Y0266876D01*
X0279875Y0267032D01*
X0279904Y0267189D01*
X0279930Y0267346D01*
X0279951Y0267504D01*
X0279969Y0267663D01*
X0279982Y0267822D01*
X0279992Y0267981D01*
X0279998Y0268140D01*
X0280000Y0268300D01*
X0279998Y0268460D01*
X0279992Y0268619D01*
X0279982Y0268778D01*
X0279969Y0268937D01*
X0279951Y0269096D01*
X0279930Y0269254D01*
X0279904Y0269411D01*
X0279875Y0269568D01*
X0279842Y0269724D01*
X0279805Y0269879D01*
X0279765Y0270034D01*
X0279720Y0270187D01*
X0279672Y0270339D01*
X0279620Y0270490D01*
X0279564Y0270639D01*
X0279505Y0270787D01*
X0279442Y0270934D01*
X0279376Y0271079D01*
X0279306Y0271222D01*
X0279232Y0271364D01*
X0279156Y0271504D01*
X0279075Y0271642D01*
X0278992Y0271777D01*
X0278905Y0271911D01*
X0278814Y0272043D01*
X0278721Y0272172D01*
X0278624Y0272299D01*
X0278525Y0272424D01*
X0278422Y0272546D01*
X0278316Y0272665D01*
X0278208Y0272782D01*
X0278096Y0272896D01*
X0277982Y0273008D01*
X0277865Y0273116D01*
X0277746Y0273222D01*
X0277624Y0273325D01*
X0277499Y0273424D01*
X0277372Y0273521D01*
X0277243Y0273614D01*
X0277111Y0273705D01*
X0276977Y0273792D01*
X0276842Y0273875D01*
X0276704Y0273956D01*
X0276564Y0274032D01*
X0276422Y0274106D01*
X0276279Y0274176D01*
X0276134Y0274242D01*
X0275987Y0274305D01*
X0275839Y0274364D01*
X0275690Y0274420D01*
X0275539Y0274472D01*
X0275387Y0274520D01*
X0275234Y0274565D01*
X0275079Y0274605D01*
X0274924Y0274642D01*
X0274768Y0274675D01*
X0274611Y0274704D01*
X0274454Y0274730D01*
X0274296Y0274751D01*
X0274137Y0274769D01*
X0273978Y0274782D01*
X0273819Y0274792D01*
X0273660Y0274798D01*
X0273500Y0274800D01*
X0249500Y0274800D01*
X0249340Y0274798D01*
X0249181Y0274792D01*
X0249022Y0274782D01*
X0248863Y0274769D01*
X0248704Y0274751D01*
X0248546Y0274730D01*
X0248389Y0274704D01*
X0248232Y0274675D01*
X0248076Y0274642D01*
X0247921Y0274605D01*
X0247766Y0274565D01*
X0247613Y0274520D01*
X0247461Y0274472D01*
X0247310Y0274420D01*
X0247161Y0274364D01*
X0247013Y0274305D01*
X0246866Y0274242D01*
X0246721Y0274176D01*
X0246578Y0274106D01*
X0246436Y0274032D01*
X0246296Y0273956D01*
X0246158Y0273875D01*
X0246023Y0273792D01*
X0245889Y0273705D01*
X0245757Y0273614D01*
X0245628Y0273521D01*
X0245501Y0273424D01*
X0245376Y0273325D01*
X0245254Y0273222D01*
X0245135Y0273116D01*
X0245018Y0273008D01*
X0244904Y0272896D01*
X0244792Y0272782D01*
X0244684Y0272665D01*
X0244578Y0272546D01*
X0244475Y0272424D01*
X0244376Y0272299D01*
X0244279Y0272172D01*
X0244186Y0272043D01*
X0244095Y0271911D01*
X0244008Y0271777D01*
X0243925Y0271642D01*
X0243844Y0271504D01*
X0243768Y0271364D01*
X0243694Y0271222D01*
X0243624Y0271079D01*
X0243558Y0270934D01*
X0243495Y0270787D01*
X0243436Y0270639D01*
X0243380Y0270490D01*
X0243328Y0270339D01*
X0243280Y0270187D01*
X0243235Y0270034D01*
X0243195Y0269879D01*
X0243158Y0269724D01*
X0243125Y0269568D01*
X0243096Y0269411D01*
X0243070Y0269254D01*
X0243049Y0269096D01*
X0243031Y0268937D01*
X0243018Y0268778D01*
X0243008Y0268619D01*
X0243002Y0268460D01*
X0243000Y0268300D01*
X0243002Y0268140D01*
X0243008Y0267981D01*
X0243018Y0267822D01*
X0243031Y0267663D01*
X0243049Y0267504D01*
X0243070Y0267346D01*
X0243096Y0267189D01*
X0243125Y0267032D01*
X0243158Y0266876D01*
X0243195Y0266721D01*
X0243235Y0266566D01*
X0243280Y0266413D01*
X0243328Y0266261D01*
X0243380Y0266110D01*
X0243436Y0265961D01*
X0243495Y0265813D01*
X0243558Y0265666D01*
X0243624Y0265521D01*
X0243694Y0265378D01*
X0243768Y0265236D01*
X0243844Y0265096D01*
X0243925Y0264958D01*
X0244008Y0264823D01*
X0244095Y0264689D01*
X0244186Y0264557D01*
X0244279Y0264428D01*
X0244376Y0264301D01*
X0244475Y0264176D01*
X0244578Y0264054D01*
X0244684Y0263935D01*
X0244792Y0263818D01*
X0244904Y0263704D01*
X0245018Y0263592D01*
X0245135Y0263484D01*
X0245254Y0263378D01*
X0245376Y0263275D01*
X0245501Y0263176D01*
X0245628Y0263079D01*
X0245757Y0262986D01*
X0245889Y0262895D01*
X0246023Y0262808D01*
X0246158Y0262725D01*
X0246296Y0262644D01*
X0246436Y0262568D01*
X0246578Y0262494D01*
X0246721Y0262424D01*
X0246866Y0262358D01*
X0247013Y0262295D01*
X0247161Y0262236D01*
X0247310Y0262180D01*
X0247461Y0262128D01*
X0247613Y0262080D01*
X0247766Y0262035D01*
X0247921Y0261995D01*
X0248076Y0261958D01*
X0248232Y0261925D01*
X0248389Y0261896D01*
X0248546Y0261870D01*
X0248704Y0261849D01*
X0248863Y0261831D01*
X0249022Y0261818D01*
X0249181Y0261808D01*
X0249340Y0261802D01*
X0249500Y0261800D01*
X0256500Y0268300D02*
X0259000Y0268300D01*
X0259000Y0265300D01*
X0260500Y0265300D02*
X0260500Y0271300D01*
X0262500Y0271300D01*
X0262500Y0265300D01*
X0260500Y0265300D01*
X0259000Y0268300D02*
X0259000Y0271300D01*
X0264000Y0271300D02*
X0264000Y0268300D01*
X0266500Y0268300D01*
X0264000Y0268300D02*
X0264000Y0265300D01*
X0275000Y0282300D02*
X0248000Y0282300D01*
X0247940Y0282302D01*
X0247879Y0282307D01*
X0247820Y0282316D01*
X0247761Y0282329D01*
X0247702Y0282345D01*
X0247645Y0282365D01*
X0247590Y0282388D01*
X0247535Y0282415D01*
X0247483Y0282444D01*
X0247432Y0282477D01*
X0247383Y0282513D01*
X0247337Y0282551D01*
X0247293Y0282593D01*
X0247251Y0282637D01*
X0247213Y0282683D01*
X0247177Y0282732D01*
X0247144Y0282783D01*
X0247115Y0282835D01*
X0247088Y0282890D01*
X0247065Y0282945D01*
X0247045Y0283002D01*
X0247029Y0283061D01*
X0247016Y0283120D01*
X0247007Y0283179D01*
X0247002Y0283240D01*
X0247000Y0283300D01*
X0247000Y0293300D01*
X0247002Y0293360D01*
X0247007Y0293421D01*
X0247016Y0293480D01*
X0247029Y0293539D01*
X0247045Y0293598D01*
X0247065Y0293655D01*
X0247088Y0293710D01*
X0247115Y0293765D01*
X0247144Y0293817D01*
X0247177Y0293868D01*
X0247213Y0293917D01*
X0247251Y0293963D01*
X0247293Y0294007D01*
X0247337Y0294049D01*
X0247383Y0294087D01*
X0247432Y0294123D01*
X0247483Y0294156D01*
X0247535Y0294185D01*
X0247590Y0294212D01*
X0247645Y0294235D01*
X0247702Y0294255D01*
X0247761Y0294271D01*
X0247820Y0294284D01*
X0247879Y0294293D01*
X0247940Y0294298D01*
X0248000Y0294300D01*
X0275000Y0294300D01*
X0275060Y0294298D01*
X0275121Y0294293D01*
X0275180Y0294284D01*
X0275239Y0294271D01*
X0275298Y0294255D01*
X0275355Y0294235D01*
X0275410Y0294212D01*
X0275465Y0294185D01*
X0275517Y0294156D01*
X0275568Y0294123D01*
X0275617Y0294087D01*
X0275663Y0294049D01*
X0275707Y0294007D01*
X0275749Y0293963D01*
X0275787Y0293917D01*
X0275823Y0293868D01*
X0275856Y0293817D01*
X0275885Y0293765D01*
X0275912Y0293710D01*
X0275935Y0293655D01*
X0275955Y0293598D01*
X0275971Y0293539D01*
X0275984Y0293480D01*
X0275993Y0293421D01*
X0275998Y0293360D01*
X0276000Y0293300D01*
X0276000Y0283300D01*
X0275998Y0283240D01*
X0275993Y0283179D01*
X0275984Y0283120D01*
X0275971Y0283061D01*
X0275955Y0283002D01*
X0275935Y0282945D01*
X0275912Y0282890D01*
X0275885Y0282835D01*
X0275856Y0282783D01*
X0275823Y0282732D01*
X0275787Y0282683D01*
X0275749Y0282637D01*
X0275707Y0282593D01*
X0275663Y0282551D01*
X0275617Y0282513D01*
X0275568Y0282477D01*
X0275517Y0282444D01*
X0275465Y0282415D01*
X0275410Y0282388D01*
X0275355Y0282365D01*
X0275298Y0282345D01*
X0275239Y0282329D01*
X0275180Y0282316D01*
X0275121Y0282307D01*
X0275060Y0282302D01*
X0275000Y0282300D01*
X0267500Y0288300D02*
X0262700Y0288300D01*
X0260200Y0288300D02*
X0255500Y0288300D01*
X0220872Y0295500D02*
X0220874Y0295581D01*
X0220880Y0295661D01*
X0220890Y0295741D01*
X0220904Y0295820D01*
X0220922Y0295899D01*
X0220943Y0295976D01*
X0220969Y0296053D01*
X0220998Y0296128D01*
X0221031Y0296201D01*
X0221067Y0296273D01*
X0221107Y0296343D01*
X0221151Y0296411D01*
X0221197Y0296476D01*
X0221247Y0296540D01*
X0221300Y0296600D01*
X0221356Y0296658D01*
X0221415Y0296713D01*
X0221476Y0296766D01*
X0221540Y0296815D01*
X0221606Y0296861D01*
X0221674Y0296903D01*
X0221745Y0296942D01*
X0221817Y0296978D01*
X0221891Y0297010D01*
X0221966Y0297038D01*
X0222043Y0297063D01*
X0222121Y0297083D01*
X0222200Y0297100D01*
X0222279Y0297113D01*
X0222359Y0297122D01*
X0222440Y0297127D01*
X0222520Y0297128D01*
X0222601Y0297125D01*
X0222681Y0297118D01*
X0222761Y0297107D01*
X0222840Y0297092D01*
X0222918Y0297073D01*
X0222995Y0297051D01*
X0223071Y0297024D01*
X0223146Y0296994D01*
X0223219Y0296960D01*
X0223291Y0296923D01*
X0223360Y0296882D01*
X0223427Y0296838D01*
X0223492Y0296791D01*
X0223555Y0296740D01*
X0223615Y0296686D01*
X0223672Y0296630D01*
X0223727Y0296570D01*
X0223778Y0296508D01*
X0223826Y0296444D01*
X0223872Y0296377D01*
X0223913Y0296308D01*
X0223951Y0296237D01*
X0223986Y0296165D01*
X0224017Y0296090D01*
X0224045Y0296015D01*
X0224068Y0295938D01*
X0224088Y0295859D01*
X0224104Y0295780D01*
X0224116Y0295701D01*
X0224124Y0295621D01*
X0224128Y0295540D01*
X0224128Y0295460D01*
X0224124Y0295379D01*
X0224116Y0295299D01*
X0224104Y0295220D01*
X0224088Y0295141D01*
X0224068Y0295062D01*
X0224045Y0294985D01*
X0224017Y0294910D01*
X0223986Y0294835D01*
X0223951Y0294763D01*
X0223913Y0294692D01*
X0223872Y0294623D01*
X0223826Y0294556D01*
X0223778Y0294492D01*
X0223727Y0294430D01*
X0223672Y0294370D01*
X0223615Y0294314D01*
X0223555Y0294260D01*
X0223492Y0294209D01*
X0223427Y0294162D01*
X0223360Y0294118D01*
X0223291Y0294077D01*
X0223219Y0294040D01*
X0223146Y0294006D01*
X0223071Y0293976D01*
X0222995Y0293949D01*
X0222918Y0293927D01*
X0222840Y0293908D01*
X0222761Y0293893D01*
X0222681Y0293882D01*
X0222601Y0293875D01*
X0222520Y0293872D01*
X0222440Y0293873D01*
X0222359Y0293878D01*
X0222279Y0293887D01*
X0222200Y0293900D01*
X0222121Y0293917D01*
X0222043Y0293937D01*
X0221966Y0293962D01*
X0221891Y0293990D01*
X0221817Y0294022D01*
X0221745Y0294058D01*
X0221674Y0294097D01*
X0221606Y0294139D01*
X0221540Y0294185D01*
X0221476Y0294234D01*
X0221415Y0294287D01*
X0221356Y0294342D01*
X0221300Y0294400D01*
X0221247Y0294460D01*
X0221197Y0294524D01*
X0221151Y0294589D01*
X0221107Y0294657D01*
X0221067Y0294727D01*
X0221031Y0294799D01*
X0220998Y0294872D01*
X0220969Y0294947D01*
X0220943Y0295024D01*
X0220922Y0295101D01*
X0220904Y0295180D01*
X0220890Y0295259D01*
X0220880Y0295339D01*
X0220874Y0295419D01*
X0220872Y0295500D01*
X0219000Y0293300D02*
X0221500Y0290800D01*
X0221500Y0285800D01*
X0219000Y0283300D01*
X0214000Y0283300D01*
X0211500Y0285800D01*
X0209000Y0283300D01*
X0204000Y0283300D01*
X0201500Y0285800D01*
X0199000Y0283300D01*
X0194000Y0283300D01*
X0191500Y0285800D01*
X0191500Y0290800D01*
X0194000Y0293300D01*
X0199000Y0293300D01*
X0201500Y0290800D01*
X0204000Y0293300D01*
X0209000Y0293300D01*
X0211500Y0290800D01*
X0214000Y0293300D01*
X0219000Y0293300D01*
X0211500Y0290800D02*
X0211500Y0285800D01*
X0201500Y0285800D02*
X0201500Y0290800D01*
X0384000Y0248300D02*
X0384000Y0238300D01*
X0384000Y0228300D01*
X0384000Y0218300D01*
X0384000Y0208300D01*
X0384000Y0198300D01*
X0384000Y0188300D01*
X0384000Y0178300D01*
X0384000Y0168300D01*
X0384000Y0158300D01*
X0384000Y0148300D01*
X0384000Y0138300D01*
X0384000Y0128300D01*
X0384000Y0118300D01*
X0384000Y0108300D01*
X0384000Y0098300D01*
X0384000Y0088300D01*
X0384000Y0078300D01*
X0384000Y0068300D01*
X0384000Y0058300D01*
X0384000Y0048300D01*
X0384000Y0038300D01*
X0384000Y0028300D01*
X0384000Y0018300D01*
X0384000Y0008300D01*
X0394000Y0008300D01*
X0394000Y0018300D01*
X0394000Y0028300D01*
X0394000Y0038300D01*
X0394000Y0048300D01*
X0394000Y0058300D01*
X0394000Y0068300D01*
X0394000Y0078300D01*
X0394000Y0088300D01*
X0394000Y0098300D01*
X0394000Y0108300D01*
X0394000Y0118300D01*
X0394000Y0128300D01*
X0394000Y0138300D01*
X0394000Y0148300D01*
X0394000Y0158300D01*
X0394000Y0168300D01*
X0394000Y0178300D01*
X0394000Y0188300D01*
X0394000Y0198300D01*
X0394000Y0208300D01*
X0394000Y0218300D01*
X0394000Y0228300D01*
X0394000Y0238300D01*
X0394000Y0248300D01*
X0384000Y0248300D01*
X0384000Y0238300D02*
X0394000Y0238300D01*
X0394000Y0228300D02*
X0384000Y0228300D01*
X0384000Y0218300D02*
X0394000Y0218300D01*
X0394000Y0208300D02*
X0384000Y0208300D01*
X0384000Y0198300D02*
X0394000Y0198300D01*
X0394000Y0188300D02*
X0384000Y0188300D01*
X0384000Y0178300D02*
X0394000Y0178300D01*
X0394000Y0168300D02*
X0384000Y0168300D01*
X0384000Y0158300D02*
X0394000Y0158300D01*
X0394000Y0148300D02*
X0384000Y0148300D01*
X0384000Y0138300D02*
X0394000Y0138300D01*
X0394000Y0128300D02*
X0384000Y0128300D01*
X0384000Y0118300D02*
X0394000Y0118300D01*
X0394000Y0108300D02*
X0384000Y0108300D01*
X0384000Y0098300D02*
X0394000Y0098300D01*
X0394000Y0088300D02*
X0384000Y0088300D01*
X0384000Y0078300D02*
X0394000Y0078300D01*
X0394000Y0068300D02*
X0384000Y0068300D01*
X0384000Y0058300D02*
X0394000Y0058300D01*
X0394000Y0048300D02*
X0384000Y0048300D01*
X0384000Y0038300D02*
X0394000Y0038300D01*
X0394000Y0028300D02*
X0384000Y0028300D01*
X0384000Y0018300D02*
X0394000Y0018300D01*
X0353000Y0058300D02*
X0330000Y0058300D01*
X0330000Y0138300D01*
X0337500Y0138300D01*
X0337502Y0138174D01*
X0337508Y0138049D01*
X0337518Y0137924D01*
X0337532Y0137799D01*
X0337549Y0137674D01*
X0337571Y0137550D01*
X0337596Y0137427D01*
X0337626Y0137305D01*
X0337659Y0137184D01*
X0337696Y0137064D01*
X0337736Y0136945D01*
X0337781Y0136828D01*
X0337829Y0136711D01*
X0337881Y0136597D01*
X0337936Y0136484D01*
X0337995Y0136373D01*
X0338057Y0136264D01*
X0338123Y0136157D01*
X0338192Y0136052D01*
X0338264Y0135949D01*
X0338339Y0135848D01*
X0338418Y0135750D01*
X0338500Y0135655D01*
X0338584Y0135562D01*
X0338672Y0135472D01*
X0338762Y0135384D01*
X0338855Y0135300D01*
X0338950Y0135218D01*
X0339048Y0135139D01*
X0339149Y0135064D01*
X0339252Y0134992D01*
X0339357Y0134923D01*
X0339464Y0134857D01*
X0339573Y0134795D01*
X0339684Y0134736D01*
X0339797Y0134681D01*
X0339911Y0134629D01*
X0340028Y0134581D01*
X0340145Y0134536D01*
X0340264Y0134496D01*
X0340384Y0134459D01*
X0340505Y0134426D01*
X0340627Y0134396D01*
X0340750Y0134371D01*
X0340874Y0134349D01*
X0340999Y0134332D01*
X0341124Y0134318D01*
X0341249Y0134308D01*
X0341374Y0134302D01*
X0341500Y0134300D01*
X0341626Y0134302D01*
X0341751Y0134308D01*
X0341876Y0134318D01*
X0342001Y0134332D01*
X0342126Y0134349D01*
X0342250Y0134371D01*
X0342373Y0134396D01*
X0342495Y0134426D01*
X0342616Y0134459D01*
X0342736Y0134496D01*
X0342855Y0134536D01*
X0342972Y0134581D01*
X0343089Y0134629D01*
X0343203Y0134681D01*
X0343316Y0134736D01*
X0343427Y0134795D01*
X0343536Y0134857D01*
X0343643Y0134923D01*
X0343748Y0134992D01*
X0343851Y0135064D01*
X0343952Y0135139D01*
X0344050Y0135218D01*
X0344145Y0135300D01*
X0344238Y0135384D01*
X0344328Y0135472D01*
X0344416Y0135562D01*
X0344500Y0135655D01*
X0344582Y0135750D01*
X0344661Y0135848D01*
X0344736Y0135949D01*
X0344808Y0136052D01*
X0344877Y0136157D01*
X0344943Y0136264D01*
X0345005Y0136373D01*
X0345064Y0136484D01*
X0345119Y0136597D01*
X0345171Y0136711D01*
X0345219Y0136828D01*
X0345264Y0136945D01*
X0345304Y0137064D01*
X0345341Y0137184D01*
X0345374Y0137305D01*
X0345404Y0137427D01*
X0345429Y0137550D01*
X0345451Y0137674D01*
X0345468Y0137799D01*
X0345482Y0137924D01*
X0345492Y0138049D01*
X0345498Y0138174D01*
X0345500Y0138300D01*
X0353000Y0138300D01*
X0353000Y0058300D01*
X0067500Y0129800D02*
X0067500Y0146800D01*
X0067498Y0146860D01*
X0067493Y0146921D01*
X0067484Y0146980D01*
X0067471Y0147039D01*
X0067455Y0147098D01*
X0067435Y0147155D01*
X0067412Y0147210D01*
X0067385Y0147265D01*
X0067356Y0147317D01*
X0067323Y0147368D01*
X0067287Y0147417D01*
X0067249Y0147463D01*
X0067207Y0147507D01*
X0067163Y0147549D01*
X0067117Y0147587D01*
X0067068Y0147623D01*
X0067017Y0147656D01*
X0066965Y0147685D01*
X0066910Y0147712D01*
X0066855Y0147735D01*
X0066798Y0147755D01*
X0066739Y0147771D01*
X0066680Y0147784D01*
X0066621Y0147793D01*
X0066560Y0147798D01*
X0066500Y0147800D01*
X0056500Y0147800D01*
X0056440Y0147798D01*
X0056379Y0147793D01*
X0056320Y0147784D01*
X0056261Y0147771D01*
X0056202Y0147755D01*
X0056145Y0147735D01*
X0056090Y0147712D01*
X0056035Y0147685D01*
X0055983Y0147656D01*
X0055932Y0147623D01*
X0055883Y0147587D01*
X0055837Y0147549D01*
X0055793Y0147507D01*
X0055751Y0147463D01*
X0055713Y0147417D01*
X0055677Y0147368D01*
X0055644Y0147317D01*
X0055615Y0147265D01*
X0055588Y0147210D01*
X0055565Y0147155D01*
X0055545Y0147098D01*
X0055529Y0147039D01*
X0055516Y0146980D01*
X0055507Y0146921D01*
X0055502Y0146860D01*
X0055500Y0146800D01*
X0055500Y0129800D01*
X0055502Y0129740D01*
X0055507Y0129679D01*
X0055516Y0129620D01*
X0055529Y0129561D01*
X0055545Y0129502D01*
X0055565Y0129445D01*
X0055588Y0129390D01*
X0055615Y0129335D01*
X0055644Y0129283D01*
X0055677Y0129232D01*
X0055713Y0129183D01*
X0055751Y0129137D01*
X0055793Y0129093D01*
X0055837Y0129051D01*
X0055883Y0129013D01*
X0055932Y0128977D01*
X0055983Y0128944D01*
X0056035Y0128915D01*
X0056090Y0128888D01*
X0056145Y0128865D01*
X0056202Y0128845D01*
X0056261Y0128829D01*
X0056320Y0128816D01*
X0056379Y0128807D01*
X0056440Y0128802D01*
X0056500Y0128800D01*
X0066500Y0128800D01*
X0066560Y0128802D01*
X0066621Y0128807D01*
X0066680Y0128816D01*
X0066739Y0128829D01*
X0066798Y0128845D01*
X0066855Y0128865D01*
X0066910Y0128888D01*
X0066965Y0128915D01*
X0067017Y0128944D01*
X0067068Y0128977D01*
X0067117Y0129013D01*
X0067163Y0129051D01*
X0067207Y0129093D01*
X0067249Y0129137D01*
X0067287Y0129183D01*
X0067323Y0129232D01*
X0067356Y0129283D01*
X0067385Y0129335D01*
X0067412Y0129390D01*
X0067435Y0129445D01*
X0067455Y0129502D01*
X0067471Y0129561D01*
X0067484Y0129620D01*
X0067493Y0129679D01*
X0067498Y0129740D01*
X0067500Y0129800D01*
X0061500Y0136800D02*
X0061500Y0137300D01*
X0061500Y0139300D02*
X0061500Y0139800D01*
D91*
X0061500Y0139300D02*
X0064500Y0139300D01*
X0064500Y0137300D02*
X0061500Y0137300D01*
X0058500Y0137300D01*
X0058500Y0139300D02*
X0061500Y0139300D01*
X0095500Y0220300D02*
X0095500Y0223300D01*
X0095500Y0226300D01*
X0097500Y0226300D02*
X0097500Y0223300D01*
X0097500Y0220300D01*
X0135500Y0245300D02*
X0135500Y0248300D01*
X0135500Y0251300D01*
X0137500Y0251300D02*
X0137500Y0248300D01*
X0137500Y0245300D01*
X0200500Y0211300D02*
X0200500Y0208300D01*
X0200500Y0205300D01*
X0202500Y0205300D02*
X0202500Y0208300D01*
X0202500Y0211300D01*
X0258500Y0019300D02*
X0261500Y0019300D01*
X0264500Y0019300D01*
X0264500Y0017300D02*
X0261500Y0017300D01*
X0258500Y0017300D01*
X0167500Y0016300D02*
X0167500Y0013300D01*
X0167500Y0010300D01*
X0165500Y0010300D02*
X0165500Y0013300D01*
X0165500Y0016300D01*
D92*
X0204550Y0015910D02*
X0204550Y0013910D01*
X0209050Y0013910D01*
X0209050Y0015910D01*
X0209050Y0017800D02*
X0204550Y0017800D01*
X0209050Y0020300D01*
X0204550Y0020300D01*
X0206550Y0015410D02*
X0206550Y0013910D01*
X0207050Y0010783D02*
X0209050Y0011783D01*
X0207050Y0010533D02*
X0207050Y0009283D01*
X0207050Y0010533D02*
X0207048Y0010602D01*
X0207042Y0010671D01*
X0207033Y0010739D01*
X0207020Y0010806D01*
X0207003Y0010873D01*
X0206982Y0010939D01*
X0206958Y0011003D01*
X0206930Y0011066D01*
X0206899Y0011128D01*
X0206865Y0011188D01*
X0206827Y0011245D01*
X0206786Y0011301D01*
X0206743Y0011354D01*
X0206696Y0011405D01*
X0206647Y0011453D01*
X0206595Y0011498D01*
X0206540Y0011540D01*
X0206484Y0011579D01*
X0206425Y0011616D01*
X0206364Y0011648D01*
X0206302Y0011678D01*
X0206238Y0011704D01*
X0206173Y0011726D01*
X0206107Y0011745D01*
X0206040Y0011760D01*
X0205972Y0011771D01*
X0205903Y0011779D01*
X0205834Y0011783D01*
X0205766Y0011783D01*
X0205697Y0011779D01*
X0205628Y0011771D01*
X0205560Y0011760D01*
X0205493Y0011745D01*
X0205427Y0011726D01*
X0205362Y0011704D01*
X0205298Y0011678D01*
X0205236Y0011648D01*
X0205175Y0011616D01*
X0205116Y0011579D01*
X0205060Y0011540D01*
X0205005Y0011498D01*
X0204953Y0011453D01*
X0204904Y0011405D01*
X0204857Y0011354D01*
X0204814Y0011301D01*
X0204773Y0011245D01*
X0204735Y0011188D01*
X0204701Y0011128D01*
X0204670Y0011066D01*
X0204642Y0011003D01*
X0204618Y0010939D01*
X0204597Y0010873D01*
X0204580Y0010806D01*
X0204567Y0010739D01*
X0204558Y0010671D01*
X0204552Y0010602D01*
X0204550Y0010533D01*
X0204550Y0009283D01*
X0209050Y0009283D01*
X0209050Y0006250D02*
X0206050Y0005250D01*
X0209050Y0004250D01*
X0204550Y0003250D01*
X0204550Y0007250D02*
X0209050Y0006250D01*
X0303950Y0007050D02*
X0303950Y0008300D01*
X0303952Y0008362D01*
X0303958Y0008423D01*
X0303967Y0008484D01*
X0303980Y0008544D01*
X0303997Y0008603D01*
X0304018Y0008661D01*
X0304042Y0008718D01*
X0304069Y0008773D01*
X0304100Y0008826D01*
X0304134Y0008878D01*
X0304171Y0008927D01*
X0304211Y0008974D01*
X0304254Y0009018D01*
X0304299Y0009059D01*
X0304347Y0009098D01*
X0304398Y0009134D01*
X0304450Y0009166D01*
X0304504Y0009195D01*
X0304560Y0009221D01*
X0304618Y0009243D01*
X0304676Y0009262D01*
X0304736Y0009277D01*
X0304797Y0009288D01*
X0304858Y0009296D01*
X0304919Y0009300D01*
X0304981Y0009300D01*
X0305042Y0009296D01*
X0305103Y0009288D01*
X0305164Y0009277D01*
X0305224Y0009262D01*
X0305282Y0009243D01*
X0305340Y0009221D01*
X0305396Y0009195D01*
X0305450Y0009166D01*
X0305502Y0009134D01*
X0305553Y0009098D01*
X0305601Y0009059D01*
X0305646Y0009018D01*
X0305689Y0008974D01*
X0305729Y0008927D01*
X0305766Y0008878D01*
X0305800Y0008826D01*
X0305831Y0008773D01*
X0305858Y0008718D01*
X0305882Y0008661D01*
X0305903Y0008603D01*
X0305920Y0008544D01*
X0305933Y0008484D01*
X0305942Y0008423D01*
X0305948Y0008362D01*
X0305950Y0008300D01*
X0305950Y0007050D01*
X0305950Y0008300D02*
X0305952Y0008369D01*
X0305958Y0008438D01*
X0305967Y0008506D01*
X0305980Y0008573D01*
X0305997Y0008640D01*
X0306018Y0008706D01*
X0306042Y0008770D01*
X0306070Y0008833D01*
X0306101Y0008895D01*
X0306135Y0008955D01*
X0306173Y0009012D01*
X0306214Y0009068D01*
X0306257Y0009121D01*
X0306304Y0009172D01*
X0306353Y0009220D01*
X0306405Y0009265D01*
X0306460Y0009307D01*
X0306516Y0009346D01*
X0306575Y0009383D01*
X0306636Y0009415D01*
X0306698Y0009445D01*
X0306762Y0009471D01*
X0306827Y0009493D01*
X0306893Y0009512D01*
X0306960Y0009527D01*
X0307028Y0009538D01*
X0307097Y0009546D01*
X0307166Y0009550D01*
X0307234Y0009550D01*
X0307303Y0009546D01*
X0307372Y0009538D01*
X0307440Y0009527D01*
X0307507Y0009512D01*
X0307573Y0009493D01*
X0307638Y0009471D01*
X0307702Y0009445D01*
X0307764Y0009415D01*
X0307825Y0009383D01*
X0307884Y0009346D01*
X0307940Y0009307D01*
X0307995Y0009265D01*
X0308047Y0009220D01*
X0308096Y0009172D01*
X0308143Y0009121D01*
X0308186Y0009068D01*
X0308227Y0009012D01*
X0308265Y0008955D01*
X0308299Y0008895D01*
X0308330Y0008833D01*
X0308358Y0008770D01*
X0308382Y0008706D01*
X0308403Y0008640D01*
X0308420Y0008573D01*
X0308433Y0008506D01*
X0308442Y0008438D01*
X0308448Y0008369D01*
X0308450Y0008300D01*
X0308450Y0007050D01*
X0303950Y0007050D01*
X0303950Y0012575D02*
X0308450Y0014075D01*
X0307325Y0013700D02*
X0307325Y0011450D01*
X0308450Y0011075D02*
X0303950Y0012575D01*
X0303950Y0015975D02*
X0308450Y0018475D01*
X0303950Y0018475D01*
X0303950Y0020850D02*
X0308450Y0020850D01*
X0306700Y0020850D02*
X0303950Y0023350D01*
X0305700Y0021850D02*
X0308450Y0023350D01*
X0308450Y0015975D02*
X0303950Y0015975D01*
X0321450Y0025750D02*
X0321450Y0030250D01*
X0322700Y0030250D01*
X0322769Y0030248D01*
X0322838Y0030242D01*
X0322906Y0030233D01*
X0322973Y0030220D01*
X0323040Y0030203D01*
X0323106Y0030182D01*
X0323170Y0030158D01*
X0323233Y0030130D01*
X0323295Y0030099D01*
X0323355Y0030065D01*
X0323412Y0030027D01*
X0323468Y0029986D01*
X0323521Y0029943D01*
X0323572Y0029896D01*
X0323620Y0029847D01*
X0323665Y0029795D01*
X0323707Y0029740D01*
X0323746Y0029684D01*
X0323783Y0029625D01*
X0323815Y0029564D01*
X0323845Y0029502D01*
X0323871Y0029438D01*
X0323893Y0029373D01*
X0323912Y0029307D01*
X0323927Y0029240D01*
X0323938Y0029172D01*
X0323946Y0029103D01*
X0323950Y0029034D01*
X0323950Y0028966D01*
X0323946Y0028897D01*
X0323938Y0028828D01*
X0323927Y0028760D01*
X0323912Y0028693D01*
X0323893Y0028627D01*
X0323871Y0028562D01*
X0323845Y0028498D01*
X0323815Y0028436D01*
X0323783Y0028375D01*
X0323746Y0028316D01*
X0323707Y0028260D01*
X0323665Y0028205D01*
X0323620Y0028153D01*
X0323572Y0028104D01*
X0323521Y0028057D01*
X0323468Y0028014D01*
X0323412Y0027973D01*
X0323355Y0027935D01*
X0323295Y0027901D01*
X0323233Y0027870D01*
X0323170Y0027842D01*
X0323106Y0027818D01*
X0323040Y0027797D01*
X0322973Y0027780D01*
X0322906Y0027767D01*
X0322838Y0027758D01*
X0322769Y0027752D01*
X0322700Y0027750D01*
X0321450Y0027750D01*
X0325725Y0027000D02*
X0325725Y0029000D01*
X0325727Y0029069D01*
X0325733Y0029138D01*
X0325742Y0029206D01*
X0325755Y0029273D01*
X0325772Y0029340D01*
X0325793Y0029406D01*
X0325817Y0029470D01*
X0325845Y0029533D01*
X0325876Y0029595D01*
X0325910Y0029655D01*
X0325948Y0029712D01*
X0325989Y0029768D01*
X0326032Y0029821D01*
X0326079Y0029872D01*
X0326128Y0029920D01*
X0326180Y0029965D01*
X0326235Y0030007D01*
X0326291Y0030046D01*
X0326350Y0030083D01*
X0326411Y0030115D01*
X0326473Y0030145D01*
X0326537Y0030171D01*
X0326602Y0030193D01*
X0326668Y0030212D01*
X0326735Y0030227D01*
X0326803Y0030238D01*
X0326872Y0030246D01*
X0326941Y0030250D01*
X0327009Y0030250D01*
X0327078Y0030246D01*
X0327147Y0030238D01*
X0327215Y0030227D01*
X0327282Y0030212D01*
X0327348Y0030193D01*
X0327413Y0030171D01*
X0327477Y0030145D01*
X0327539Y0030115D01*
X0327600Y0030083D01*
X0327659Y0030046D01*
X0327715Y0030007D01*
X0327770Y0029965D01*
X0327822Y0029920D01*
X0327871Y0029872D01*
X0327918Y0029821D01*
X0327961Y0029768D01*
X0328002Y0029712D01*
X0328040Y0029655D01*
X0328074Y0029595D01*
X0328105Y0029533D01*
X0328133Y0029470D01*
X0328157Y0029406D01*
X0328178Y0029340D01*
X0328195Y0029273D01*
X0328208Y0029206D01*
X0328217Y0029138D01*
X0328223Y0029069D01*
X0328225Y0029000D01*
X0328225Y0027000D01*
X0328223Y0026931D01*
X0328217Y0026862D01*
X0328208Y0026794D01*
X0328195Y0026727D01*
X0328178Y0026660D01*
X0328157Y0026594D01*
X0328133Y0026530D01*
X0328105Y0026467D01*
X0328074Y0026405D01*
X0328040Y0026345D01*
X0328002Y0026288D01*
X0327961Y0026232D01*
X0327918Y0026179D01*
X0327871Y0026128D01*
X0327822Y0026080D01*
X0327770Y0026035D01*
X0327715Y0025993D01*
X0327659Y0025954D01*
X0327600Y0025917D01*
X0327539Y0025885D01*
X0327477Y0025855D01*
X0327413Y0025829D01*
X0327348Y0025807D01*
X0327282Y0025788D01*
X0327215Y0025773D01*
X0327147Y0025762D01*
X0327078Y0025754D01*
X0327009Y0025750D01*
X0326941Y0025750D01*
X0326872Y0025754D01*
X0326803Y0025762D01*
X0326735Y0025773D01*
X0326668Y0025788D01*
X0326602Y0025807D01*
X0326537Y0025829D01*
X0326473Y0025855D01*
X0326411Y0025885D01*
X0326350Y0025917D01*
X0326291Y0025954D01*
X0326235Y0025993D01*
X0326180Y0026035D01*
X0326128Y0026080D01*
X0326079Y0026128D01*
X0326032Y0026179D01*
X0325989Y0026232D01*
X0325948Y0026288D01*
X0325910Y0026345D01*
X0325876Y0026405D01*
X0325845Y0026467D01*
X0325817Y0026530D01*
X0325793Y0026594D01*
X0325772Y0026660D01*
X0325755Y0026727D01*
X0325742Y0026794D01*
X0325733Y0026862D01*
X0325727Y0026931D01*
X0325725Y0027000D01*
X0330075Y0030250D02*
X0331075Y0025750D01*
X0332075Y0028750D01*
X0333075Y0025750D01*
X0334075Y0030250D01*
X0336085Y0030250D02*
X0338085Y0030250D01*
X0340008Y0030250D02*
X0341258Y0030250D01*
X0341327Y0030248D01*
X0341396Y0030242D01*
X0341464Y0030233D01*
X0341531Y0030220D01*
X0341598Y0030203D01*
X0341664Y0030182D01*
X0341728Y0030158D01*
X0341791Y0030130D01*
X0341853Y0030099D01*
X0341913Y0030065D01*
X0341970Y0030027D01*
X0342026Y0029986D01*
X0342079Y0029943D01*
X0342130Y0029896D01*
X0342178Y0029847D01*
X0342223Y0029795D01*
X0342265Y0029740D01*
X0342304Y0029684D01*
X0342341Y0029625D01*
X0342373Y0029564D01*
X0342403Y0029502D01*
X0342429Y0029438D01*
X0342451Y0029373D01*
X0342470Y0029307D01*
X0342485Y0029240D01*
X0342496Y0029172D01*
X0342504Y0029103D01*
X0342508Y0029034D01*
X0342508Y0028966D01*
X0342504Y0028897D01*
X0342496Y0028828D01*
X0342485Y0028760D01*
X0342470Y0028693D01*
X0342451Y0028627D01*
X0342429Y0028562D01*
X0342403Y0028498D01*
X0342373Y0028436D01*
X0342341Y0028375D01*
X0342304Y0028316D01*
X0342265Y0028260D01*
X0342223Y0028205D01*
X0342178Y0028153D01*
X0342130Y0028104D01*
X0342079Y0028057D01*
X0342026Y0028014D01*
X0341970Y0027973D01*
X0341913Y0027935D01*
X0341853Y0027901D01*
X0341791Y0027870D01*
X0341728Y0027842D01*
X0341664Y0027818D01*
X0341598Y0027797D01*
X0341531Y0027780D01*
X0341464Y0027767D01*
X0341396Y0027758D01*
X0341327Y0027752D01*
X0341258Y0027750D01*
X0340008Y0027750D01*
X0341508Y0027750D02*
X0342508Y0025750D01*
X0340008Y0025750D02*
X0340008Y0030250D01*
X0337585Y0028250D02*
X0336085Y0028250D01*
X0336085Y0030250D02*
X0336085Y0025750D01*
X0338085Y0025750D01*
X0321500Y0198300D02*
X0181500Y0198300D01*
X0181500Y0248300D01*
X0321500Y0248300D01*
X0321500Y0230800D01*
X0321317Y0230798D01*
X0321135Y0230791D01*
X0320953Y0230780D01*
X0320771Y0230764D01*
X0320589Y0230744D01*
X0320408Y0230720D01*
X0320228Y0230691D01*
X0320048Y0230658D01*
X0319869Y0230621D01*
X0319691Y0230579D01*
X0319515Y0230532D01*
X0319339Y0230482D01*
X0319165Y0230427D01*
X0318992Y0230368D01*
X0318821Y0230305D01*
X0318651Y0230238D01*
X0318483Y0230166D01*
X0318317Y0230091D01*
X0318152Y0230011D01*
X0317990Y0229928D01*
X0317829Y0229840D01*
X0317671Y0229749D01*
X0317515Y0229654D01*
X0317362Y0229555D01*
X0317211Y0229452D01*
X0317062Y0229346D01*
X0316916Y0229236D01*
X0316773Y0229123D01*
X0316633Y0229006D01*
X0316495Y0228886D01*
X0316361Y0228762D01*
X0316229Y0228635D01*
X0316101Y0228506D01*
X0315976Y0228373D01*
X0315854Y0228237D01*
X0315735Y0228098D01*
X0315620Y0227956D01*
X0315508Y0227811D01*
X0315400Y0227664D01*
X0315296Y0227514D01*
X0315195Y0227362D01*
X0315098Y0227207D01*
X0315005Y0227050D01*
X0314915Y0226891D01*
X0314830Y0226729D01*
X0314748Y0226566D01*
X0314671Y0226401D01*
X0314597Y0226233D01*
X0314528Y0226064D01*
X0314463Y0225894D01*
X0314402Y0225722D01*
X0314345Y0225548D01*
X0314292Y0225373D01*
X0314244Y0225197D01*
X0314200Y0225020D01*
X0314160Y0224841D01*
X0314125Y0224662D01*
X0314094Y0224482D01*
X0314067Y0224302D01*
X0314045Y0224120D01*
X0314027Y0223939D01*
X0314014Y0223756D01*
X0314005Y0223574D01*
X0314001Y0223391D01*
X0314001Y0223209D01*
X0314005Y0223026D01*
X0314014Y0222844D01*
X0314027Y0222661D01*
X0314045Y0222480D01*
X0314067Y0222298D01*
X0314094Y0222118D01*
X0314125Y0221938D01*
X0314160Y0221759D01*
X0314200Y0221580D01*
X0314244Y0221403D01*
X0314292Y0221227D01*
X0314345Y0221052D01*
X0314402Y0220878D01*
X0314463Y0220706D01*
X0314528Y0220536D01*
X0314597Y0220367D01*
X0314671Y0220199D01*
X0314748Y0220034D01*
X0314830Y0219871D01*
X0314915Y0219709D01*
X0315005Y0219550D01*
X0315098Y0219393D01*
X0315195Y0219238D01*
X0315296Y0219086D01*
X0315400Y0218936D01*
X0315508Y0218789D01*
X0315620Y0218644D01*
X0315735Y0218502D01*
X0315854Y0218363D01*
X0315976Y0218227D01*
X0316101Y0218094D01*
X0316229Y0217965D01*
X0316361Y0217838D01*
X0316495Y0217714D01*
X0316633Y0217594D01*
X0316773Y0217477D01*
X0316916Y0217364D01*
X0317062Y0217254D01*
X0317211Y0217148D01*
X0317362Y0217045D01*
X0317515Y0216946D01*
X0317671Y0216851D01*
X0317829Y0216760D01*
X0317990Y0216672D01*
X0318152Y0216589D01*
X0318317Y0216509D01*
X0318483Y0216434D01*
X0318651Y0216362D01*
X0318821Y0216295D01*
X0318992Y0216232D01*
X0319165Y0216173D01*
X0319339Y0216118D01*
X0319515Y0216068D01*
X0319691Y0216021D01*
X0319869Y0215979D01*
X0320048Y0215942D01*
X0320228Y0215909D01*
X0320408Y0215880D01*
X0320589Y0215856D01*
X0320771Y0215836D01*
X0320953Y0215820D01*
X0321135Y0215809D01*
X0321317Y0215802D01*
X0321500Y0215800D01*
X0321500Y0198300D01*
X0311500Y0240800D02*
X0311502Y0240899D01*
X0311508Y0240999D01*
X0311518Y0241098D01*
X0311532Y0241196D01*
X0311549Y0241294D01*
X0311571Y0241391D01*
X0311596Y0241487D01*
X0311625Y0241582D01*
X0311658Y0241676D01*
X0311695Y0241768D01*
X0311735Y0241859D01*
X0311779Y0241948D01*
X0311827Y0242036D01*
X0311878Y0242121D01*
X0311932Y0242204D01*
X0311989Y0242286D01*
X0312050Y0242364D01*
X0312114Y0242441D01*
X0312180Y0242514D01*
X0312250Y0242585D01*
X0312322Y0242653D01*
X0312397Y0242719D01*
X0312475Y0242781D01*
X0312555Y0242840D01*
X0312637Y0242896D01*
X0312721Y0242948D01*
X0312808Y0242997D01*
X0312896Y0243043D01*
X0312986Y0243085D01*
X0313078Y0243124D01*
X0313171Y0243159D01*
X0313265Y0243190D01*
X0313361Y0243217D01*
X0313458Y0243240D01*
X0313555Y0243260D01*
X0313653Y0243276D01*
X0313752Y0243288D01*
X0313851Y0243296D01*
X0313950Y0243300D01*
X0314050Y0243300D01*
X0314149Y0243296D01*
X0314248Y0243288D01*
X0314347Y0243276D01*
X0314445Y0243260D01*
X0314542Y0243240D01*
X0314639Y0243217D01*
X0314735Y0243190D01*
X0314829Y0243159D01*
X0314922Y0243124D01*
X0315014Y0243085D01*
X0315104Y0243043D01*
X0315192Y0242997D01*
X0315279Y0242948D01*
X0315363Y0242896D01*
X0315445Y0242840D01*
X0315525Y0242781D01*
X0315603Y0242719D01*
X0315678Y0242653D01*
X0315750Y0242585D01*
X0315820Y0242514D01*
X0315886Y0242441D01*
X0315950Y0242364D01*
X0316011Y0242286D01*
X0316068Y0242204D01*
X0316122Y0242121D01*
X0316173Y0242036D01*
X0316221Y0241948D01*
X0316265Y0241859D01*
X0316305Y0241768D01*
X0316342Y0241676D01*
X0316375Y0241582D01*
X0316404Y0241487D01*
X0316429Y0241391D01*
X0316451Y0241294D01*
X0316468Y0241196D01*
X0316482Y0241098D01*
X0316492Y0240999D01*
X0316498Y0240899D01*
X0316500Y0240800D01*
X0316498Y0240701D01*
X0316492Y0240601D01*
X0316482Y0240502D01*
X0316468Y0240404D01*
X0316451Y0240306D01*
X0316429Y0240209D01*
X0316404Y0240113D01*
X0316375Y0240018D01*
X0316342Y0239924D01*
X0316305Y0239832D01*
X0316265Y0239741D01*
X0316221Y0239652D01*
X0316173Y0239564D01*
X0316122Y0239479D01*
X0316068Y0239396D01*
X0316011Y0239314D01*
X0315950Y0239236D01*
X0315886Y0239159D01*
X0315820Y0239086D01*
X0315750Y0239015D01*
X0315678Y0238947D01*
X0315603Y0238881D01*
X0315525Y0238819D01*
X0315445Y0238760D01*
X0315363Y0238704D01*
X0315279Y0238652D01*
X0315192Y0238603D01*
X0315104Y0238557D01*
X0315014Y0238515D01*
X0314922Y0238476D01*
X0314829Y0238441D01*
X0314735Y0238410D01*
X0314639Y0238383D01*
X0314542Y0238360D01*
X0314445Y0238340D01*
X0314347Y0238324D01*
X0314248Y0238312D01*
X0314149Y0238304D01*
X0314050Y0238300D01*
X0313950Y0238300D01*
X0313851Y0238304D01*
X0313752Y0238312D01*
X0313653Y0238324D01*
X0313555Y0238340D01*
X0313458Y0238360D01*
X0313361Y0238383D01*
X0313265Y0238410D01*
X0313171Y0238441D01*
X0313078Y0238476D01*
X0312986Y0238515D01*
X0312896Y0238557D01*
X0312808Y0238603D01*
X0312721Y0238652D01*
X0312637Y0238704D01*
X0312555Y0238760D01*
X0312475Y0238819D01*
X0312397Y0238881D01*
X0312322Y0238947D01*
X0312250Y0239015D01*
X0312180Y0239086D01*
X0312114Y0239159D01*
X0312050Y0239236D01*
X0311989Y0239314D01*
X0311932Y0239396D01*
X0311878Y0239479D01*
X0311827Y0239564D01*
X0311779Y0239652D01*
X0311735Y0239741D01*
X0311695Y0239832D01*
X0311658Y0239924D01*
X0311625Y0240018D01*
X0311596Y0240113D01*
X0311571Y0240209D01*
X0311549Y0240306D01*
X0311532Y0240404D01*
X0311518Y0240502D01*
X0311508Y0240601D01*
X0311502Y0240701D01*
X0311500Y0240800D01*
X0367375Y0253675D02*
X0368750Y0252925D01*
X0368250Y0251049D02*
X0368162Y0251051D01*
X0368075Y0251056D01*
X0367987Y0251065D01*
X0367900Y0251078D01*
X0367814Y0251094D01*
X0367729Y0251114D01*
X0367644Y0251138D01*
X0367560Y0251165D01*
X0367478Y0251195D01*
X0367397Y0251229D01*
X0367317Y0251266D01*
X0367239Y0251306D01*
X0367163Y0251350D01*
X0367089Y0251397D01*
X0367017Y0251446D01*
X0366946Y0251499D01*
X0366878Y0251555D01*
X0366813Y0251613D01*
X0366750Y0251674D01*
X0368750Y0252925D02*
X0368802Y0252892D01*
X0368853Y0252856D01*
X0368901Y0252817D01*
X0368946Y0252775D01*
X0368989Y0252730D01*
X0369029Y0252682D01*
X0369066Y0252633D01*
X0369100Y0252581D01*
X0369131Y0252527D01*
X0369159Y0252471D01*
X0369183Y0252414D01*
X0369203Y0252355D01*
X0369220Y0252296D01*
X0369233Y0252235D01*
X0369242Y0252174D01*
X0369248Y0252112D01*
X0369250Y0252050D01*
X0369248Y0251990D01*
X0369243Y0251929D01*
X0369234Y0251870D01*
X0369221Y0251811D01*
X0369205Y0251752D01*
X0369185Y0251695D01*
X0369162Y0251640D01*
X0369135Y0251585D01*
X0369106Y0251533D01*
X0369073Y0251482D01*
X0369037Y0251433D01*
X0368999Y0251387D01*
X0368957Y0251343D01*
X0368913Y0251301D01*
X0368867Y0251263D01*
X0368818Y0251227D01*
X0368767Y0251194D01*
X0368715Y0251165D01*
X0368660Y0251138D01*
X0368605Y0251115D01*
X0368548Y0251095D01*
X0368489Y0251079D01*
X0368430Y0251066D01*
X0368371Y0251057D01*
X0368310Y0251052D01*
X0368250Y0251050D01*
X0369000Y0255175D02*
X0368935Y0255222D01*
X0368867Y0255266D01*
X0368798Y0255307D01*
X0368727Y0255345D01*
X0368655Y0255380D01*
X0368581Y0255412D01*
X0368506Y0255441D01*
X0368430Y0255466D01*
X0368352Y0255488D01*
X0368274Y0255507D01*
X0368195Y0255522D01*
X0368116Y0255534D01*
X0368036Y0255543D01*
X0367955Y0255548D01*
X0367875Y0255550D01*
X0367815Y0255548D01*
X0367754Y0255543D01*
X0367695Y0255534D01*
X0367636Y0255521D01*
X0367577Y0255505D01*
X0367520Y0255485D01*
X0367465Y0255462D01*
X0367410Y0255435D01*
X0367358Y0255406D01*
X0367307Y0255373D01*
X0367258Y0255337D01*
X0367212Y0255299D01*
X0367168Y0255257D01*
X0367126Y0255213D01*
X0367088Y0255167D01*
X0367052Y0255118D01*
X0367019Y0255067D01*
X0366990Y0255015D01*
X0366963Y0254960D01*
X0366940Y0254905D01*
X0366920Y0254848D01*
X0366904Y0254789D01*
X0366891Y0254730D01*
X0366882Y0254671D01*
X0366877Y0254610D01*
X0366875Y0254550D01*
X0366877Y0254488D01*
X0366883Y0254426D01*
X0366892Y0254365D01*
X0366905Y0254304D01*
X0366922Y0254245D01*
X0366942Y0254186D01*
X0366966Y0254129D01*
X0366994Y0254073D01*
X0367025Y0254019D01*
X0367059Y0253967D01*
X0367096Y0253918D01*
X0367136Y0253870D01*
X0367179Y0253825D01*
X0367224Y0253783D01*
X0367272Y0253744D01*
X0367323Y0253708D01*
X0367375Y0253675D01*
X0370850Y0255550D02*
X0372350Y0253425D01*
X0372350Y0251050D01*
X0372350Y0253425D02*
X0373850Y0255550D01*
X0375575Y0254550D02*
X0375577Y0254610D01*
X0375582Y0254671D01*
X0375591Y0254730D01*
X0375604Y0254789D01*
X0375620Y0254848D01*
X0375640Y0254905D01*
X0375663Y0254960D01*
X0375690Y0255015D01*
X0375719Y0255067D01*
X0375752Y0255118D01*
X0375788Y0255167D01*
X0375826Y0255213D01*
X0375868Y0255257D01*
X0375912Y0255299D01*
X0375958Y0255337D01*
X0376007Y0255373D01*
X0376058Y0255406D01*
X0376110Y0255435D01*
X0376165Y0255462D01*
X0376220Y0255485D01*
X0376277Y0255505D01*
X0376336Y0255521D01*
X0376395Y0255534D01*
X0376454Y0255543D01*
X0376515Y0255548D01*
X0376575Y0255550D01*
X0375575Y0254550D02*
X0375577Y0254488D01*
X0375583Y0254426D01*
X0375592Y0254365D01*
X0375605Y0254304D01*
X0375622Y0254245D01*
X0375642Y0254186D01*
X0375666Y0254129D01*
X0375694Y0254073D01*
X0375725Y0254019D01*
X0375759Y0253967D01*
X0375796Y0253918D01*
X0375836Y0253870D01*
X0375879Y0253825D01*
X0375924Y0253783D01*
X0375972Y0253744D01*
X0376023Y0253708D01*
X0376075Y0253675D01*
X0377450Y0252925D01*
X0376950Y0251049D02*
X0376862Y0251051D01*
X0376775Y0251056D01*
X0376687Y0251065D01*
X0376600Y0251078D01*
X0376514Y0251094D01*
X0376429Y0251114D01*
X0376344Y0251138D01*
X0376260Y0251165D01*
X0376178Y0251195D01*
X0376097Y0251229D01*
X0376017Y0251266D01*
X0375939Y0251306D01*
X0375863Y0251350D01*
X0375789Y0251397D01*
X0375717Y0251446D01*
X0375646Y0251499D01*
X0375578Y0251555D01*
X0375513Y0251613D01*
X0375450Y0251674D01*
X0377450Y0252925D02*
X0377502Y0252892D01*
X0377553Y0252856D01*
X0377601Y0252817D01*
X0377646Y0252775D01*
X0377689Y0252730D01*
X0377729Y0252682D01*
X0377766Y0252633D01*
X0377800Y0252581D01*
X0377831Y0252527D01*
X0377859Y0252471D01*
X0377883Y0252414D01*
X0377903Y0252355D01*
X0377920Y0252296D01*
X0377933Y0252235D01*
X0377942Y0252174D01*
X0377948Y0252112D01*
X0377950Y0252050D01*
X0377948Y0251990D01*
X0377943Y0251929D01*
X0377934Y0251870D01*
X0377921Y0251811D01*
X0377905Y0251752D01*
X0377885Y0251695D01*
X0377862Y0251640D01*
X0377835Y0251585D01*
X0377806Y0251533D01*
X0377773Y0251482D01*
X0377737Y0251433D01*
X0377699Y0251387D01*
X0377657Y0251343D01*
X0377613Y0251301D01*
X0377567Y0251263D01*
X0377518Y0251227D01*
X0377467Y0251194D01*
X0377415Y0251165D01*
X0377360Y0251138D01*
X0377305Y0251115D01*
X0377248Y0251095D01*
X0377189Y0251079D01*
X0377130Y0251066D01*
X0377071Y0251057D01*
X0377010Y0251052D01*
X0376950Y0251050D01*
X0377700Y0255175D02*
X0377635Y0255222D01*
X0377567Y0255266D01*
X0377498Y0255307D01*
X0377427Y0255345D01*
X0377355Y0255380D01*
X0377281Y0255412D01*
X0377206Y0255441D01*
X0377130Y0255466D01*
X0377052Y0255488D01*
X0376974Y0255507D01*
X0376895Y0255522D01*
X0376816Y0255534D01*
X0376736Y0255543D01*
X0376655Y0255548D01*
X0376575Y0255550D01*
X0379500Y0255550D02*
X0382000Y0255550D01*
X0380750Y0255550D02*
X0380750Y0251050D01*
X0383860Y0251050D02*
X0383860Y0255550D01*
X0385860Y0255550D01*
X0387800Y0255550D02*
X0387800Y0251050D01*
X0385860Y0251050D02*
X0383860Y0251050D01*
X0383860Y0253550D02*
X0385360Y0253550D01*
X0387800Y0255550D02*
X0389300Y0253050D01*
X0390800Y0255550D01*
X0390800Y0251050D01*
X0213710Y0295750D02*
X0211710Y0295750D01*
X0211710Y0300250D01*
X0208300Y0300250D02*
X0209800Y0295750D01*
X0209425Y0296875D02*
X0207175Y0296875D01*
X0206800Y0295750D02*
X0208300Y0300250D01*
X0205200Y0300250D02*
X0204200Y0300250D01*
X0204700Y0300250D02*
X0204700Y0295750D01*
X0204200Y0295750D02*
X0205200Y0295750D01*
X0202383Y0295750D02*
X0201383Y0297750D01*
X0201133Y0297750D02*
X0199883Y0297750D01*
X0201133Y0297750D02*
X0201202Y0297752D01*
X0201271Y0297758D01*
X0201339Y0297767D01*
X0201406Y0297780D01*
X0201473Y0297797D01*
X0201539Y0297818D01*
X0201603Y0297842D01*
X0201666Y0297870D01*
X0201728Y0297901D01*
X0201788Y0297935D01*
X0201845Y0297973D01*
X0201901Y0298014D01*
X0201954Y0298057D01*
X0202005Y0298104D01*
X0202053Y0298153D01*
X0202098Y0298205D01*
X0202140Y0298260D01*
X0202179Y0298316D01*
X0202216Y0298375D01*
X0202248Y0298436D01*
X0202278Y0298498D01*
X0202304Y0298562D01*
X0202326Y0298627D01*
X0202345Y0298693D01*
X0202360Y0298760D01*
X0202371Y0298828D01*
X0202379Y0298897D01*
X0202383Y0298966D01*
X0202383Y0299034D01*
X0202379Y0299103D01*
X0202371Y0299172D01*
X0202360Y0299240D01*
X0202345Y0299307D01*
X0202326Y0299373D01*
X0202304Y0299438D01*
X0202278Y0299502D01*
X0202248Y0299564D01*
X0202216Y0299625D01*
X0202179Y0299684D01*
X0202140Y0299740D01*
X0202098Y0299795D01*
X0202053Y0299847D01*
X0202005Y0299896D01*
X0201954Y0299943D01*
X0201901Y0299986D01*
X0201845Y0300027D01*
X0201788Y0300065D01*
X0201728Y0300099D01*
X0201666Y0300130D01*
X0201603Y0300158D01*
X0201539Y0300182D01*
X0201473Y0300203D01*
X0201406Y0300220D01*
X0201339Y0300233D01*
X0201271Y0300242D01*
X0201202Y0300248D01*
X0201133Y0300250D01*
X0199883Y0300250D01*
X0199883Y0295750D01*
X0197960Y0295750D02*
X0195960Y0295750D01*
X0195960Y0300250D01*
X0197960Y0300250D01*
X0197460Y0298250D02*
X0195960Y0298250D01*
X0193450Y0297625D02*
X0192075Y0298375D01*
X0192575Y0300250D02*
X0192655Y0300248D01*
X0192736Y0300243D01*
X0192816Y0300234D01*
X0192895Y0300222D01*
X0192974Y0300207D01*
X0193052Y0300188D01*
X0193130Y0300166D01*
X0193206Y0300141D01*
X0193281Y0300112D01*
X0193355Y0300080D01*
X0193427Y0300045D01*
X0193498Y0300007D01*
X0193567Y0299966D01*
X0193635Y0299922D01*
X0193700Y0299875D01*
X0192075Y0298375D02*
X0192023Y0298408D01*
X0191972Y0298444D01*
X0191924Y0298483D01*
X0191879Y0298525D01*
X0191836Y0298570D01*
X0191796Y0298618D01*
X0191759Y0298667D01*
X0191725Y0298719D01*
X0191694Y0298773D01*
X0191666Y0298829D01*
X0191642Y0298886D01*
X0191622Y0298945D01*
X0191605Y0299004D01*
X0191592Y0299065D01*
X0191583Y0299126D01*
X0191577Y0299188D01*
X0191575Y0299250D01*
X0191577Y0299310D01*
X0191582Y0299371D01*
X0191591Y0299430D01*
X0191604Y0299489D01*
X0191620Y0299548D01*
X0191640Y0299605D01*
X0191663Y0299660D01*
X0191690Y0299715D01*
X0191719Y0299767D01*
X0191752Y0299818D01*
X0191788Y0299867D01*
X0191826Y0299913D01*
X0191868Y0299957D01*
X0191912Y0299999D01*
X0191958Y0300037D01*
X0192007Y0300073D01*
X0192058Y0300106D01*
X0192110Y0300135D01*
X0192165Y0300162D01*
X0192220Y0300185D01*
X0192277Y0300205D01*
X0192336Y0300221D01*
X0192395Y0300234D01*
X0192454Y0300243D01*
X0192515Y0300248D01*
X0192575Y0300250D01*
X0191450Y0296375D02*
X0191513Y0296314D01*
X0191578Y0296256D01*
X0191646Y0296200D01*
X0191717Y0296147D01*
X0191789Y0296098D01*
X0191863Y0296051D01*
X0191939Y0296007D01*
X0192017Y0295967D01*
X0192097Y0295930D01*
X0192178Y0295896D01*
X0192260Y0295866D01*
X0192344Y0295839D01*
X0192429Y0295815D01*
X0192514Y0295795D01*
X0192600Y0295779D01*
X0192687Y0295766D01*
X0192775Y0295757D01*
X0192862Y0295752D01*
X0192950Y0295750D01*
X0193010Y0295752D01*
X0193071Y0295757D01*
X0193130Y0295766D01*
X0193189Y0295779D01*
X0193248Y0295795D01*
X0193305Y0295815D01*
X0193360Y0295838D01*
X0193415Y0295865D01*
X0193467Y0295894D01*
X0193518Y0295927D01*
X0193567Y0295963D01*
X0193613Y0296001D01*
X0193657Y0296043D01*
X0193699Y0296087D01*
X0193737Y0296133D01*
X0193773Y0296182D01*
X0193806Y0296233D01*
X0193835Y0296285D01*
X0193862Y0296340D01*
X0193885Y0296395D01*
X0193905Y0296452D01*
X0193921Y0296511D01*
X0193934Y0296570D01*
X0193943Y0296629D01*
X0193948Y0296690D01*
X0193950Y0296750D01*
X0193948Y0296812D01*
X0193942Y0296874D01*
X0193933Y0296935D01*
X0193920Y0296996D01*
X0193903Y0297055D01*
X0193883Y0297114D01*
X0193859Y0297171D01*
X0193831Y0297227D01*
X0193800Y0297281D01*
X0193766Y0297333D01*
X0193729Y0297382D01*
X0193689Y0297430D01*
X0193646Y0297475D01*
X0193601Y0297517D01*
X0193553Y0297556D01*
X0193502Y0297592D01*
X0193450Y0297625D01*
X0074098Y0232454D02*
X0048902Y0232454D01*
X0048679Y0232451D01*
X0048456Y0232443D01*
X0048234Y0232430D01*
X0048012Y0232411D01*
X0047790Y0232386D01*
X0047569Y0232356D01*
X0047349Y0232321D01*
X0047130Y0232281D01*
X0046912Y0232235D01*
X0046695Y0232184D01*
X0046479Y0232127D01*
X0046265Y0232066D01*
X0046052Y0231999D01*
X0045841Y0231927D01*
X0045632Y0231850D01*
X0045425Y0231768D01*
X0045220Y0231681D01*
X0045017Y0231588D01*
X0044816Y0231491D01*
X0044618Y0231389D01*
X0044422Y0231283D01*
X0044229Y0231171D01*
X0044039Y0231055D01*
X0043851Y0230934D01*
X0043667Y0230809D01*
X0043485Y0230679D01*
X0043307Y0230545D01*
X0043133Y0230407D01*
X0042961Y0230264D01*
X0042793Y0230118D01*
X0042629Y0229967D01*
X0042469Y0229812D01*
X0042312Y0229654D01*
X0042159Y0229491D01*
X0042010Y0229325D01*
X0041866Y0229156D01*
X0041725Y0228982D01*
X0041589Y0228806D01*
X0041457Y0228626D01*
X0041330Y0228443D01*
X0041207Y0228258D01*
X0041088Y0228069D01*
X0040974Y0227877D01*
X0040865Y0227683D01*
X0040761Y0227486D01*
X0040661Y0227286D01*
X0040567Y0227084D01*
X0040477Y0226880D01*
X0040392Y0226674D01*
X0040313Y0226466D01*
X0040238Y0226256D01*
X0040169Y0226044D01*
X0040105Y0225830D01*
X0040046Y0225615D01*
X0039992Y0225399D01*
X0039943Y0225181D01*
X0039900Y0224963D01*
X0039862Y0224743D01*
X0039830Y0224522D01*
X0039803Y0224301D01*
X0039781Y0224079D01*
X0039765Y0223857D01*
X0039754Y0223634D01*
X0039749Y0223411D01*
X0039749Y0223189D01*
X0039754Y0222966D01*
X0039765Y0222743D01*
X0039781Y0222521D01*
X0039803Y0222299D01*
X0039830Y0222078D01*
X0039862Y0221857D01*
X0039900Y0221637D01*
X0039943Y0221419D01*
X0039992Y0221201D01*
X0040046Y0220985D01*
X0040105Y0220770D01*
X0040169Y0220556D01*
X0040238Y0220344D01*
X0040313Y0220134D01*
X0040392Y0219926D01*
X0040477Y0219720D01*
X0040567Y0219516D01*
X0040661Y0219314D01*
X0040761Y0219114D01*
X0040865Y0218917D01*
X0040974Y0218723D01*
X0041088Y0218531D01*
X0041207Y0218342D01*
X0041330Y0218157D01*
X0041457Y0217974D01*
X0041589Y0217794D01*
X0041725Y0217618D01*
X0041866Y0217444D01*
X0042010Y0217275D01*
X0042159Y0217109D01*
X0042312Y0216946D01*
X0042469Y0216788D01*
X0042629Y0216633D01*
X0042793Y0216482D01*
X0042961Y0216336D01*
X0043133Y0216193D01*
X0043307Y0216055D01*
X0043485Y0215921D01*
X0043667Y0215791D01*
X0043851Y0215666D01*
X0044039Y0215545D01*
X0044229Y0215429D01*
X0044422Y0215317D01*
X0044618Y0215211D01*
X0044816Y0215109D01*
X0045017Y0215012D01*
X0045220Y0214919D01*
X0045425Y0214832D01*
X0045632Y0214750D01*
X0045841Y0214673D01*
X0046052Y0214601D01*
X0046265Y0214534D01*
X0046479Y0214473D01*
X0046695Y0214416D01*
X0046912Y0214365D01*
X0047130Y0214319D01*
X0047349Y0214279D01*
X0047569Y0214244D01*
X0047790Y0214214D01*
X0048012Y0214189D01*
X0048234Y0214170D01*
X0048456Y0214157D01*
X0048679Y0214149D01*
X0048902Y0214146D01*
X0074098Y0214146D01*
X0069000Y0208300D02*
X0086500Y0208300D01*
X0086500Y0008300D01*
X0036500Y0008300D01*
X0036500Y0208300D01*
X0054000Y0208300D01*
X0054002Y0208117D01*
X0054009Y0207935D01*
X0054020Y0207753D01*
X0054036Y0207571D01*
X0054056Y0207389D01*
X0054080Y0207208D01*
X0054109Y0207028D01*
X0054142Y0206848D01*
X0054179Y0206669D01*
X0054221Y0206491D01*
X0054268Y0206315D01*
X0054318Y0206139D01*
X0054373Y0205965D01*
X0054432Y0205792D01*
X0054495Y0205621D01*
X0054562Y0205451D01*
X0054634Y0205283D01*
X0054709Y0205117D01*
X0054789Y0204952D01*
X0054872Y0204790D01*
X0054960Y0204629D01*
X0055051Y0204471D01*
X0055146Y0204315D01*
X0055245Y0204162D01*
X0055348Y0204011D01*
X0055454Y0203862D01*
X0055564Y0203716D01*
X0055677Y0203573D01*
X0055794Y0203433D01*
X0055914Y0203295D01*
X0056038Y0203161D01*
X0056165Y0203029D01*
X0056294Y0202901D01*
X0056427Y0202776D01*
X0056563Y0202654D01*
X0056702Y0202535D01*
X0056844Y0202420D01*
X0056989Y0202308D01*
X0057136Y0202200D01*
X0057286Y0202096D01*
X0057438Y0201995D01*
X0057593Y0201898D01*
X0057750Y0201805D01*
X0057909Y0201715D01*
X0058071Y0201630D01*
X0058234Y0201548D01*
X0058399Y0201471D01*
X0058567Y0201397D01*
X0058736Y0201328D01*
X0058906Y0201263D01*
X0059078Y0201202D01*
X0059252Y0201145D01*
X0059427Y0201092D01*
X0059603Y0201044D01*
X0059780Y0201000D01*
X0059959Y0200960D01*
X0060138Y0200925D01*
X0060318Y0200894D01*
X0060498Y0200867D01*
X0060680Y0200845D01*
X0060861Y0200827D01*
X0061044Y0200814D01*
X0061226Y0200805D01*
X0061409Y0200801D01*
X0061591Y0200801D01*
X0061774Y0200805D01*
X0061956Y0200814D01*
X0062139Y0200827D01*
X0062320Y0200845D01*
X0062502Y0200867D01*
X0062682Y0200894D01*
X0062862Y0200925D01*
X0063041Y0200960D01*
X0063220Y0201000D01*
X0063397Y0201044D01*
X0063573Y0201092D01*
X0063748Y0201145D01*
X0063922Y0201202D01*
X0064094Y0201263D01*
X0064264Y0201328D01*
X0064433Y0201397D01*
X0064601Y0201471D01*
X0064766Y0201548D01*
X0064929Y0201630D01*
X0065091Y0201715D01*
X0065250Y0201805D01*
X0065407Y0201898D01*
X0065562Y0201995D01*
X0065714Y0202096D01*
X0065864Y0202200D01*
X0066011Y0202308D01*
X0066156Y0202420D01*
X0066298Y0202535D01*
X0066437Y0202654D01*
X0066573Y0202776D01*
X0066706Y0202901D01*
X0066835Y0203029D01*
X0066962Y0203161D01*
X0067086Y0203295D01*
X0067206Y0203433D01*
X0067323Y0203573D01*
X0067436Y0203716D01*
X0067546Y0203862D01*
X0067652Y0204011D01*
X0067755Y0204162D01*
X0067854Y0204315D01*
X0067949Y0204471D01*
X0068040Y0204629D01*
X0068128Y0204790D01*
X0068211Y0204952D01*
X0068291Y0205117D01*
X0068366Y0205283D01*
X0068438Y0205451D01*
X0068505Y0205621D01*
X0068568Y0205792D01*
X0068627Y0205965D01*
X0068682Y0206139D01*
X0068732Y0206315D01*
X0068779Y0206491D01*
X0068821Y0206669D01*
X0068858Y0206848D01*
X0068891Y0207028D01*
X0068920Y0207208D01*
X0068944Y0207389D01*
X0068964Y0207571D01*
X0068980Y0207753D01*
X0068991Y0207935D01*
X0068998Y0208117D01*
X0069000Y0208300D01*
X0074098Y0214146D02*
X0074321Y0214149D01*
X0074544Y0214157D01*
X0074766Y0214170D01*
X0074988Y0214189D01*
X0075210Y0214214D01*
X0075431Y0214244D01*
X0075651Y0214279D01*
X0075870Y0214319D01*
X0076088Y0214365D01*
X0076305Y0214416D01*
X0076521Y0214473D01*
X0076735Y0214534D01*
X0076948Y0214601D01*
X0077159Y0214673D01*
X0077368Y0214750D01*
X0077575Y0214832D01*
X0077780Y0214919D01*
X0077983Y0215012D01*
X0078184Y0215109D01*
X0078382Y0215211D01*
X0078578Y0215317D01*
X0078771Y0215429D01*
X0078961Y0215545D01*
X0079149Y0215666D01*
X0079333Y0215791D01*
X0079515Y0215921D01*
X0079693Y0216055D01*
X0079867Y0216193D01*
X0080039Y0216336D01*
X0080207Y0216482D01*
X0080371Y0216633D01*
X0080531Y0216788D01*
X0080688Y0216946D01*
X0080841Y0217109D01*
X0080990Y0217275D01*
X0081134Y0217444D01*
X0081275Y0217618D01*
X0081411Y0217794D01*
X0081543Y0217974D01*
X0081670Y0218157D01*
X0081793Y0218342D01*
X0081912Y0218531D01*
X0082026Y0218723D01*
X0082135Y0218917D01*
X0082239Y0219114D01*
X0082339Y0219314D01*
X0082433Y0219516D01*
X0082523Y0219720D01*
X0082608Y0219926D01*
X0082687Y0220134D01*
X0082762Y0220344D01*
X0082831Y0220556D01*
X0082895Y0220770D01*
X0082954Y0220985D01*
X0083008Y0221201D01*
X0083057Y0221419D01*
X0083100Y0221637D01*
X0083138Y0221857D01*
X0083170Y0222078D01*
X0083197Y0222299D01*
X0083219Y0222521D01*
X0083235Y0222743D01*
X0083246Y0222966D01*
X0083251Y0223189D01*
X0083251Y0223411D01*
X0083246Y0223634D01*
X0083235Y0223857D01*
X0083219Y0224079D01*
X0083197Y0224301D01*
X0083170Y0224522D01*
X0083138Y0224743D01*
X0083100Y0224963D01*
X0083057Y0225181D01*
X0083008Y0225399D01*
X0082954Y0225615D01*
X0082895Y0225830D01*
X0082831Y0226044D01*
X0082762Y0226256D01*
X0082687Y0226466D01*
X0082608Y0226674D01*
X0082523Y0226880D01*
X0082433Y0227084D01*
X0082339Y0227286D01*
X0082239Y0227486D01*
X0082135Y0227683D01*
X0082026Y0227877D01*
X0081912Y0228069D01*
X0081793Y0228258D01*
X0081670Y0228443D01*
X0081543Y0228626D01*
X0081411Y0228806D01*
X0081275Y0228982D01*
X0081134Y0229156D01*
X0080990Y0229325D01*
X0080841Y0229491D01*
X0080688Y0229654D01*
X0080531Y0229812D01*
X0080371Y0229967D01*
X0080207Y0230118D01*
X0080039Y0230264D01*
X0079867Y0230407D01*
X0079693Y0230545D01*
X0079515Y0230679D01*
X0079333Y0230809D01*
X0079149Y0230934D01*
X0078961Y0231055D01*
X0078771Y0231171D01*
X0078578Y0231283D01*
X0078382Y0231389D01*
X0078184Y0231491D01*
X0077983Y0231588D01*
X0077780Y0231681D01*
X0077575Y0231768D01*
X0077368Y0231850D01*
X0077159Y0231927D01*
X0076948Y0231999D01*
X0076735Y0232066D01*
X0076521Y0232127D01*
X0076305Y0232184D01*
X0076088Y0232235D01*
X0075870Y0232281D01*
X0075651Y0232321D01*
X0075431Y0232356D01*
X0075210Y0232386D01*
X0074988Y0232411D01*
X0074766Y0232430D01*
X0074544Y0232443D01*
X0074321Y0232451D01*
X0074098Y0232454D01*
X0069500Y0250050D02*
X0069500Y0252050D01*
X0070250Y0251050D02*
X0067750Y0251050D01*
X0068750Y0254550D01*
X0069750Y0281550D02*
X0067250Y0281550D01*
X0069375Y0284050D01*
X0068625Y0286050D02*
X0068552Y0286048D01*
X0068480Y0286043D01*
X0068408Y0286034D01*
X0068336Y0286021D01*
X0068265Y0286005D01*
X0068195Y0285985D01*
X0068127Y0285961D01*
X0068059Y0285935D01*
X0067993Y0285904D01*
X0067928Y0285871D01*
X0067866Y0285834D01*
X0067805Y0285795D01*
X0067746Y0285752D01*
X0067689Y0285706D01*
X0067635Y0285658D01*
X0067584Y0285607D01*
X0067534Y0285553D01*
X0067488Y0285497D01*
X0067445Y0285439D01*
X0067404Y0285378D01*
X0067367Y0285316D01*
X0067333Y0285252D01*
X0067302Y0285186D01*
X0067274Y0285119D01*
X0067250Y0285050D01*
X0069375Y0284050D02*
X0069421Y0284096D01*
X0069465Y0284145D01*
X0069505Y0284196D01*
X0069543Y0284249D01*
X0069578Y0284304D01*
X0069610Y0284361D01*
X0069639Y0284419D01*
X0069665Y0284479D01*
X0069687Y0284541D01*
X0069706Y0284603D01*
X0069722Y0284666D01*
X0069734Y0284730D01*
X0069743Y0284795D01*
X0069748Y0284860D01*
X0069750Y0284925D01*
X0069748Y0284990D01*
X0069742Y0285056D01*
X0069733Y0285120D01*
X0069720Y0285184D01*
X0069703Y0285248D01*
X0069682Y0285310D01*
X0069658Y0285371D01*
X0069630Y0285430D01*
X0069599Y0285488D01*
X0069565Y0285543D01*
X0069527Y0285597D01*
X0069487Y0285648D01*
X0069443Y0285697D01*
X0069397Y0285743D01*
X0069348Y0285787D01*
X0069297Y0285827D01*
X0069243Y0285865D01*
X0069188Y0285899D01*
X0069130Y0285930D01*
X0069071Y0285958D01*
X0069010Y0285982D01*
X0068948Y0286003D01*
X0068884Y0286020D01*
X0068820Y0286033D01*
X0068756Y0286042D01*
X0068690Y0286048D01*
X0068625Y0286050D01*
X0033750Y0281550D02*
X0031250Y0281550D01*
X0032500Y0281550D02*
X0032500Y0286050D01*
X0031250Y0285050D01*
X0031250Y0254550D02*
X0032750Y0254550D01*
X0032812Y0254548D01*
X0032873Y0254542D01*
X0032934Y0254533D01*
X0032994Y0254520D01*
X0033053Y0254503D01*
X0033111Y0254482D01*
X0033168Y0254458D01*
X0033223Y0254431D01*
X0033276Y0254400D01*
X0033328Y0254366D01*
X0033377Y0254329D01*
X0033424Y0254289D01*
X0033468Y0254246D01*
X0033509Y0254201D01*
X0033548Y0254153D01*
X0033584Y0254102D01*
X0033616Y0254050D01*
X0033645Y0253996D01*
X0033671Y0253940D01*
X0033693Y0253882D01*
X0033712Y0253824D01*
X0033727Y0253764D01*
X0033738Y0253703D01*
X0033746Y0253642D01*
X0033750Y0253581D01*
X0033750Y0253519D01*
X0033746Y0253458D01*
X0033738Y0253397D01*
X0033727Y0253336D01*
X0033712Y0253276D01*
X0033693Y0253218D01*
X0033671Y0253160D01*
X0033645Y0253104D01*
X0033616Y0253050D01*
X0033584Y0252998D01*
X0033548Y0252947D01*
X0033509Y0252899D01*
X0033468Y0252854D01*
X0033424Y0252811D01*
X0033377Y0252771D01*
X0033328Y0252734D01*
X0033276Y0252700D01*
X0033223Y0252669D01*
X0033168Y0252642D01*
X0033111Y0252618D01*
X0033053Y0252597D01*
X0032994Y0252580D01*
X0032934Y0252567D01*
X0032873Y0252558D01*
X0032812Y0252552D01*
X0032750Y0252550D01*
X0031750Y0252550D01*
X0032500Y0252550D02*
X0032569Y0252548D01*
X0032638Y0252542D01*
X0032706Y0252533D01*
X0032773Y0252520D01*
X0032840Y0252503D01*
X0032906Y0252482D01*
X0032970Y0252458D01*
X0033033Y0252430D01*
X0033095Y0252399D01*
X0033155Y0252365D01*
X0033212Y0252327D01*
X0033268Y0252286D01*
X0033321Y0252243D01*
X0033372Y0252196D01*
X0033420Y0252147D01*
X0033465Y0252095D01*
X0033507Y0252040D01*
X0033546Y0251984D01*
X0033583Y0251925D01*
X0033615Y0251864D01*
X0033645Y0251802D01*
X0033671Y0251738D01*
X0033693Y0251673D01*
X0033712Y0251607D01*
X0033727Y0251540D01*
X0033738Y0251472D01*
X0033746Y0251403D01*
X0033750Y0251334D01*
X0033750Y0251266D01*
X0033746Y0251197D01*
X0033738Y0251128D01*
X0033727Y0251060D01*
X0033712Y0250993D01*
X0033693Y0250927D01*
X0033671Y0250862D01*
X0033645Y0250798D01*
X0033615Y0250736D01*
X0033583Y0250675D01*
X0033546Y0250616D01*
X0033507Y0250560D01*
X0033465Y0250505D01*
X0033420Y0250453D01*
X0033372Y0250404D01*
X0033321Y0250357D01*
X0033268Y0250314D01*
X0033212Y0250273D01*
X0033155Y0250235D01*
X0033095Y0250201D01*
X0033033Y0250170D01*
X0032970Y0250142D01*
X0032906Y0250118D01*
X0032840Y0250097D01*
X0032773Y0250080D01*
X0032706Y0250067D01*
X0032638Y0250058D01*
X0032569Y0250052D01*
X0032500Y0250050D01*
X0031250Y0250050D01*
X0041500Y0200800D02*
X0041502Y0200899D01*
X0041508Y0200999D01*
X0041518Y0201098D01*
X0041532Y0201196D01*
X0041549Y0201294D01*
X0041571Y0201391D01*
X0041596Y0201487D01*
X0041625Y0201582D01*
X0041658Y0201676D01*
X0041695Y0201768D01*
X0041735Y0201859D01*
X0041779Y0201948D01*
X0041827Y0202036D01*
X0041878Y0202121D01*
X0041932Y0202204D01*
X0041989Y0202286D01*
X0042050Y0202364D01*
X0042114Y0202441D01*
X0042180Y0202514D01*
X0042250Y0202585D01*
X0042322Y0202653D01*
X0042397Y0202719D01*
X0042475Y0202781D01*
X0042555Y0202840D01*
X0042637Y0202896D01*
X0042721Y0202948D01*
X0042808Y0202997D01*
X0042896Y0203043D01*
X0042986Y0203085D01*
X0043078Y0203124D01*
X0043171Y0203159D01*
X0043265Y0203190D01*
X0043361Y0203217D01*
X0043458Y0203240D01*
X0043555Y0203260D01*
X0043653Y0203276D01*
X0043752Y0203288D01*
X0043851Y0203296D01*
X0043950Y0203300D01*
X0044050Y0203300D01*
X0044149Y0203296D01*
X0044248Y0203288D01*
X0044347Y0203276D01*
X0044445Y0203260D01*
X0044542Y0203240D01*
X0044639Y0203217D01*
X0044735Y0203190D01*
X0044829Y0203159D01*
X0044922Y0203124D01*
X0045014Y0203085D01*
X0045104Y0203043D01*
X0045192Y0202997D01*
X0045279Y0202948D01*
X0045363Y0202896D01*
X0045445Y0202840D01*
X0045525Y0202781D01*
X0045603Y0202719D01*
X0045678Y0202653D01*
X0045750Y0202585D01*
X0045820Y0202514D01*
X0045886Y0202441D01*
X0045950Y0202364D01*
X0046011Y0202286D01*
X0046068Y0202204D01*
X0046122Y0202121D01*
X0046173Y0202036D01*
X0046221Y0201948D01*
X0046265Y0201859D01*
X0046305Y0201768D01*
X0046342Y0201676D01*
X0046375Y0201582D01*
X0046404Y0201487D01*
X0046429Y0201391D01*
X0046451Y0201294D01*
X0046468Y0201196D01*
X0046482Y0201098D01*
X0046492Y0200999D01*
X0046498Y0200899D01*
X0046500Y0200800D01*
X0046498Y0200701D01*
X0046492Y0200601D01*
X0046482Y0200502D01*
X0046468Y0200404D01*
X0046451Y0200306D01*
X0046429Y0200209D01*
X0046404Y0200113D01*
X0046375Y0200018D01*
X0046342Y0199924D01*
X0046305Y0199832D01*
X0046265Y0199741D01*
X0046221Y0199652D01*
X0046173Y0199564D01*
X0046122Y0199479D01*
X0046068Y0199396D01*
X0046011Y0199314D01*
X0045950Y0199236D01*
X0045886Y0199159D01*
X0045820Y0199086D01*
X0045750Y0199015D01*
X0045678Y0198947D01*
X0045603Y0198881D01*
X0045525Y0198819D01*
X0045445Y0198760D01*
X0045363Y0198704D01*
X0045279Y0198652D01*
X0045192Y0198603D01*
X0045104Y0198557D01*
X0045014Y0198515D01*
X0044922Y0198476D01*
X0044829Y0198441D01*
X0044735Y0198410D01*
X0044639Y0198383D01*
X0044542Y0198360D01*
X0044445Y0198340D01*
X0044347Y0198324D01*
X0044248Y0198312D01*
X0044149Y0198304D01*
X0044050Y0198300D01*
X0043950Y0198300D01*
X0043851Y0198304D01*
X0043752Y0198312D01*
X0043653Y0198324D01*
X0043555Y0198340D01*
X0043458Y0198360D01*
X0043361Y0198383D01*
X0043265Y0198410D01*
X0043171Y0198441D01*
X0043078Y0198476D01*
X0042986Y0198515D01*
X0042896Y0198557D01*
X0042808Y0198603D01*
X0042721Y0198652D01*
X0042637Y0198704D01*
X0042555Y0198760D01*
X0042475Y0198819D01*
X0042397Y0198881D01*
X0042322Y0198947D01*
X0042250Y0199015D01*
X0042180Y0199086D01*
X0042114Y0199159D01*
X0042050Y0199236D01*
X0041989Y0199314D01*
X0041932Y0199396D01*
X0041878Y0199479D01*
X0041827Y0199564D01*
X0041779Y0199652D01*
X0041735Y0199741D01*
X0041695Y0199832D01*
X0041658Y0199924D01*
X0041625Y0200018D01*
X0041596Y0200113D01*
X0041571Y0200209D01*
X0041549Y0200306D01*
X0041532Y0200404D01*
X0041518Y0200502D01*
X0041508Y0200601D01*
X0041502Y0200701D01*
X0041500Y0200800D01*
X0009050Y0178150D02*
X0004550Y0175150D01*
X0005800Y0173545D02*
X0007800Y0173545D01*
X0008050Y0173045D02*
X0009050Y0174045D01*
X0009050Y0175150D02*
X0004550Y0178150D01*
X0005800Y0173545D02*
X0005731Y0173543D01*
X0005662Y0173537D01*
X0005594Y0173528D01*
X0005527Y0173515D01*
X0005460Y0173498D01*
X0005394Y0173477D01*
X0005330Y0173453D01*
X0005267Y0173425D01*
X0005205Y0173394D01*
X0005145Y0173360D01*
X0005088Y0173322D01*
X0005032Y0173281D01*
X0004979Y0173238D01*
X0004928Y0173191D01*
X0004880Y0173142D01*
X0004835Y0173090D01*
X0004793Y0173035D01*
X0004754Y0172979D01*
X0004717Y0172920D01*
X0004685Y0172859D01*
X0004655Y0172797D01*
X0004629Y0172733D01*
X0004607Y0172668D01*
X0004588Y0172602D01*
X0004573Y0172535D01*
X0004562Y0172467D01*
X0004554Y0172398D01*
X0004550Y0172329D01*
X0004550Y0172261D01*
X0004554Y0172192D01*
X0004562Y0172123D01*
X0004573Y0172055D01*
X0004588Y0171988D01*
X0004607Y0171922D01*
X0004629Y0171857D01*
X0004655Y0171793D01*
X0004685Y0171731D01*
X0004717Y0171670D01*
X0004754Y0171611D01*
X0004793Y0171555D01*
X0004835Y0171500D01*
X0004880Y0171448D01*
X0004928Y0171399D01*
X0004979Y0171352D01*
X0005032Y0171309D01*
X0005088Y0171268D01*
X0005145Y0171230D01*
X0005205Y0171196D01*
X0005267Y0171165D01*
X0005330Y0171137D01*
X0005394Y0171113D01*
X0005460Y0171092D01*
X0005527Y0171075D01*
X0005594Y0171062D01*
X0005662Y0171053D01*
X0005731Y0171047D01*
X0005800Y0171045D01*
X0007800Y0171045D01*
X0007869Y0171047D01*
X0007938Y0171053D01*
X0008006Y0171062D01*
X0008073Y0171075D01*
X0008140Y0171092D01*
X0008206Y0171113D01*
X0008270Y0171137D01*
X0008333Y0171165D01*
X0008395Y0171196D01*
X0008455Y0171230D01*
X0008512Y0171268D01*
X0008568Y0171309D01*
X0008621Y0171352D01*
X0008672Y0171399D01*
X0008720Y0171448D01*
X0008765Y0171500D01*
X0008807Y0171555D01*
X0008846Y0171611D01*
X0008883Y0171670D01*
X0008915Y0171731D01*
X0008945Y0171793D01*
X0008971Y0171857D01*
X0008993Y0171922D01*
X0009012Y0171988D01*
X0009027Y0172055D01*
X0009038Y0172123D01*
X0009046Y0172192D01*
X0009050Y0172261D01*
X0009050Y0172329D01*
X0009046Y0172398D01*
X0009038Y0172467D01*
X0009027Y0172535D01*
X0009012Y0172602D01*
X0008993Y0172668D01*
X0008971Y0172733D01*
X0008945Y0172797D01*
X0008915Y0172859D01*
X0008883Y0172920D01*
X0008846Y0172979D01*
X0008807Y0173035D01*
X0008765Y0173090D01*
X0008720Y0173142D01*
X0008672Y0173191D01*
X0008621Y0173238D01*
X0008568Y0173281D01*
X0008512Y0173322D01*
X0008455Y0173360D01*
X0008395Y0173394D01*
X0008333Y0173425D01*
X0008270Y0173453D01*
X0008206Y0173477D01*
X0008140Y0173498D01*
X0008073Y0173515D01*
X0008006Y0173528D01*
X0007938Y0173537D01*
X0007869Y0173543D01*
X0007800Y0173545D01*
X0009050Y0168783D02*
X0007050Y0167783D01*
X0007050Y0167533D02*
X0007050Y0166283D01*
X0007050Y0167533D02*
X0007048Y0167602D01*
X0007042Y0167671D01*
X0007033Y0167739D01*
X0007020Y0167806D01*
X0007003Y0167873D01*
X0006982Y0167939D01*
X0006958Y0168003D01*
X0006930Y0168066D01*
X0006899Y0168128D01*
X0006865Y0168188D01*
X0006827Y0168245D01*
X0006786Y0168301D01*
X0006743Y0168354D01*
X0006696Y0168405D01*
X0006647Y0168453D01*
X0006595Y0168498D01*
X0006540Y0168540D01*
X0006484Y0168579D01*
X0006425Y0168616D01*
X0006364Y0168648D01*
X0006302Y0168678D01*
X0006238Y0168704D01*
X0006173Y0168726D01*
X0006107Y0168745D01*
X0006040Y0168760D01*
X0005972Y0168771D01*
X0005903Y0168779D01*
X0005834Y0168783D01*
X0005766Y0168783D01*
X0005697Y0168779D01*
X0005628Y0168771D01*
X0005560Y0168760D01*
X0005493Y0168745D01*
X0005427Y0168726D01*
X0005362Y0168704D01*
X0005298Y0168678D01*
X0005236Y0168648D01*
X0005175Y0168616D01*
X0005116Y0168579D01*
X0005060Y0168540D01*
X0005005Y0168498D01*
X0004953Y0168453D01*
X0004904Y0168405D01*
X0004857Y0168354D01*
X0004814Y0168301D01*
X0004773Y0168245D01*
X0004735Y0168188D01*
X0004701Y0168128D01*
X0004670Y0168066D01*
X0004642Y0168003D01*
X0004618Y0167939D01*
X0004597Y0167873D01*
X0004580Y0167806D01*
X0004567Y0167739D01*
X0004558Y0167671D01*
X0004552Y0167602D01*
X0004550Y0167533D01*
X0004550Y0166283D01*
X0009050Y0166283D01*
X0009050Y0164250D02*
X0009050Y0163250D01*
X0009050Y0163750D02*
X0004550Y0163750D01*
X0004550Y0163250D02*
X0004550Y0164250D01*
X0003950Y0148350D02*
X0008450Y0145350D01*
X0008450Y0143750D02*
X0008450Y0142750D01*
X0008450Y0143250D02*
X0003950Y0143250D01*
X0003950Y0142750D02*
X0003950Y0143750D01*
X0003950Y0145350D02*
X0008450Y0148350D01*
X0008450Y0140700D02*
X0003950Y0140700D01*
X0006450Y0139200D01*
X0003950Y0137700D01*
X0008450Y0137700D01*
X0008450Y0135350D02*
X0003950Y0135350D01*
X0003950Y0132850D02*
X0008450Y0135350D01*
X0008450Y0132850D02*
X0003950Y0132850D01*
X0004550Y0115885D02*
X0004550Y0114885D01*
X0004552Y0114825D01*
X0004557Y0114764D01*
X0004566Y0114705D01*
X0004579Y0114646D01*
X0004595Y0114587D01*
X0004615Y0114530D01*
X0004638Y0114475D01*
X0004665Y0114420D01*
X0004694Y0114368D01*
X0004727Y0114317D01*
X0004763Y0114268D01*
X0004801Y0114222D01*
X0004843Y0114178D01*
X0004887Y0114136D01*
X0004933Y0114098D01*
X0004982Y0114062D01*
X0005033Y0114029D01*
X0005085Y0114000D01*
X0005140Y0113973D01*
X0005195Y0113950D01*
X0005252Y0113930D01*
X0005311Y0113914D01*
X0005370Y0113901D01*
X0005429Y0113892D01*
X0005490Y0113887D01*
X0005550Y0113885D01*
X0008050Y0113885D01*
X0008110Y0113887D01*
X0008171Y0113892D01*
X0008230Y0113901D01*
X0008289Y0113914D01*
X0008348Y0113930D01*
X0008405Y0113950D01*
X0008460Y0113973D01*
X0008515Y0114000D01*
X0008567Y0114029D01*
X0008618Y0114062D01*
X0008667Y0114098D01*
X0008713Y0114136D01*
X0008757Y0114178D01*
X0008799Y0114222D01*
X0008837Y0114268D01*
X0008873Y0114317D01*
X0008906Y0114368D01*
X0008935Y0114420D01*
X0008962Y0114475D01*
X0008985Y0114530D01*
X0009005Y0114587D01*
X0009021Y0114646D01*
X0009034Y0114705D01*
X0009043Y0114764D01*
X0009048Y0114825D01*
X0009050Y0114885D01*
X0009050Y0115885D01*
X0007800Y0111750D02*
X0005800Y0111750D01*
X0005732Y0111748D01*
X0005665Y0111743D01*
X0005598Y0111734D01*
X0005531Y0111721D01*
X0005466Y0111704D01*
X0005401Y0111685D01*
X0005337Y0111661D01*
X0005275Y0111634D01*
X0005214Y0111604D01*
X0005156Y0111571D01*
X0005099Y0111535D01*
X0005044Y0111495D01*
X0004991Y0111453D01*
X0004940Y0111407D01*
X0004893Y0111360D01*
X0004847Y0111309D01*
X0004805Y0111256D01*
X0004765Y0111201D01*
X0004729Y0111144D01*
X0004696Y0111086D01*
X0004666Y0111025D01*
X0004639Y0110963D01*
X0004615Y0110899D01*
X0004596Y0110834D01*
X0004579Y0110769D01*
X0004566Y0110702D01*
X0004557Y0110635D01*
X0004552Y0110568D01*
X0004550Y0110500D01*
X0004550Y0109250D01*
X0009050Y0109250D01*
X0009050Y0110500D01*
X0009048Y0110568D01*
X0009043Y0110635D01*
X0009034Y0110702D01*
X0009021Y0110769D01*
X0009004Y0110834D01*
X0008985Y0110899D01*
X0008961Y0110963D01*
X0008934Y0111025D01*
X0008904Y0111086D01*
X0008871Y0111144D01*
X0008835Y0111201D01*
X0008795Y0111256D01*
X0008753Y0111309D01*
X0008707Y0111360D01*
X0008660Y0111407D01*
X0008609Y0111453D01*
X0008556Y0111495D01*
X0008501Y0111535D01*
X0008444Y0111571D01*
X0008386Y0111604D01*
X0008325Y0111634D01*
X0008263Y0111661D01*
X0008199Y0111685D01*
X0008134Y0111704D01*
X0008069Y0111721D01*
X0008002Y0111734D01*
X0007935Y0111743D01*
X0007868Y0111748D01*
X0007800Y0111750D01*
X0004550Y0107250D02*
X0009050Y0106250D01*
X0006050Y0105250D01*
X0009050Y0104250D01*
X0004550Y0103250D01*
D93*
X0045000Y0261800D02*
X0045000Y0274800D01*
X0058000Y0274800D01*
X0058000Y0261800D01*
X0045000Y0261800D01*
X0048500Y0268300D02*
X0048502Y0268409D01*
X0048508Y0268518D01*
X0048518Y0268626D01*
X0048532Y0268734D01*
X0048549Y0268842D01*
X0048571Y0268949D01*
X0048596Y0269055D01*
X0048626Y0269159D01*
X0048659Y0269263D01*
X0048696Y0269366D01*
X0048736Y0269467D01*
X0048780Y0269566D01*
X0048828Y0269664D01*
X0048880Y0269761D01*
X0048934Y0269855D01*
X0048992Y0269947D01*
X0049054Y0270037D01*
X0049119Y0270124D01*
X0049186Y0270210D01*
X0049257Y0270293D01*
X0049331Y0270373D01*
X0049408Y0270450D01*
X0049487Y0270525D01*
X0049569Y0270596D01*
X0049654Y0270665D01*
X0049741Y0270730D01*
X0049830Y0270793D01*
X0049922Y0270851D01*
X0050016Y0270907D01*
X0050111Y0270959D01*
X0050209Y0271008D01*
X0050308Y0271053D01*
X0050409Y0271095D01*
X0050511Y0271132D01*
X0050614Y0271166D01*
X0050719Y0271197D01*
X0050825Y0271223D01*
X0050931Y0271246D01*
X0051039Y0271264D01*
X0051147Y0271279D01*
X0051255Y0271290D01*
X0051364Y0271297D01*
X0051473Y0271300D01*
X0051582Y0271299D01*
X0051691Y0271294D01*
X0051799Y0271285D01*
X0051907Y0271272D01*
X0052015Y0271255D01*
X0052122Y0271235D01*
X0052228Y0271210D01*
X0052333Y0271182D01*
X0052437Y0271150D01*
X0052540Y0271114D01*
X0052642Y0271074D01*
X0052742Y0271031D01*
X0052840Y0270984D01*
X0052937Y0270934D01*
X0053031Y0270880D01*
X0053124Y0270822D01*
X0053215Y0270762D01*
X0053303Y0270698D01*
X0053389Y0270631D01*
X0053472Y0270561D01*
X0053553Y0270488D01*
X0053631Y0270412D01*
X0053706Y0270333D01*
X0053779Y0270251D01*
X0053848Y0270167D01*
X0053914Y0270081D01*
X0053977Y0269992D01*
X0054037Y0269901D01*
X0054094Y0269808D01*
X0054147Y0269713D01*
X0054196Y0269616D01*
X0054242Y0269517D01*
X0054284Y0269417D01*
X0054323Y0269315D01*
X0054358Y0269211D01*
X0054389Y0269107D01*
X0054417Y0269002D01*
X0054440Y0268895D01*
X0054460Y0268788D01*
X0054476Y0268680D01*
X0054488Y0268572D01*
X0054496Y0268463D01*
X0054500Y0268354D01*
X0054500Y0268246D01*
X0054496Y0268137D01*
X0054488Y0268028D01*
X0054476Y0267920D01*
X0054460Y0267812D01*
X0054440Y0267705D01*
X0054417Y0267598D01*
X0054389Y0267493D01*
X0054358Y0267389D01*
X0054323Y0267285D01*
X0054284Y0267183D01*
X0054242Y0267083D01*
X0054196Y0266984D01*
X0054147Y0266887D01*
X0054094Y0266792D01*
X0054037Y0266699D01*
X0053977Y0266608D01*
X0053914Y0266519D01*
X0053848Y0266433D01*
X0053779Y0266349D01*
X0053706Y0266267D01*
X0053631Y0266188D01*
X0053553Y0266112D01*
X0053472Y0266039D01*
X0053389Y0265969D01*
X0053303Y0265902D01*
X0053215Y0265838D01*
X0053124Y0265778D01*
X0053031Y0265720D01*
X0052937Y0265666D01*
X0052840Y0265616D01*
X0052742Y0265569D01*
X0052642Y0265526D01*
X0052540Y0265486D01*
X0052437Y0265450D01*
X0052333Y0265418D01*
X0052228Y0265390D01*
X0052122Y0265365D01*
X0052015Y0265345D01*
X0051907Y0265328D01*
X0051799Y0265315D01*
X0051691Y0265306D01*
X0051582Y0265301D01*
X0051473Y0265300D01*
X0051364Y0265303D01*
X0051255Y0265310D01*
X0051147Y0265321D01*
X0051039Y0265336D01*
X0050931Y0265354D01*
X0050825Y0265377D01*
X0050719Y0265403D01*
X0050614Y0265434D01*
X0050511Y0265468D01*
X0050409Y0265505D01*
X0050308Y0265547D01*
X0050209Y0265592D01*
X0050111Y0265641D01*
X0050016Y0265693D01*
X0049922Y0265749D01*
X0049830Y0265807D01*
X0049741Y0265870D01*
X0049654Y0265935D01*
X0049569Y0266004D01*
X0049487Y0266075D01*
X0049408Y0266150D01*
X0049331Y0266227D01*
X0049257Y0266307D01*
X0049186Y0266390D01*
X0049119Y0266476D01*
X0049054Y0266563D01*
X0048992Y0266653D01*
X0048934Y0266745D01*
X0048880Y0266839D01*
X0048828Y0266936D01*
X0048780Y0267034D01*
X0048736Y0267133D01*
X0048696Y0267234D01*
X0048659Y0267337D01*
X0048626Y0267441D01*
X0048596Y0267545D01*
X0048571Y0267651D01*
X0048549Y0267758D01*
X0048532Y0267866D01*
X0048518Y0267974D01*
X0048508Y0268082D01*
X0048502Y0268191D01*
X0048500Y0268300D01*
X0047500Y0268300D02*
X0047502Y0268426D01*
X0047508Y0268552D01*
X0047518Y0268678D01*
X0047532Y0268804D01*
X0047550Y0268929D01*
X0047572Y0269053D01*
X0047597Y0269177D01*
X0047627Y0269300D01*
X0047660Y0269421D01*
X0047698Y0269542D01*
X0047739Y0269661D01*
X0047784Y0269780D01*
X0047832Y0269896D01*
X0047884Y0270011D01*
X0047940Y0270124D01*
X0048000Y0270236D01*
X0048063Y0270345D01*
X0048129Y0270453D01*
X0048198Y0270558D01*
X0048271Y0270661D01*
X0048348Y0270762D01*
X0048427Y0270860D01*
X0048509Y0270956D01*
X0048595Y0271049D01*
X0048683Y0271140D01*
X0048774Y0271227D01*
X0048868Y0271312D01*
X0048964Y0271393D01*
X0049063Y0271472D01*
X0049164Y0271547D01*
X0049268Y0271619D01*
X0049374Y0271688D01*
X0049482Y0271754D01*
X0049592Y0271816D01*
X0049704Y0271874D01*
X0049817Y0271929D01*
X0049933Y0271980D01*
X0050050Y0272028D01*
X0050168Y0272072D01*
X0050288Y0272112D01*
X0050409Y0272148D01*
X0050531Y0272181D01*
X0050654Y0272210D01*
X0050778Y0272234D01*
X0050902Y0272255D01*
X0051027Y0272272D01*
X0051153Y0272285D01*
X0051279Y0272294D01*
X0051405Y0272299D01*
X0051532Y0272300D01*
X0051658Y0272297D01*
X0051784Y0272290D01*
X0051910Y0272279D01*
X0052035Y0272264D01*
X0052160Y0272245D01*
X0052284Y0272222D01*
X0052408Y0272196D01*
X0052530Y0272165D01*
X0052652Y0272131D01*
X0052772Y0272092D01*
X0052891Y0272050D01*
X0053009Y0272005D01*
X0053125Y0271955D01*
X0053240Y0271902D01*
X0053352Y0271845D01*
X0053463Y0271785D01*
X0053572Y0271721D01*
X0053679Y0271654D01*
X0053784Y0271584D01*
X0053887Y0271510D01*
X0053987Y0271433D01*
X0054085Y0271353D01*
X0054180Y0271270D01*
X0054272Y0271184D01*
X0054362Y0271095D01*
X0054449Y0271003D01*
X0054532Y0270909D01*
X0054613Y0270812D01*
X0054691Y0270712D01*
X0054766Y0270610D01*
X0054837Y0270506D01*
X0054905Y0270399D01*
X0054969Y0270291D01*
X0055030Y0270180D01*
X0055088Y0270068D01*
X0055142Y0269954D01*
X0055192Y0269838D01*
X0055239Y0269721D01*
X0055282Y0269602D01*
X0055321Y0269482D01*
X0055357Y0269361D01*
X0055388Y0269238D01*
X0055416Y0269115D01*
X0055440Y0268991D01*
X0055460Y0268866D01*
X0055476Y0268741D01*
X0055488Y0268615D01*
X0055496Y0268489D01*
X0055500Y0268363D01*
X0055500Y0268237D01*
X0055496Y0268111D01*
X0055488Y0267985D01*
X0055476Y0267859D01*
X0055460Y0267734D01*
X0055440Y0267609D01*
X0055416Y0267485D01*
X0055388Y0267362D01*
X0055357Y0267239D01*
X0055321Y0267118D01*
X0055282Y0266998D01*
X0055239Y0266879D01*
X0055192Y0266762D01*
X0055142Y0266646D01*
X0055088Y0266532D01*
X0055030Y0266420D01*
X0054969Y0266309D01*
X0054905Y0266201D01*
X0054837Y0266094D01*
X0054766Y0265990D01*
X0054691Y0265888D01*
X0054613Y0265788D01*
X0054532Y0265691D01*
X0054449Y0265597D01*
X0054362Y0265505D01*
X0054272Y0265416D01*
X0054180Y0265330D01*
X0054085Y0265247D01*
X0053987Y0265167D01*
X0053887Y0265090D01*
X0053784Y0265016D01*
X0053679Y0264946D01*
X0053572Y0264879D01*
X0053463Y0264815D01*
X0053352Y0264755D01*
X0053240Y0264698D01*
X0053125Y0264645D01*
X0053009Y0264595D01*
X0052891Y0264550D01*
X0052772Y0264508D01*
X0052652Y0264469D01*
X0052530Y0264435D01*
X0052408Y0264404D01*
X0052284Y0264378D01*
X0052160Y0264355D01*
X0052035Y0264336D01*
X0051910Y0264321D01*
X0051784Y0264310D01*
X0051658Y0264303D01*
X0051532Y0264300D01*
X0051405Y0264301D01*
X0051279Y0264306D01*
X0051153Y0264315D01*
X0051027Y0264328D01*
X0050902Y0264345D01*
X0050778Y0264366D01*
X0050654Y0264390D01*
X0050531Y0264419D01*
X0050409Y0264452D01*
X0050288Y0264488D01*
X0050168Y0264528D01*
X0050050Y0264572D01*
X0049933Y0264620D01*
X0049817Y0264671D01*
X0049704Y0264726D01*
X0049592Y0264784D01*
X0049482Y0264846D01*
X0049374Y0264912D01*
X0049268Y0264981D01*
X0049164Y0265053D01*
X0049063Y0265128D01*
X0048964Y0265207D01*
X0048868Y0265288D01*
X0048774Y0265373D01*
X0048683Y0265460D01*
X0048595Y0265551D01*
X0048509Y0265644D01*
X0048427Y0265740D01*
X0048348Y0265838D01*
X0048271Y0265939D01*
X0048198Y0266042D01*
X0048129Y0266147D01*
X0048063Y0266255D01*
X0048000Y0266364D01*
X0047940Y0266476D01*
X0047884Y0266589D01*
X0047832Y0266704D01*
X0047784Y0266820D01*
X0047739Y0266939D01*
X0047698Y0267058D01*
X0047660Y0267179D01*
X0047627Y0267300D01*
X0047597Y0267423D01*
X0047572Y0267547D01*
X0047550Y0267671D01*
X0047532Y0267796D01*
X0047518Y0267922D01*
X0047508Y0268048D01*
X0047502Y0268174D01*
X0047500Y0268300D01*
D94*
X0038250Y0244300D03*
X0064750Y0244300D03*
X0064750Y0292300D03*
X0038250Y0292300D03*
D95*
X0396500Y0243300D02*
X0419000Y0243300D01*
X0419000Y0233300D02*
X0396500Y0233300D01*
X0396500Y0223300D02*
X0419000Y0223300D01*
X0419000Y0213300D02*
X0396500Y0213300D01*
X0396500Y0203300D02*
X0419000Y0203300D01*
X0419000Y0193300D02*
X0396500Y0193300D01*
X0396500Y0183300D02*
X0419000Y0183300D01*
X0419000Y0173300D02*
X0396500Y0173300D01*
X0396500Y0163300D02*
X0419000Y0163300D01*
X0419000Y0153300D02*
X0396500Y0153300D01*
X0396500Y0143300D02*
X0419000Y0143300D01*
X0419000Y0133300D02*
X0396500Y0133300D01*
X0396500Y0123300D02*
X0419000Y0123300D01*
X0419000Y0113300D02*
X0396500Y0113300D01*
X0396500Y0103300D02*
X0419000Y0103300D01*
X0419000Y0093300D02*
X0396500Y0093300D01*
X0396500Y0083300D02*
X0419000Y0083300D01*
X0419000Y0073300D02*
X0396500Y0073300D01*
X0396500Y0063300D02*
X0419000Y0063300D01*
X0419000Y0053300D02*
X0396500Y0053300D01*
X0396500Y0043300D02*
X0419000Y0043300D01*
X0419000Y0033300D02*
X0396500Y0033300D01*
X0396500Y0023300D02*
X0419000Y0023300D01*
X0419000Y0013300D02*
X0396500Y0013300D01*
D96*
X0395000Y0013300D03*
X0395000Y0023300D03*
X0395000Y0033300D03*
X0395000Y0043300D03*
X0395000Y0053300D03*
X0395000Y0063300D03*
X0395000Y0073300D03*
X0395000Y0083300D03*
X0395000Y0093300D03*
X0395000Y0103300D03*
X0395000Y0113300D03*
X0395000Y0123300D03*
X0395000Y0133300D03*
X0395000Y0143300D03*
X0395000Y0153300D03*
X0395000Y0163300D03*
X0395000Y0173300D03*
X0395000Y0183300D03*
X0395000Y0193300D03*
X0395000Y0203300D03*
X0395000Y0213300D03*
X0395000Y0223300D03*
X0395000Y0233300D03*
X0395000Y0243300D03*
D97*
X0382000Y0243300D03*
X0382000Y0233300D03*
X0382000Y0223300D03*
X0382000Y0213300D03*
X0382000Y0203300D03*
X0382000Y0193300D03*
X0382000Y0183300D03*
X0382000Y0173300D03*
X0382000Y0163300D03*
X0382000Y0153300D03*
X0382000Y0143300D03*
X0382000Y0133300D03*
X0382000Y0123300D03*
X0382000Y0113300D03*
X0382000Y0103300D03*
X0382000Y0093300D03*
X0382000Y0083300D03*
X0382000Y0073300D03*
X0382000Y0063300D03*
X0382000Y0053300D03*
X0382000Y0043300D03*
X0382000Y0033300D03*
X0382000Y0023300D03*
X0382000Y0013300D03*
D98*
X0273500Y0259800D02*
X0249500Y0259800D01*
X0249293Y0259803D01*
X0249086Y0259810D01*
X0248880Y0259823D01*
X0248673Y0259840D01*
X0248468Y0259863D01*
X0248262Y0259891D01*
X0248058Y0259923D01*
X0247854Y0259961D01*
X0247652Y0260003D01*
X0247450Y0260051D01*
X0247250Y0260103D01*
X0247051Y0260160D01*
X0246854Y0260222D01*
X0246658Y0260289D01*
X0246464Y0260361D01*
X0246271Y0260437D01*
X0246081Y0260518D01*
X0245892Y0260604D01*
X0245706Y0260694D01*
X0245522Y0260788D01*
X0245340Y0260888D01*
X0245161Y0260991D01*
X0244984Y0261099D01*
X0244810Y0261211D01*
X0244639Y0261327D01*
X0244470Y0261448D01*
X0244305Y0261572D01*
X0244143Y0261701D01*
X0243984Y0261833D01*
X0243828Y0261969D01*
X0243675Y0262109D01*
X0243526Y0262253D01*
X0243381Y0262400D01*
X0243239Y0262551D01*
X0243101Y0262705D01*
X0242966Y0262863D01*
X0242836Y0263023D01*
X0242710Y0263187D01*
X0242587Y0263354D01*
X0242469Y0263524D01*
X0242354Y0263697D01*
X0242244Y0263872D01*
X0242139Y0264050D01*
X0242037Y0264231D01*
X0241941Y0264413D01*
X0241848Y0264599D01*
X0241760Y0264786D01*
X0241677Y0264976D01*
X0241598Y0265167D01*
X0241524Y0265360D01*
X0241455Y0265556D01*
X0241391Y0265752D01*
X0241331Y0265950D01*
X0241276Y0266150D01*
X0241226Y0266351D01*
X0241181Y0266553D01*
X0241141Y0266756D01*
X0241106Y0266960D01*
X0241076Y0267165D01*
X0241051Y0267370D01*
X0241031Y0267576D01*
X0241016Y0267783D01*
X0241006Y0267990D01*
X0241001Y0268197D01*
X0241001Y0268403D01*
X0241006Y0268610D01*
X0241016Y0268817D01*
X0241031Y0269024D01*
X0241051Y0269230D01*
X0241076Y0269435D01*
X0241106Y0269640D01*
X0241141Y0269844D01*
X0241181Y0270047D01*
X0241226Y0270249D01*
X0241276Y0270450D01*
X0241331Y0270650D01*
X0241391Y0270848D01*
X0241455Y0271044D01*
X0241524Y0271240D01*
X0241598Y0271433D01*
X0241677Y0271624D01*
X0241760Y0271814D01*
X0241848Y0272001D01*
X0241941Y0272187D01*
X0242037Y0272369D01*
X0242139Y0272550D01*
X0242244Y0272728D01*
X0242354Y0272903D01*
X0242469Y0273076D01*
X0242587Y0273246D01*
X0242710Y0273413D01*
X0242836Y0273577D01*
X0242966Y0273737D01*
X0243101Y0273895D01*
X0243239Y0274049D01*
X0243381Y0274200D01*
X0243526Y0274347D01*
X0243675Y0274491D01*
X0243828Y0274631D01*
X0243984Y0274767D01*
X0244143Y0274899D01*
X0244305Y0275028D01*
X0244470Y0275152D01*
X0244639Y0275273D01*
X0244810Y0275389D01*
X0244984Y0275501D01*
X0245161Y0275609D01*
X0245340Y0275712D01*
X0245522Y0275812D01*
X0245706Y0275906D01*
X0245892Y0275996D01*
X0246081Y0276082D01*
X0246271Y0276163D01*
X0246464Y0276239D01*
X0246658Y0276311D01*
X0246854Y0276378D01*
X0247051Y0276440D01*
X0247250Y0276497D01*
X0247450Y0276549D01*
X0247652Y0276597D01*
X0247854Y0276639D01*
X0248058Y0276677D01*
X0248262Y0276709D01*
X0248468Y0276737D01*
X0248673Y0276760D01*
X0248880Y0276777D01*
X0249086Y0276790D01*
X0249293Y0276797D01*
X0249500Y0276800D01*
X0273500Y0276800D01*
X0273707Y0276797D01*
X0273914Y0276790D01*
X0274120Y0276777D01*
X0274327Y0276760D01*
X0274532Y0276737D01*
X0274738Y0276709D01*
X0274942Y0276677D01*
X0275146Y0276639D01*
X0275348Y0276597D01*
X0275550Y0276549D01*
X0275750Y0276497D01*
X0275949Y0276440D01*
X0276146Y0276378D01*
X0276342Y0276311D01*
X0276536Y0276239D01*
X0276729Y0276163D01*
X0276919Y0276082D01*
X0277108Y0275996D01*
X0277294Y0275906D01*
X0277478Y0275812D01*
X0277660Y0275712D01*
X0277839Y0275609D01*
X0278016Y0275501D01*
X0278190Y0275389D01*
X0278361Y0275273D01*
X0278530Y0275152D01*
X0278695Y0275028D01*
X0278857Y0274899D01*
X0279016Y0274767D01*
X0279172Y0274631D01*
X0279325Y0274491D01*
X0279474Y0274347D01*
X0279619Y0274200D01*
X0279761Y0274049D01*
X0279899Y0273895D01*
X0280034Y0273737D01*
X0280164Y0273577D01*
X0280290Y0273413D01*
X0280413Y0273246D01*
X0280531Y0273076D01*
X0280646Y0272903D01*
X0280756Y0272728D01*
X0280861Y0272550D01*
X0280963Y0272369D01*
X0281059Y0272187D01*
X0281152Y0272001D01*
X0281240Y0271814D01*
X0281323Y0271624D01*
X0281402Y0271433D01*
X0281476Y0271240D01*
X0281545Y0271044D01*
X0281609Y0270848D01*
X0281669Y0270650D01*
X0281724Y0270450D01*
X0281774Y0270249D01*
X0281819Y0270047D01*
X0281859Y0269844D01*
X0281894Y0269640D01*
X0281924Y0269435D01*
X0281949Y0269230D01*
X0281969Y0269024D01*
X0281984Y0268817D01*
X0281994Y0268610D01*
X0281999Y0268403D01*
X0281999Y0268197D01*
X0281994Y0267990D01*
X0281984Y0267783D01*
X0281969Y0267576D01*
X0281949Y0267370D01*
X0281924Y0267165D01*
X0281894Y0266960D01*
X0281859Y0266756D01*
X0281819Y0266553D01*
X0281774Y0266351D01*
X0281724Y0266150D01*
X0281669Y0265950D01*
X0281609Y0265752D01*
X0281545Y0265556D01*
X0281476Y0265360D01*
X0281402Y0265167D01*
X0281323Y0264976D01*
X0281240Y0264786D01*
X0281152Y0264599D01*
X0281059Y0264413D01*
X0280963Y0264231D01*
X0280861Y0264050D01*
X0280756Y0263872D01*
X0280646Y0263697D01*
X0280531Y0263524D01*
X0280413Y0263354D01*
X0280290Y0263187D01*
X0280164Y0263023D01*
X0280034Y0262863D01*
X0279899Y0262705D01*
X0279761Y0262551D01*
X0279619Y0262400D01*
X0279474Y0262253D01*
X0279325Y0262109D01*
X0279172Y0261969D01*
X0279016Y0261833D01*
X0278857Y0261701D01*
X0278695Y0261572D01*
X0278530Y0261448D01*
X0278361Y0261327D01*
X0278190Y0261211D01*
X0278016Y0261099D01*
X0277839Y0260991D01*
X0277660Y0260888D01*
X0277478Y0260788D01*
X0277294Y0260694D01*
X0277108Y0260604D01*
X0276919Y0260518D01*
X0276729Y0260437D01*
X0276536Y0260361D01*
X0276342Y0260289D01*
X0276146Y0260222D01*
X0275949Y0260160D01*
X0275750Y0260103D01*
X0275550Y0260051D01*
X0275348Y0260003D01*
X0275146Y0259961D01*
X0274942Y0259923D01*
X0274738Y0259891D01*
X0274532Y0259863D01*
X0274327Y0259840D01*
X0274120Y0259823D01*
X0273914Y0259810D01*
X0273707Y0259803D01*
X0273500Y0259800D01*
D99*
X0262700Y0285800D02*
X0262700Y0288300D01*
X0262700Y0290800D01*
X0260200Y0290800D02*
X0260200Y0288300D01*
X0260200Y0285800D01*
D100*
X0011500Y0287800D03*
D101*
X0011500Y0281550D03*
X0011500Y0305050D03*
M02*
