%
M48
M72
T01C0.01378
T02C0.01969
T03C0.03200
T04C0.03500
T05C0.04000
T06C0.04400
T07C0.04700
T08C0.07100
%
T01
X9600Y29400
X121500Y73300
X141500Y43300
X131500Y40411
X201500Y41411
X251500Y83300
X181500Y108300
X173189Y145189
X176500Y153300
X171500Y173300
X161500Y173300
X166436Y183204
X181500Y173300
X146500Y178300
X161500Y203300
X176500Y218300
X186500Y218300
X131500Y136189
X106500Y128300
X295500Y23100
X331500Y173300
T02
X71106Y223300
X51894Y223300
T03
X91500Y223300
X101500Y223300
X121500Y223300
X121500Y213300
X121500Y203300
X121500Y193300
X121500Y183300
X121500Y173300
X151500Y173300
X151500Y183300
X151500Y193300
X151500Y203300
X151500Y213300
X151500Y223300
X151500Y233300
X141500Y248300
X131500Y248300
X121500Y233300
X101500Y253300
X91500Y253300
X86500Y273300
X116500Y273300
X196500Y208300
X206500Y208300
X221500Y158300
X221500Y148300
X221500Y138300
X221500Y128300
X221500Y118300
X221500Y108300
X221500Y98300
X221500Y88300
X221500Y78300
X221500Y68300
X221500Y58300
X221500Y48300
X221500Y38300
X221500Y28300
X236500Y28300
X236500Y38300
X236500Y48300
X236500Y58300
X236500Y68300
X236500Y78300
X236500Y88300
X236500Y98300
X236500Y108300
X236500Y118300
X236500Y128300
X236500Y138300
X236500Y148300
X236500Y158300
X296500Y158300
X296500Y148300
X296500Y138300
X296500Y128300
X296500Y118300
X296500Y108300
X296500Y98300
X296500Y88300
X296500Y78300
X296500Y68300
X296500Y58300
X296500Y48300
X296500Y38300
X296500Y28300
X261500Y23300
X261500Y13300
X326500Y63300
X326500Y73300
X326500Y83300
X326500Y93300
X326500Y103300
X326500Y113300
X326500Y123300
X326500Y133300
X356500Y133300
X356500Y123300
X356500Y113300
X356500Y103300
X356500Y93300
X356500Y83300
X356500Y73300
X356500Y63300
X171500Y13300
X161500Y13300
X161500Y28300
X161500Y38300
X161500Y48300
X161500Y58300
X161500Y68300
X161500Y78300
X161500Y88300
X161500Y98300
X161500Y108300
X161500Y118300
X161500Y128300
X161500Y138300
X161500Y148300
X161500Y158300
X61500Y143300
X61500Y133300
X11500Y193300
X11500Y223300
X11500Y233300
X11500Y263300
X252000Y268300
X271000Y268300
X271500Y288300
X251500Y288300
T04
X31500Y13300
X31500Y23300
X31500Y33300
X31500Y43300
X31500Y53300
X31500Y63300
X31500Y73300
X31500Y83300
X31500Y93300
X31500Y103300
X31500Y113300
X31500Y123300
X31500Y133300
X31500Y143300
X31500Y153300
X31500Y163300
X31500Y173300
X31500Y183300
X31500Y193300
X31500Y203300
X91500Y203300
X91500Y193300
X91500Y183300
X91500Y173300
X91500Y163300
X91500Y153300
X91500Y143300
X91500Y133300
X91500Y123300
X91500Y113300
X91500Y103300
X91500Y93300
X91500Y83300
X91500Y73300
X91500Y63300
X91500Y53300
X91500Y43300
X91500Y33300
X91500Y23300
X91500Y13300
X186500Y193300
X196500Y193300
X206500Y193300
X216500Y193300
X226500Y193300
X236500Y193300
X246500Y193300
X256500Y193300
X266500Y193300
X276500Y193300
X286500Y193300
X296500Y193300
X306500Y193300
X316500Y193300
X316500Y253300
X306500Y253300
X296500Y253300
X286500Y253300
X276500Y253300
X266500Y253300
X256500Y253300
X246500Y253300
X236500Y253300
X226500Y253300
X216500Y253300
X206500Y253300
X196500Y253300
X186500Y253300
T05
X196500Y288300
X206500Y288300
X216500Y288300
X376500Y243300
X376500Y233300
X376500Y223300
X376500Y213300
X376500Y203300
X376500Y193300
X376500Y183300
X376500Y173300
X376500Y163300
X376500Y153300
X376500Y143300
X376500Y133300
X376500Y123300
X376500Y113300
X376500Y103300
X376500Y93300
X376500Y83300
X376500Y73300
X376500Y63300
X376500Y53300
X376500Y43300
X376500Y33300
X376500Y23300
X376500Y13300
X336500Y18300
X326500Y18300
X296500Y13300
X286500Y13300
X276500Y13300
X236500Y13300
X226500Y13300
X216500Y13300
X16500Y103300
X16500Y113300
X16500Y133300
X16500Y143300
X16500Y158300
X16500Y168300
X16500Y178300
T06
X11500Y273300
X11500Y313300
T07
X26900Y278100
X26900Y258500
X76100Y258500
X76100Y278100
T08
X51500Y286000
X51500Y250600
M30
