G75*
%MOIN*%
%OFA0B0*%
%FSLAX25Y25*%
%IPPOS*%
%LPD*%
%AMOC8*
5,1,8,0,0,1.08239X$1,22.5*
%
%ADD10OC8,0.06300*%
%ADD11C,0.06300*%
%ADD12OC8,0.05200*%
%ADD13C,0.03969*%
%ADD14C,0.07050*%
%ADD15R,0.06300X0.06300*%
%ADD16C,0.06000*%
%ADD17C,0.05200*%
%ADD18C,0.05200*%
%ADD19C,0.07600*%
%ADD20C,0.01600*%
%ADD21C,0.02400*%
%ADD22C,0.02978*%
%ADD23C,0.01000*%
%ADD24C,0.00600*%
D10*
X0091500Y0253300D03*
D11*
X0101500Y0253300D03*
X0091500Y0203300D03*
X0091500Y0193300D03*
X0091500Y0183300D03*
X0091500Y0173300D03*
X0091500Y0163300D03*
X0091500Y0153300D03*
X0091500Y0143300D03*
X0091500Y0133300D03*
X0091500Y0123300D03*
X0091500Y0113300D03*
X0091500Y0103300D03*
X0091500Y0093300D03*
X0091500Y0083300D03*
X0091500Y0073300D03*
X0091500Y0063300D03*
X0091500Y0053300D03*
X0091500Y0043300D03*
X0091500Y0033300D03*
X0091500Y0023300D03*
X0091500Y0013300D03*
X0031500Y0013300D03*
X0031500Y0023300D03*
X0031500Y0033300D03*
X0031500Y0043300D03*
X0031500Y0053300D03*
X0031500Y0063300D03*
X0031500Y0073300D03*
X0031500Y0083300D03*
X0031500Y0093300D03*
X0031500Y0103300D03*
X0031500Y0113300D03*
X0031500Y0123300D03*
X0031500Y0133300D03*
X0031500Y0143300D03*
X0031500Y0153300D03*
X0031500Y0163300D03*
X0031500Y0173300D03*
X0031500Y0183300D03*
X0031500Y0193300D03*
X0186500Y0193300D03*
X0196500Y0193300D03*
X0206500Y0193300D03*
X0216500Y0193300D03*
X0226500Y0193300D03*
X0236500Y0193300D03*
X0246500Y0193300D03*
X0256500Y0193300D03*
X0266500Y0193300D03*
X0276500Y0193300D03*
X0286500Y0193300D03*
X0296500Y0193300D03*
X0306500Y0193300D03*
X0316500Y0193300D03*
X0306500Y0253300D03*
X0296500Y0253300D03*
X0286500Y0253300D03*
X0276500Y0253300D03*
X0266500Y0253300D03*
X0256500Y0253300D03*
X0246500Y0253300D03*
X0236500Y0253300D03*
X0226500Y0253300D03*
X0216500Y0253300D03*
X0206500Y0253300D03*
X0196500Y0253300D03*
X0186500Y0253300D03*
D12*
X0141500Y0248300D03*
X0131500Y0248300D03*
X0116500Y0273300D03*
X0086500Y0273300D03*
X0091500Y0223300D03*
X0101500Y0223300D03*
X0011500Y0223300D03*
X0011500Y0233300D03*
X0011500Y0263300D03*
X0011500Y0193300D03*
X0061500Y0143300D03*
X0061500Y0133300D03*
X0196500Y0208300D03*
X0206500Y0208300D03*
X0251500Y0288300D03*
X0271500Y0288300D03*
X0261500Y0023300D03*
X0261500Y0013300D03*
X0171500Y0013300D03*
X0161500Y0013300D03*
D13*
X0071106Y0223300D03*
X0051894Y0223300D03*
D14*
X0072575Y0258500D02*
X0079625Y0258500D01*
X0079625Y0278100D02*
X0072575Y0278100D01*
X0030425Y0278100D02*
X0023375Y0278100D01*
X0023375Y0258500D02*
X0030425Y0258500D01*
D15*
X0031500Y0203300D03*
X0316500Y0253300D03*
D16*
X0373500Y0243300D02*
X0379500Y0243300D01*
X0379500Y0233300D02*
X0373500Y0233300D01*
X0373500Y0223300D02*
X0379500Y0223300D01*
X0379500Y0213300D02*
X0373500Y0213300D01*
X0373500Y0203300D02*
X0379500Y0203300D01*
X0379500Y0193300D02*
X0373500Y0193300D01*
X0373500Y0183300D02*
X0379500Y0183300D01*
X0379500Y0173300D02*
X0373500Y0173300D01*
X0373500Y0163300D02*
X0379500Y0163300D01*
X0379500Y0153300D02*
X0373500Y0153300D01*
X0373500Y0143300D02*
X0379500Y0143300D01*
X0379500Y0133300D02*
X0373500Y0133300D01*
X0373500Y0123300D02*
X0379500Y0123300D01*
X0379500Y0113300D02*
X0373500Y0113300D01*
X0373500Y0103300D02*
X0379500Y0103300D01*
X0379500Y0093300D02*
X0373500Y0093300D01*
X0373500Y0083300D02*
X0379500Y0083300D01*
X0379500Y0073300D02*
X0373500Y0073300D01*
X0373500Y0063300D02*
X0379500Y0063300D01*
X0379500Y0053300D02*
X0373500Y0053300D01*
X0373500Y0043300D02*
X0379500Y0043300D01*
X0379500Y0033300D02*
X0373500Y0033300D01*
X0373500Y0023300D02*
X0379500Y0023300D01*
X0379500Y0013300D02*
X0373500Y0013300D01*
X0336500Y0015300D02*
X0336500Y0021300D01*
X0326500Y0021300D02*
X0326500Y0015300D01*
X0296500Y0016300D02*
X0296500Y0010300D01*
X0286500Y0010300D02*
X0286500Y0016300D01*
X0276500Y0016300D02*
X0276500Y0010300D01*
X0236500Y0010300D02*
X0236500Y0016300D01*
X0226500Y0016300D02*
X0226500Y0010300D01*
X0216500Y0010300D02*
X0216500Y0016300D01*
X0019500Y0103300D02*
X0013500Y0103300D01*
X0013500Y0113300D02*
X0019500Y0113300D01*
X0019500Y0133300D02*
X0013500Y0133300D01*
X0013500Y0143300D02*
X0019500Y0143300D01*
X0019500Y0158300D02*
X0013500Y0158300D01*
X0013500Y0168300D02*
X0019500Y0168300D01*
X0019500Y0178300D02*
X0013500Y0178300D01*
X0196500Y0285300D02*
X0196500Y0291300D01*
X0206500Y0291300D02*
X0206500Y0285300D01*
X0216500Y0285300D02*
X0216500Y0291300D01*
D17*
X0154100Y0233300D02*
X0148900Y0233300D01*
X0148900Y0223300D02*
X0154100Y0223300D01*
X0154100Y0213300D02*
X0148900Y0213300D01*
X0148900Y0203300D02*
X0154100Y0203300D01*
X0154100Y0193300D02*
X0148900Y0193300D01*
X0148900Y0183300D02*
X0154100Y0183300D01*
X0154100Y0173300D02*
X0148900Y0173300D01*
X0158900Y0158300D02*
X0164100Y0158300D01*
X0164100Y0148300D02*
X0158900Y0148300D01*
X0158900Y0138300D02*
X0164100Y0138300D01*
X0164100Y0128300D02*
X0158900Y0128300D01*
X0158900Y0118300D02*
X0164100Y0118300D01*
X0164100Y0108300D02*
X0158900Y0108300D01*
X0158900Y0098300D02*
X0164100Y0098300D01*
X0164100Y0088300D02*
X0158900Y0088300D01*
X0158900Y0078300D02*
X0164100Y0078300D01*
X0164100Y0068300D02*
X0158900Y0068300D01*
X0158900Y0058300D02*
X0164100Y0058300D01*
X0164100Y0048300D02*
X0158900Y0048300D01*
X0158900Y0038300D02*
X0164100Y0038300D01*
X0164100Y0028300D02*
X0158900Y0028300D01*
X0218900Y0028300D02*
X0224100Y0028300D01*
X0233900Y0028300D02*
X0239100Y0028300D01*
X0239100Y0038300D02*
X0233900Y0038300D01*
X0224100Y0038300D02*
X0218900Y0038300D01*
X0218900Y0048300D02*
X0224100Y0048300D01*
X0233900Y0048300D02*
X0239100Y0048300D01*
X0239100Y0058300D02*
X0233900Y0058300D01*
X0224100Y0058300D02*
X0218900Y0058300D01*
X0218900Y0068300D02*
X0224100Y0068300D01*
X0233900Y0068300D02*
X0239100Y0068300D01*
X0239100Y0078300D02*
X0233900Y0078300D01*
X0224100Y0078300D02*
X0218900Y0078300D01*
X0218900Y0088300D02*
X0224100Y0088300D01*
X0233900Y0088300D02*
X0239100Y0088300D01*
X0239100Y0098300D02*
X0233900Y0098300D01*
X0224100Y0098300D02*
X0218900Y0098300D01*
X0218900Y0108300D02*
X0224100Y0108300D01*
X0233900Y0108300D02*
X0239100Y0108300D01*
X0239100Y0118300D02*
X0233900Y0118300D01*
X0224100Y0118300D02*
X0218900Y0118300D01*
X0218900Y0128300D02*
X0224100Y0128300D01*
X0233900Y0128300D02*
X0239100Y0128300D01*
X0239100Y0138300D02*
X0233900Y0138300D01*
X0224100Y0138300D02*
X0218900Y0138300D01*
X0218900Y0148300D02*
X0224100Y0148300D01*
X0233900Y0148300D02*
X0239100Y0148300D01*
X0239100Y0158300D02*
X0233900Y0158300D01*
X0224100Y0158300D02*
X0218900Y0158300D01*
X0293900Y0158300D02*
X0299100Y0158300D01*
X0299100Y0148300D02*
X0293900Y0148300D01*
X0293900Y0138300D02*
X0299100Y0138300D01*
X0299100Y0128300D02*
X0293900Y0128300D01*
X0293900Y0118300D02*
X0299100Y0118300D01*
X0299100Y0108300D02*
X0293900Y0108300D01*
X0293900Y0098300D02*
X0299100Y0098300D01*
X0299100Y0088300D02*
X0293900Y0088300D01*
X0293900Y0078300D02*
X0299100Y0078300D01*
X0299100Y0068300D02*
X0293900Y0068300D01*
X0293900Y0058300D02*
X0299100Y0058300D01*
X0299100Y0048300D02*
X0293900Y0048300D01*
X0293900Y0038300D02*
X0299100Y0038300D01*
X0299100Y0028300D02*
X0293900Y0028300D01*
X0323900Y0063300D02*
X0329100Y0063300D01*
X0329100Y0073300D02*
X0323900Y0073300D01*
X0323900Y0083300D02*
X0329100Y0083300D01*
X0329100Y0093300D02*
X0323900Y0093300D01*
X0323900Y0103300D02*
X0329100Y0103300D01*
X0329100Y0113300D02*
X0323900Y0113300D01*
X0323900Y0123300D02*
X0329100Y0123300D01*
X0329100Y0133300D02*
X0323900Y0133300D01*
X0353900Y0133300D02*
X0359100Y0133300D01*
X0359100Y0123300D02*
X0353900Y0123300D01*
X0353900Y0113300D02*
X0359100Y0113300D01*
X0359100Y0103300D02*
X0353900Y0103300D01*
X0353900Y0093300D02*
X0359100Y0093300D01*
X0359100Y0083300D02*
X0353900Y0083300D01*
X0353900Y0073300D02*
X0359100Y0073300D01*
X0359100Y0063300D02*
X0353900Y0063300D01*
X0124100Y0173300D02*
X0118900Y0173300D01*
X0118900Y0183300D02*
X0124100Y0183300D01*
X0124100Y0193300D02*
X0118900Y0193300D01*
X0118900Y0203300D02*
X0124100Y0203300D01*
X0124100Y0213300D02*
X0118900Y0213300D01*
X0118900Y0223300D02*
X0124100Y0223300D01*
X0124100Y0233300D02*
X0118900Y0233300D01*
D18*
X0252000Y0268300D03*
X0271000Y0268300D03*
D19*
X0011500Y0273300D03*
X0011500Y0313300D03*
D20*
X0101500Y0253300D02*
X0101500Y0243300D01*
X0111500Y0233300D01*
X0113243Y0233300D01*
X0117243Y0229300D01*
X0262500Y0229300D01*
X0286500Y0253300D01*
X0291500Y0254735D02*
X0291500Y0208300D01*
X0276500Y0223300D01*
X0151500Y0223300D01*
X0151500Y0203300D02*
X0161500Y0203300D01*
X0160757Y0197300D02*
X0176500Y0191557D01*
X0176500Y0166411D01*
X0179311Y0161928D01*
X0184900Y0153011D01*
X0184900Y0136643D01*
X0209243Y0112300D01*
X0225757Y0112300D01*
X0229757Y0108300D01*
X0236500Y0108300D01*
X0236500Y0098300D02*
X0246500Y0098300D01*
X0261500Y0113300D01*
X0326500Y0113300D01*
X0330757Y0109300D02*
X0340757Y0119300D01*
X0360757Y0119300D01*
X0363100Y0121643D01*
X0363100Y0124957D01*
X0360757Y0127300D01*
X0335646Y0127300D01*
X0331646Y0123300D01*
X0326500Y0123300D01*
X0322243Y0119300D02*
X0318243Y0123300D01*
X0291500Y0123300D01*
X0291500Y0125043D01*
X0289900Y0126643D01*
X0289900Y0149957D01*
X0292243Y0152300D01*
X0298757Y0152300D01*
X0311050Y0164593D01*
X0311050Y0195185D01*
X0296500Y0209735D01*
X0296500Y0253300D01*
X0291500Y0254735D02*
X0300065Y0263300D01*
X0381500Y0263300D01*
X0390401Y0254399D01*
X0390401Y0017201D01*
X0376500Y0013300D01*
X0381500Y0038300D02*
X0296500Y0038300D01*
X0296500Y0028300D02*
X0286500Y0018300D01*
X0286500Y0013300D01*
X0281500Y0048300D02*
X0236500Y0048300D01*
X0232243Y0052300D02*
X0272243Y0052300D01*
X0292243Y0072300D01*
X0298757Y0072300D01*
X0303100Y0076643D01*
X0303100Y0079900D01*
X0326500Y0103300D01*
X0330757Y0109300D02*
X0315757Y0109300D01*
X0300757Y0094300D01*
X0294243Y0094300D01*
X0289900Y0089957D01*
X0289900Y0086700D01*
X0281500Y0078300D01*
X0236500Y0078300D01*
X0251500Y0083300D02*
X0206500Y0083300D01*
X0181500Y0108300D01*
X0176500Y0113300D01*
X0176500Y0153300D01*
X0182500Y0151779D02*
X0182500Y0132300D01*
X0206500Y0108300D01*
X0221500Y0108300D01*
X0221500Y0118300D02*
X0191050Y0148750D01*
X0191050Y0195185D01*
X0186500Y0199735D01*
X0186500Y0218300D01*
X0181500Y0213300D02*
X0181500Y0173300D01*
X0171500Y0173300D02*
X0171500Y0162779D01*
X0182500Y0151779D01*
X0170300Y0160868D02*
X0170300Y0072611D01*
X0201500Y0041411D01*
X0191500Y0038300D02*
X0216500Y0013300D01*
X0226500Y0013300D02*
X0226500Y0025043D01*
X0228100Y0026643D01*
X0228100Y0029900D01*
X0236500Y0038300D01*
X0229900Y0036700D02*
X0229900Y0049957D01*
X0232243Y0052300D01*
X0229900Y0036700D02*
X0221500Y0028300D01*
X0204611Y0028300D01*
X0180611Y0052300D01*
X0157243Y0052300D01*
X0154900Y0049957D01*
X0154900Y0049811D01*
X0140589Y0035500D01*
X0099300Y0035500D01*
X0091500Y0043300D01*
X0089615Y0047850D02*
X0111050Y0047850D01*
X0161500Y0098300D01*
X0168100Y0096643D02*
X0168100Y0159957D01*
X0165757Y0162300D01*
X0162500Y0162300D01*
X0151500Y0173300D01*
X0146500Y0178300D02*
X0141500Y0183300D01*
X0121500Y0183300D01*
X0128846Y0191100D02*
X0143700Y0191100D01*
X0151500Y0183300D01*
X0166340Y0183300D01*
X0166436Y0183204D01*
X0161500Y0173300D02*
X0161500Y0169668D01*
X0170300Y0160868D01*
X0161500Y0158300D02*
X0106500Y0103300D01*
X0091500Y0103300D01*
X0091500Y0093300D02*
X0106500Y0093300D01*
X0161500Y0148300D01*
X0161500Y0138300D02*
X0106500Y0083300D01*
X0091500Y0083300D01*
X0091500Y0073300D02*
X0106500Y0073300D01*
X0161500Y0128300D01*
X0161500Y0118300D02*
X0106500Y0063300D01*
X0091500Y0063300D01*
X0091500Y0053300D02*
X0106500Y0053300D01*
X0161500Y0108300D01*
X0168100Y0096643D02*
X0161500Y0090043D01*
X0161500Y0088300D01*
X0161500Y0078300D02*
X0156500Y0078300D01*
X0151500Y0073300D01*
X0151500Y0060411D01*
X0131500Y0040411D01*
X0141500Y0043300D02*
X0156500Y0058300D01*
X0161500Y0058300D01*
X0161500Y0048300D02*
X0156500Y0048300D01*
X0141500Y0033300D01*
X0091500Y0033300D01*
X0085065Y0043300D02*
X0089615Y0047850D01*
X0085065Y0043300D02*
X0071500Y0043300D01*
X0051500Y0023300D01*
X0031500Y0023300D01*
X0031500Y0033300D02*
X0056500Y0058300D01*
X0104611Y0058300D01*
X0119611Y0073300D01*
X0121500Y0073300D01*
X0161500Y0038300D02*
X0191500Y0038300D01*
X0281500Y0048300D02*
X0289900Y0056700D01*
X0289900Y0059957D01*
X0292243Y0062300D01*
X0298757Y0062300D01*
X0303100Y0066643D01*
X0303100Y0069900D01*
X0326500Y0093300D01*
X0330757Y0119300D02*
X0322243Y0119300D01*
X0330757Y0119300D02*
X0334757Y0123300D01*
X0356500Y0123300D01*
X0348243Y0133300D02*
X0352643Y0137700D01*
X0380900Y0137700D01*
X0381500Y0138300D01*
X0381500Y0137523D01*
X0383900Y0135123D01*
X0383900Y0041477D01*
X0381500Y0039077D01*
X0381500Y0038300D01*
X0296500Y0128300D02*
X0304300Y0136100D01*
X0317411Y0136100D01*
X0343700Y0162389D01*
X0343700Y0175500D01*
X0367100Y0198900D01*
X0381323Y0198900D01*
X0383900Y0201477D01*
X0383900Y0225123D01*
X0376500Y0232523D01*
X0376500Y0233300D01*
X0376500Y0223300D02*
X0341500Y0188300D01*
X0341500Y0163300D01*
X0316500Y0138300D01*
X0296500Y0138300D01*
X0296500Y0148300D02*
X0306500Y0148300D01*
X0331500Y0173300D01*
X0306500Y0193300D02*
X0291500Y0208300D01*
X0286500Y0193300D02*
X0266500Y0173300D01*
X0266500Y0133300D01*
X0251500Y0118300D01*
X0236500Y0118300D01*
X0236500Y0128300D02*
X0246500Y0128300D01*
X0261500Y0143300D01*
X0261500Y0178300D01*
X0276500Y0193300D01*
X0266500Y0193300D02*
X0256500Y0183300D01*
X0256500Y0148300D01*
X0246500Y0138300D01*
X0236500Y0138300D01*
X0236500Y0148300D02*
X0241500Y0148300D01*
X0251500Y0158300D01*
X0251500Y0188300D01*
X0256500Y0193300D01*
X0246500Y0193300D02*
X0246500Y0163300D01*
X0241500Y0158300D01*
X0236500Y0158300D01*
X0229900Y0161700D02*
X0229900Y0151700D01*
X0226500Y0148300D01*
X0221500Y0148300D01*
X0221500Y0138300D02*
X0216500Y0138300D01*
X0214900Y0139900D01*
X0214900Y0181700D01*
X0226500Y0193300D01*
X0216500Y0193300D02*
X0211500Y0188300D01*
X0211500Y0133300D01*
X0216500Y0128300D01*
X0221500Y0128300D01*
X0229900Y0161700D02*
X0236500Y0168300D01*
X0236500Y0193300D01*
X0181500Y0213300D02*
X0176500Y0218300D01*
X0160757Y0197300D02*
X0137500Y0197300D01*
X0121500Y0213300D01*
X0111500Y0213300D02*
X0101500Y0203300D01*
X0091500Y0203300D01*
X0091500Y0193300D02*
X0113243Y0193300D01*
X0117243Y0197300D01*
X0125757Y0197300D01*
X0129757Y0193300D01*
X0151500Y0193300D01*
X0156500Y0193300D01*
X0128846Y0191100D02*
X0126646Y0193300D01*
X0121500Y0193300D01*
X0111500Y0213300D02*
X0111500Y0233300D01*
X0031500Y0193300D02*
X0021500Y0193300D01*
X0011500Y0203300D01*
X0011500Y0223300D01*
X0051500Y0163300D02*
X0091500Y0163300D01*
X0051500Y0163300D02*
X0036050Y0147850D01*
X0036050Y0141415D01*
X0033385Y0138750D01*
X0026950Y0138750D01*
X0023900Y0135700D01*
X0023900Y0111477D01*
X0016500Y0104077D01*
X0016500Y0103300D01*
X0091500Y0113300D02*
X0106500Y0113300D01*
X0131500Y0136189D01*
X0106500Y0128300D02*
X0096500Y0128300D01*
X0091500Y0133300D01*
X0326500Y0133300D02*
X0348243Y0133300D01*
D21*
X0081450Y0008350D02*
X0024450Y0008350D01*
X0016550Y0021250D01*
X0016550Y0045350D01*
X0029450Y0058250D01*
X0033550Y0058250D01*
X0041500Y0066200D01*
X0041500Y0133300D01*
X0051500Y0143300D01*
X0061500Y0143300D01*
X0071500Y0143300D02*
X0084500Y0143300D01*
X0089450Y0148250D01*
X0096450Y0148250D01*
X0101500Y0153300D01*
X0101500Y0173300D01*
X0091500Y0183300D01*
X0071500Y0143300D02*
X0061500Y0133300D01*
X0061500Y0066977D01*
X0042773Y0048250D01*
X0029450Y0048250D01*
X0026550Y0045350D01*
X0026550Y0021250D01*
X0029450Y0018350D01*
X0156450Y0018350D01*
X0161500Y0013300D01*
X0091500Y0013300D02*
X0081450Y0008350D01*
X0276500Y0013300D02*
X0276500Y0023300D01*
X0286500Y0033300D01*
X0321500Y0033300D01*
X0326500Y0028300D01*
X0326500Y0018300D01*
X0366500Y0048300D02*
X0371500Y0043300D01*
X0376500Y0043300D01*
X0366500Y0048300D02*
X0366500Y0133300D01*
X0356500Y0133300D01*
X0241500Y0213300D02*
X0211500Y0213300D01*
X0206500Y0208300D01*
X0231450Y0203250D02*
X0231450Y0191250D01*
X0221500Y0181300D01*
X0221500Y0158300D01*
X0231450Y0203250D02*
X0241500Y0213300D01*
X0141500Y0248300D02*
X0141500Y0273300D01*
X0111500Y0303300D01*
X0021500Y0303300D01*
X0011500Y0293300D01*
X0011500Y0273300D01*
D22*
X0146500Y0178300D03*
X0161500Y0173300D03*
X0171500Y0173300D03*
X0181500Y0173300D03*
X0166436Y0183204D03*
X0161500Y0203300D03*
X0176500Y0218300D03*
X0186500Y0218300D03*
X0176500Y0153300D03*
X0173189Y0145189D03*
X0131500Y0136189D03*
X0106500Y0128300D03*
X0121500Y0073300D03*
X0141500Y0043300D03*
X0131500Y0040411D03*
X0201500Y0041411D03*
X0251500Y0083300D03*
X0181500Y0108300D03*
X0295500Y0023100D03*
X0331500Y0173300D03*
X0009600Y0029400D03*
D23*
X0174600Y0077367D02*
X0221500Y0030467D01*
X0221500Y0028300D01*
X0174600Y0077367D02*
X0174600Y0143778D01*
X0173189Y0145189D01*
D24*
X0016500Y0158100D02*
X0016500Y0158300D01*
X0016500Y0158100D02*
X0009600Y0151200D01*
X0009600Y0029400D01*
X0295500Y0023100D02*
X0307200Y0011400D01*
X0338400Y0011400D01*
X0350100Y0023100D01*
X0376500Y0023100D01*
X0376500Y0023300D01*
M02*
